<svg width="171" height="76" fill="none" xmlns="http://www.w3.org/2000/svg"><g filter="url(#filter0_di_327_6754)" clip-path="url(#clip0_327_6754)"><mask id="a" fill="#fff"><path d="M-367 0c34.769 14.962 23.542 76 61.798 76h781.404C514.458 76 503.231 14.962 538 0h-905z"/></mask><path d="M-367 0c34.769 14.962 23.542 76 61.798 76h781.404C514.458 76 503.231 14.962 538 0h-905z" fill="url(#paint0_linear_327_6754)" fill-opacity=".3" shape-rendering="crispEdges"/><path d="M-367 0l-.395.918L-367-1v1zm61.798 76v1-1zm781.404 0v1-1zM538 0v-1l.395 1.919L538 0zm-905 0l.395-.919c8.959 3.856 14.919 10.67 19.419 18.613 4.486 7.916 7.571 17.05 10.716 25.57 3.166 8.58 6.387 16.523 11.136 22.332C-320.636 71.34-314.44 75-305.202 75v2c-9.89 0-16.637-3.97-21.68-10.138-4.991-6.104-8.31-14.355-11.465-22.905-3.177-8.609-6.195-17.54-10.579-25.277-4.368-7.71-10.043-14.135-18.469-17.762L-367 0zm61.798 76v-1h781.404v2h-781.404v-1zm781.404 0v-1c9.238 0 15.434-3.66 20.132-9.404 4.749-5.809 7.97-13.751 11.136-22.331 3.145-8.521 6.23-17.655 10.716-25.57 4.5-7.943 10.46-14.758 19.419-18.614L538 0l.395.919c-8.426 3.626-14.101 10.051-18.469 17.761-4.384 7.737-7.402 16.668-10.579 25.277-3.155 8.55-6.474 16.801-11.465 22.905C492.839 73.03 486.092 77 476.202 77v-1zM538 0v1h-905v-2h905v1z" fill="url(#paint1_linear_327_6754)" mask="url(#a)"/></g><defs><linearGradient id="paint0_linear_327_6754" x1="174.206" y1="0" x2="174.206" y2="76" gradientUnits="userSpaceOnUse"><stop stop-color="#887757"/><stop offset="1" stop-color="#C3B79E"/></linearGradient><linearGradient id="paint1_linear_327_6754" x1="174.206" y1="0" x2="174.206" y2="88" gradientUnits="userSpaceOnUse"><stop stop-color="#423621" stop-opacity="0"/><stop offset="1" stop-color="#CDC2AC"/></linearGradient><clipPath id="clip0_327_6754"><path fill="#fff" d="M0 0h171v76H0z"/></clipPath><filter id="filter0_di_327_6754" x="-368" y="-8" width="907" height="85" filterUnits="userSpaceOnUse" color-interpolation-filters="sRGB"><feFlood flood-opacity="0" result="BackgroundImageFix"/><feColorMatrix in="SourceAlpha" values="0 0 0 0 0 0 0 0 0 0 0 0 0 0 0 0 0 0 127 0" result="hardAlpha"/><feOffset/><feGaussianBlur stdDeviation=".5"/><feComposite in2="hardAlpha" operator="out"/><feColorMatrix values="0 0 0 0 1 0 0 0 0 1 0 0 0 0 1 0 0 0 1 0"/><feBlend in2="BackgroundImageFix" result="effect1_dropShadow_327_6754"/><feBlend in="SourceGraphic" in2="effect1_dropShadow_327_6754" result="shape"/><feColorMatrix in="SourceAlpha" values="0 0 0 0 0 0 0 0 0 0 0 0 0 0 0 0 0 0 127 0" result="hardAlpha"/><feOffset dy="-8"/><feGaussianBlur stdDeviation="4"/><feComposite in2="hardAlpha" operator="arithmetic" k2="-1" k3="1"/><feColorMatrix values="0 0 0 0 0 0 0 0 0 0 0 0 0 0 0 0 0 0 0.05 0"/><feBlend in2="shape" result="effect2_innerShadow_327_6754"/></filter></defs></svg>