<svg width="171" height="76" viewBox="0 0 171 76" fill="none" xmlns="http://www.w3.org/2000/svg">
<g clip-path="url(#clip0_327_6754)">
<g filter="url(#filter0_di_327_6754)">
<mask id="path-1-inside-1_327_6754" fill="white">
<path d="M-367 -7.91176e-05C-332.231 14.9624 -343.458 75.9998 -305.202 75.9999L476.202 76C514.458 75.9999 503.231 14.9625 538 0L-367 -7.91176e-05Z"/>
</mask>
<path d="M-367 -7.91176e-05C-332.231 14.9624 -343.458 75.9998 -305.202 75.9999L476.202 76C514.458 75.9999 503.231 14.9625 538 0L-367 -7.91176e-05Z" fill="url(#paint0_linear_327_6754)" fill-opacity="0.3" shape-rendering="crispEdges"/>
<path d="M-367 -7.91176e-05L-367.395 0.918478L-367 -1.00008L-367 -7.91176e-05ZM-305.202 75.9999L-305.202 76.9999L-305.202 75.9999ZM476.202 76L476.202 77L476.202 77L476.202 76ZM538 0L538 -1L538.395 0.918557L538 0ZM-367 -7.91176e-05L-366.605 -0.918636C-357.646 2.93654 -351.686 9.75148 -347.186 17.6942C-342.7 25.6103 -339.615 34.7438 -336.47 43.2646C-333.304 51.8446 -330.083 59.7875 -325.334 65.5959C-320.636 71.3407 -314.44 74.9999 -305.202 74.9999L-305.202 75.9999L-305.202 76.9999C-315.092 76.9999 -321.839 73.0294 -326.882 66.862C-331.873 60.7583 -335.192 52.5067 -338.347 43.957C-341.524 35.3481 -344.542 26.4168 -348.926 18.6802C-353.294 10.9702 -358.969 4.54455 -367.395 0.918478L-367 -7.91176e-05ZM-305.202 75.9999L-305.202 74.9999L476.202 75L476.202 76L476.202 77L-305.202 76.9999L-305.202 75.9999ZM476.202 76L476.202 75C485.44 75 491.636 71.3407 496.334 65.596C501.083 59.7875 504.304 51.8447 507.47 43.2647C510.615 34.7439 513.7 25.6104 518.186 17.6943C522.686 9.75156 528.646 2.93662 537.605 -0.918557L538 0L538.395 0.918557C529.969 4.54463 524.294 10.9703 519.926 18.6803C515.542 26.4169 512.524 35.3482 509.347 43.9571C506.192 52.5068 502.873 60.7584 497.882 66.8621C492.839 73.0295 486.092 77 476.202 77L476.202 76ZM538 0L538 1L-367 0.999921L-367 -7.91176e-05L-367 -1.00008L538 -1L538 0Z" fill="url(#paint1_linear_327_6754)" mask="url(#path-1-inside-1_327_6754)"/>
</g>
</g>
<defs>
<filter id="filter0_di_327_6754" x="-368" y="-8" width="907" height="85" filterUnits="userSpaceOnUse" color-interpolation-filters="sRGB">
<feFlood flood-opacity="0" result="BackgroundImageFix"/>
<feColorMatrix in="SourceAlpha" type="matrix" values="0 0 0 0 0 0 0 0 0 0 0 0 0 0 0 0 0 0 127 0" result="hardAlpha"/>
<feOffset/>
<feGaussianBlur stdDeviation="0.5"/>
<feComposite in2="hardAlpha" operator="out"/>
<feColorMatrix type="matrix" values="0 0 0 0 1 0 0 0 0 1 0 0 0 0 1 0 0 0 1 0"/>
<feBlend mode="normal" in2="BackgroundImageFix" result="effect1_dropShadow_327_6754"/>
<feBlend mode="normal" in="SourceGraphic" in2="effect1_dropShadow_327_6754" result="shape"/>
<feColorMatrix in="SourceAlpha" type="matrix" values="0 0 0 0 0 0 0 0 0 0 0 0 0 0 0 0 0 0 127 0" result="hardAlpha"/>
<feOffset dy="-8"/>
<feGaussianBlur stdDeviation="4"/>
<feComposite in2="hardAlpha" operator="arithmetic" k2="-1" k3="1"/>
<feColorMatrix type="matrix" values="0 0 0 0 0 0 0 0 0 0 0 0 0 0 0 0 0 0 0.05 0"/>
<feBlend mode="normal" in2="shape" result="effect2_innerShadow_327_6754"/>
</filter>
<linearGradient id="paint0_linear_327_6754" x1="174.206" y1="-4.39051e-05" x2="174.206" y2="76" gradientUnits="userSpaceOnUse">
<stop stop-color="#887757"/>
<stop offset="1" stop-color="#C3B79E"/>
</linearGradient>
<linearGradient id="paint1_linear_327_6754" x1="174.206" y1="-4.39051e-05" x2="174.206" y2="88" gradientUnits="userSpaceOnUse">
<stop stop-color="#423621" stop-opacity="0"/>
<stop offset="1" stop-color="#CDC2AC"/>
</linearGradient>
<clipPath id="clip0_327_6754">
<rect width="171" height="76" fill="white"/>
</clipPath>
</defs>
</svg>
