<svg width="1670" height="840" fill="none" xmlns="http://www.w3.org/2000/svg"><path d="M1192 330v30h113" stroke="#EB5F00"/><circle cx="1192" cy="327" r="4.5" fill="#fff" stroke="#EB5F00"/><path d="M497 282.5h79a1.5 1.5 0 011.5 1.5v20a1.5 1.5 0 01-1.5 1.5h-79a1.5 1.5 0 01-1.5-1.5v-20a1.5 1.5 0 011.5-1.5z" fill="#fff"/><path d="M497 282.5h79a1.5 1.5 0 011.5 1.5v20a1.5 1.5 0 01-1.5 1.5h-79a1.5 1.5 0 01-1.5-1.5v-20a1.5 1.5 0 011.5-1.5z" stroke="#EB5F00"/><path d="M509.832 289.144h3.304v1.484h-3.304v-1.484zm0 2.59h3.36v1.484h-3.36v-1.484zm2.716-4.452h1.876v7.588h-1.876v-7.588zm-8.456.924h6.132v5.964h-6.132v-5.964zm4.312 1.47h-2.478v3.038h2.478v-3.038zm1.624 5.53c1.372 0 2.455.224 3.248.672.793.439 1.19 1.05 1.19 1.834 0 .803-.397 1.423-1.19 1.862-.793.448-1.876.672-3.248.672-1.372 0-2.455-.224-3.248-.672-.793-.439-1.19-1.059-1.19-1.862 0-.784.397-1.395 1.19-1.834.793-.448 1.876-.672 3.248-.672zm0 1.428c-.56 0-1.031.037-1.414.112-.383.075-.677.196-.882.364a.757.757 0 00-.294.616c0 .243.098.448.294.616.205.159.499.28.882.364.383.075.854.112 1.414.112.56 0 1.031-.037 1.414-.112.383-.084.672-.205.868-.364a.781.781 0 00.294-.616.757.757 0 00-.294-.616c-.196-.168-.485-.289-.868-.364a7.513 7.513 0 00-1.414-.112zm6.635-3.36h.98c.812 0 1.507-.005 2.086-.014a37.038 37.038 0 001.61-.084c.485-.047.966-.117 1.442-.21l.196 1.47c-.383.075-.761.135-1.134.182-.364.037-.756.07-1.176.098-.411.019-.863.033-1.358.042h-2.646v-1.484zm-.028-5.32h5.698v4.032h-3.822v2.38h-1.848v-3.752h3.822v-1.19h-3.85v-1.47zm8.512-.672h1.876v7.882h-1.876v-7.882zm-2.058 1.722h2.408v1.484h-2.408v-1.484zm0 2.674h2.408v1.498h-2.408v-1.498zm-.448 3.696c1.381 0 2.464.215 3.248.644.793.429 1.19 1.031 1.19 1.806 0 .784-.397 1.391-1.19 1.82-.784.429-1.867.644-3.248.644-1.381 0-2.469-.215-3.262-.644-.793-.429-1.19-1.036-1.19-1.82 0-.775.397-1.377 1.19-1.806.793-.429 1.881-.644 3.262-.644zm0 1.4c-.569 0-1.045.042-1.428.126-.383.075-.672.191-.868.35a.691.691 0 00-.294.574c0 .243.098.443.294.602.196.159.485.275.868.35.383.075.859.112 1.428.112s1.045-.037 1.428-.112c.383-.075.667-.191.854-.35a.742.742 0 00.294-.602.691.691 0 00-.294-.574c-.187-.159-.471-.275-.854-.35-.383-.084-.859-.126-1.428-.126zm9.673-8.61a2.77 2.77 0 011.722.574c.513.373.91.91 1.19 1.61.289.691.434 1.507.434 2.45 0 .952-.145 1.778-.434 2.478-.28.691-.677 1.227-1.19 1.61a2.82 2.82 0 01-1.722.56 2.82 2.82 0 01-1.722-.56c-.504-.383-.901-.919-1.19-1.61-.29-.7-.434-1.526-.434-2.478 0-.943.144-1.759.434-2.45.289-.7.686-1.237 1.19-1.61a2.77 2.77 0 011.722-.574zm0 1.694c-.308 0-.584.112-.826.336-.234.224-.416.555-.546.994-.131.429-.196.966-.196 1.61 0 .635.065 1.176.196 1.624.13.439.312.77.546.994.242.224.518.336.826.336.326 0 .606-.112.84-.336.233-.224.415-.555.546-.994.13-.448.196-.989.196-1.624 0-.644-.066-1.181-.196-1.61-.131-.439-.313-.77-.546-.994a1.172 1.172 0 00-.84-.336zm5.474-2.604h1.862v13.006h-1.862v-13.006zm-2.674 4.69h3.458v1.484h-3.458v-1.484zm15.825-1.918h3.01v1.512h-3.01v-1.512zm-3.64-1.96h1.498v1.4c0 .877-.126 1.703-.378 2.478a5.45 5.45 0 01-1.176 2.03c-.523.569-1.195 1.003-2.016 1.302l-.98-1.456a4.757 4.757 0 001.386-.728 4.04 4.04 0 00.938-1.022c.243-.392.425-.807.546-1.246.121-.439.182-.891.182-1.358v-1.4zm.392 0h1.484v1.414c0 .42.056.831.168 1.232.112.401.285.784.518 1.148.233.364.532.691.896.98.373.28.812.509 1.316.686l-.98 1.428c-.775-.289-1.414-.705-1.918-1.246a5.146 5.146 0 01-1.12-1.904 7.294 7.294 0 01-.364-2.324v-1.414zm5.614-.784h1.876v9.562h-1.876v-9.562zm-6.706 11.242h8.862v1.498h-8.862v-1.498zm0-2.632h1.862v3.472h-1.862v-3.472zm10.765-2.702h.896a93 93 0 001.68-.014c.504-.019.98-.047 1.428-.084.448-.047.91-.107 1.386-.182l.168 1.484c-.495.084-.975.149-1.442.196-.467.047-.961.075-1.484.084-.513.009-1.092.014-1.736.014h-.896v-1.498zm0-5.054h5.096v1.484h-3.304v4.396h-1.792v-5.88zm1.26 2.548h3.71v1.4h-3.71v-1.4zm7.574-3.416h1.778v7.924h-1.778v-7.924zm-1.54 3.178h2.058v1.498h-2.058v-1.498zm-1.218-2.94h1.736v7.602h-1.736v-7.602zm-4.382 8.232h8.918v4.508h-1.862v-3.01h-7.056v-1.498z" fill="#EB5F00"/><path d="M213 704.5h51a1.5 1.5 0 011.5 1.5v20a1.5 1.5 0 01-1.5 1.5h-51a1.5 1.5 0 01-1.5-1.5v-20a1.5 1.5 0 011.5-1.5z" fill="#fff"/><path d="M213 704.5h51a1.5 1.5 0 011.5 1.5v20a1.5 1.5 0 01-1.5 1.5h-51a1.5 1.5 0 01-1.5-1.5v-20a1.5 1.5 0 011.5-1.5z" stroke="#EB5F00"/><path d="M219.574 719.264h11.746v1.512h-11.746v-1.512zm4.942-2.506h1.848v3.276h-1.848v-3.276zm-.014-4.788h1.638v.28c0 .625-.121 1.213-.364 1.764a4.507 4.507 0 01-1.078 1.47c-.467.439-1.041.807-1.722 1.106-.681.299-1.47.504-2.366.616l-.672-1.484c.793-.093 1.475-.252 2.044-.476.579-.233 1.05-.513 1.414-.84.373-.327.649-.672.826-1.036a2.48 2.48 0 00.28-1.12v-.28zm.238 0h1.638v.28c0 .373.089.747.266 1.12.187.364.462.709.826 1.036.373.327.849.607 1.428.84.579.224 1.26.383 2.044.476l-.672 1.484c-.896-.112-1.685-.317-2.366-.616s-1.26-.667-1.736-1.106a4.593 4.593 0 01-1.064-1.47 4.322 4.322 0 01-.364-1.764v-.28zm-4.172-.938h9.73v1.484h-9.73v-1.484zm3.948-1.582h1.848v2.184h-1.848v-2.184zm16.589-.182h1.862v12.964h-1.862v-12.964zm-3.822 1.344h1.834a13.4 13.4 0 01-.294 2.842 8.759 8.759 0 01-.952 2.534c-.439.793-1.045 1.531-1.82 2.212-.765.672-1.722 1.288-2.87 1.848l-.98-1.47c1.251-.607 2.245-1.274 2.982-2.002.747-.737 1.283-1.568 1.61-2.492.327-.933.49-1.979.49-3.136v-.336zm-4.382 0h5.25v1.484h-5.25v-1.484zm14.867 6.342h1.862v2.086h-1.862v-2.086zm5.446-7.672h1.862v12.964h-1.862v-12.964zm1.218 5.264h2.282v1.526h-2.282v-1.526zm-9.576 5.544l-.224-1.512c.746 0 1.563-.005 2.45-.014.896-.009 1.81-.042 2.744-.098.942-.056 1.852-.14 2.73-.252l.14 1.344c-.906.168-1.825.294-2.758.378-.934.075-1.834.121-2.702.14-.859.009-1.652.014-2.38.014zm.014-9.394h7.63v1.456h-7.63v-1.456zm3.822 1.974c.625 0 1.176.103 1.652.308.476.205.849.49 1.12.854.27.364.406.789.406 1.274 0 .476-.136.901-.406 1.274-.271.364-.644.649-1.12.854-.476.205-1.027.308-1.652.308-.616 0-1.162-.103-1.638-.308-.476-.205-.85-.49-1.12-.854a2.113 2.113 0 01-.406-1.274c0-.485.135-.91.406-1.274.27-.364.644-.649 1.12-.854.476-.205 1.022-.308 1.638-.308zm0 1.4c-.42 0-.761.093-1.022.28-.252.177-.378.429-.378.756 0 .336.126.593.378.77.261.177.602.266 1.022.266.429 0 .77-.089 1.022-.266.261-.177.392-.434.392-.77a.86.86 0 00-.392-.756c-.252-.187-.593-.28-1.022-.28zm-.924-4.732h1.862v2.45h-1.862v-2.45z" fill="#EB5F00"/><path d="M152.926 735.422h1.162v12.67h-1.162v-12.67zm-3.71 1.372h1.148c0 .915-.112 1.797-.336 2.646a8.747 8.747 0 01-1.022 2.422 9.329 9.329 0 01-1.82 2.114c-.747.653-1.652 1.237-2.716 1.75l-.616-.938c1.223-.588 2.231-1.274 3.024-2.058.793-.784 1.381-1.657 1.764-2.618a8.468 8.468 0 00.574-3.136v-.182zm-4.774 0h5.264v.938h-5.264v-.938zm13.649-.868h1.148v1.582h6.132v-1.582h1.148v5.068h-8.428v-5.068zm1.148 2.506v1.624h6.132v-1.624h-6.132zm-2.66 3.906h11.438v.952h-11.438v-.952zm5.138-1.904h1.162v2.324h-1.162v-2.324zm-3.668 6.426h8.694v.952h-8.694v-.952zm0-2.562h1.162v2.884h-1.162v-2.884zm20.075-8.876h1.162v6.888h-1.162v-6.888zm.84 2.912h2.184v.98h-2.184v-.98zm-4.368-2.156h1.26c0 1.064-.238 2.011-.714 2.842s-1.158 1.531-2.044 2.1c-.878.569-1.937 1.008-3.178 1.316l-.434-.952c1.092-.271 2.016-.635 2.772-1.092.765-.457 1.344-.994 1.736-1.61a3.623 3.623 0 00.602-2.016v-.588zm-4.55 0h5.264v.952h-5.264v-.952zm.784 6.79h1.092v1.512h2.184v-1.512h1.064v4.942h-4.34v-4.942zm1.092 2.408V747h2.184v-1.624h-2.184zm5.516-2.548h.91v1.064c0 .541-.094 1.083-.28 1.624a4.471 4.471 0 01-.812 1.47 3.92 3.92 0 01-1.386 1.05l-.63-.882c.494-.215.9-.499 1.218-.854a3.75 3.75 0 00.728-1.176c.168-.42.252-.831.252-1.232v-1.064zm.224 0h.896v1.022c0 .411.079.831.238 1.26.168.429.41.826.728 1.19a3.65 3.65 0 001.204.854l-.616.882a3.785 3.785 0 01-1.386-1.036 4.61 4.61 0 01-.812-1.484 5.682 5.682 0 01-.252-1.666v-1.022zm10.387-6.594c.886 0 1.675.145 2.366.434.69.289 1.236.695 1.638 1.218.401.523.602 1.134.602 1.834 0 .709-.201 1.325-.602 1.848-.402.523-.948.929-1.638 1.218-.691.289-1.48.434-2.366.434-.868 0-1.652-.145-2.352-.434-.691-.289-1.237-.695-1.638-1.218-.402-.523-.602-1.139-.602-1.848 0-.7.2-1.311.602-1.834.401-.523.947-.929 1.638-1.218.7-.289 1.484-.434 2.352-.434zm0 .938c-.663 0-1.256.107-1.778.322-.523.215-.938.513-1.246.896a2.024 2.024 0 00-.462 1.33c0 .504.154.947.462 1.33.308.383.723.681 1.246.896.522.215 1.115.322 1.778.322.672 0 1.269-.107 1.792-.322.522-.215.933-.513 1.232-.896a2.06 2.06 0 00.462-1.33c0-.513-.154-.957-.462-1.33-.299-.383-.71-.681-1.232-.896-.523-.215-1.12-.322-1.792-.322zm-5.712 8.274h11.48v.966h-11.48v-.966zm12.879.112h11.48v.966h-11.48v-.966zm5.138-2.702h1.148v3.108h-1.148v-3.108zm-3.738-6.496h8.652v3.836h-7.476v2.534h-1.148v-3.458h7.476v-1.96h-7.504v-.952zm.028 5.88h8.918v.952h-8.918v-.952zm15.388 3.29h11.48v.966h-11.48v-.966zm5.152-2.87h1.148v3.388h-1.148v-3.388zm-.014-4.578h1.036v.28a3.83 3.83 0 01-.406 1.764 4.7 4.7 0 01-1.12 1.4 6.815 6.815 0 01-1.624 1.008 8.243 8.243 0 01-1.946.56l-.448-.91a7.95 7.95 0 001.736-.49 5.577 5.577 0 001.442-.84c.42-.336.747-.714.98-1.134.233-.42.35-.873.35-1.358v-.28zm.154 0h1.022v.28c0 .485.117.938.35 1.358.233.42.555.798.966 1.134.42.336.901.616 1.442.84a8.237 8.237 0 001.75.49l-.448.91a8.51 8.51 0 01-1.946-.56 6.815 6.815 0 01-1.624-1.008 4.794 4.794 0 01-1.106-1.4 3.83 3.83 0 01-.406-1.764v-.28zm-4.228-.658h9.324v.952h-9.324v-.952zm4.088-1.736h1.148v2.086h-1.148v-2.086zm16.953-.266h1.162v12.67h-1.162v-12.67zm-3.71 1.372h1.148c0 .915-.112 1.797-.336 2.646a8.747 8.747 0 01-1.022 2.422 9.329 9.329 0 01-1.82 2.114c-.747.653-1.652 1.237-2.716 1.75l-.616-.938c1.223-.588 2.231-1.274 3.024-2.058.793-.784 1.381-1.657 1.764-2.618a8.468 8.468 0 00.574-3.136v-.182zm-4.774 0h5.264v.938h-5.264v-.938zm15.413 6.174h1.162v2.058h-1.162v-2.058zm5.32-7.546h1.162v12.67h-1.162v-12.67zm.798 5.376h2.338v.98h-2.338v-.98zm-9.366 4.886l-.182-.98c.765 0 1.596-.005 2.492-.014a72.397 72.397 0 002.772-.112 35.28 35.28 0 002.73-.266l.084.854c-.905.159-1.829.275-2.772.35-.933.075-1.839.121-2.716.14-.868.019-1.671.028-2.408.028zm.042-8.722h7.56v.938h-7.56v-.938zm3.794 1.666c.588 0 1.106.098 1.554.294.448.196.798.471 1.05.826.252.345.378.756.378 1.232 0 .467-.126.877-.378 1.232s-.602.63-1.05.826c-.448.187-.966.28-1.554.28-.588 0-1.111-.093-1.568-.28-.448-.196-.798-.471-1.05-.826a2.126 2.126 0 01-.364-1.232c0-.476.121-.887.364-1.232.252-.355.602-.63 1.05-.826.457-.196.98-.294 1.568-.294zm0 .91c-.569 0-1.027.131-1.372.392a1.25 1.25 0 00-.518 1.05c0 .429.173.775.518 1.036.345.261.803.392 1.372.392.56 0 1.013-.131 1.358-.392.345-.261.518-.607.518-1.036a1.25 1.25 0 00-.518-1.05c-.345-.261-.798-.392-1.358-.392zm-.588-4.088h1.162v2.128h-1.162v-2.128z" fill="#000"/><path d="M181 93.5h79a1.5 1.5 0 011.5 1.5v20a1.5 1.5 0 01-1.5 1.5h-79a1.5 1.5 0 01-1.5-1.5V95a1.5 1.5 0 011.5-1.5z" fill="#fff"/><path d="M181 93.5h79a1.5 1.5 0 011.5 1.5v20a1.5 1.5 0 01-1.5 1.5h-79a1.5 1.5 0 01-1.5-1.5V95a1.5 1.5 0 011.5-1.5z" stroke="#EB5F00"/><path d="M193.832 100.144h3.304v1.484h-3.304v-1.484zm0 2.59h3.36v1.484h-3.36v-1.484zm2.716-4.452h1.876v7.588h-1.876v-7.588zm-8.456.924h6.132v5.964h-6.132v-5.964zm4.312 1.47h-2.478v3.038h2.478v-3.038zm1.624 5.53c1.372 0 2.455.224 3.248.672.793.439 1.19 1.05 1.19 1.834 0 .803-.397 1.423-1.19 1.862-.793.448-1.876.672-3.248.672-1.372 0-2.455-.224-3.248-.672-.793-.439-1.19-1.059-1.19-1.862 0-.784.397-1.395 1.19-1.834.793-.448 1.876-.672 3.248-.672zm0 1.428c-.56 0-1.031.037-1.414.112-.383.075-.677.196-.882.364a.757.757 0 00-.294.616c0 .243.098.448.294.616.205.159.499.28.882.364.383.075.854.112 1.414.112.56 0 1.031-.037 1.414-.112.383-.084.672-.205.868-.364a.781.781 0 00.294-.616.757.757 0 00-.294-.616c-.196-.168-.485-.289-.868-.364a7.513 7.513 0 00-1.414-.112zm6.635-3.36h.98c.812 0 1.507-.005 2.086-.014a37.038 37.038 0 001.61-.084c.485-.047.966-.117 1.442-.21l.196 1.47c-.383.075-.761.135-1.134.182-.364.037-.756.07-1.176.098-.411.019-.863.033-1.358.042h-2.646v-1.484zm-.028-5.32h5.698v4.032h-3.822v2.38h-1.848v-3.752h3.822v-1.19h-3.85v-1.47zm8.512-.672h1.876v7.882h-1.876v-7.882zm-2.058 1.722h2.408v1.484h-2.408v-1.484zm0 2.674h2.408v1.498h-2.408v-1.498zm-.448 3.696c1.381 0 2.464.215 3.248.644.793.429 1.19 1.031 1.19 1.806 0 .784-.397 1.391-1.19 1.82-.784.429-1.867.644-3.248.644-1.381 0-2.469-.215-3.262-.644-.793-.429-1.19-1.036-1.19-1.82 0-.775.397-1.377 1.19-1.806.793-.429 1.881-.644 3.262-.644zm0 1.4c-.569 0-1.045.042-1.428.126-.383.075-.672.191-.868.35a.691.691 0 00-.294.574c0 .243.098.443.294.602.196.159.485.275.868.35.383.075.859.112 1.428.112s1.045-.037 1.428-.112c.383-.075.667-.191.854-.35a.742.742 0 00.294-.602.691.691 0 00-.294-.574c-.187-.159-.471-.275-.854-.35-.383-.084-.859-.126-1.428-.126zm9.673-8.61a2.77 2.77 0 011.722.574c.513.373.91.91 1.19 1.61.289.691.434 1.507.434 2.45 0 .952-.145 1.778-.434 2.478-.28.691-.677 1.227-1.19 1.61a2.82 2.82 0 01-1.722.56 2.82 2.82 0 01-1.722-.56c-.504-.383-.901-.919-1.19-1.61-.29-.7-.434-1.526-.434-2.478 0-.943.144-1.759.434-2.45.289-.7.686-1.237 1.19-1.61a2.773 2.773 0 011.722-.574zm0 1.694c-.308 0-.584.112-.826.336-.234.224-.416.555-.546.994-.131.429-.196.966-.196 1.61 0 .635.065 1.176.196 1.624.13.439.312.77.546.994.242.224.518.336.826.336.326 0 .606-.112.84-.336.233-.224.415-.555.546-.994.13-.448.196-.989.196-1.624 0-.644-.066-1.181-.196-1.61-.131-.439-.313-.77-.546-.994a1.172 1.172 0 00-.84-.336zm5.474-2.604h1.862v13.006h-1.862V98.254zm-2.674 4.69h3.458v1.484h-3.458v-1.484zm13.935-3.934h1.96c0 1.139-.233 2.156-.7 3.052-.457.896-1.125 1.661-2.002 2.296-.868.625-1.937 1.115-3.206 1.47l-.714-1.456c1.036-.28 1.899-.639 2.59-1.078.691-.448 1.209-.957 1.554-1.526a3.6 3.6 0 00.518-1.876v-.882zm-3.962 0h5.264v1.484h-5.264V99.01zm8.218-.742h1.876v7.252h-1.876v-7.252zm-2.226 3.08h2.492v1.512h-2.492v-1.512zm-4.452 4.704h8.554v5.054h-8.554v-5.054zm6.72 1.456h-4.886v2.128h4.886v-2.128zm5.907-8.498h1.456v1.498c0 .737-.103 1.456-.308 2.156a5.424 5.424 0 01-.966 1.876c-.429.551-.999.98-1.708 1.288l-.98-1.442c.597-.271 1.078-.616 1.442-1.036.373-.42.644-.877.812-1.372.168-.495.252-.985.252-1.47V99.01zm.35 0h1.456v1.498c0 .476.079.943.238 1.4.159.448.415.859.77 1.232.355.373.817.681 1.386.924l-.98 1.414c-.672-.28-1.223-.672-1.652-1.176a5.02 5.02 0 01-.924-1.736 7.12 7.12 0 01-.294-2.058V99.01zm6.594-.728h1.778v7.868h-1.778v-7.868zm-1.54 3.15h2.058v1.498h-2.058v-1.498zm-1.19-2.954h1.736v7.602h-1.736v-7.602zm-4.41 8.232h8.918v4.536h-1.862v-3.052h-7.056v-1.484z" fill="#EB5F00"/><path d="M98.468 126.256h3.85v.938h-3.85v-.938zm0 2.912h3.85v.952h-3.85v-.952zm-2.31-3.99c.616 0 1.167.131 1.652.392.495.252.882.607 1.162 1.064.29.448.434.966.434 1.554a2.87 2.87 0 01-.434 1.568c-.28.448-.667.803-1.162 1.064-.485.252-1.036.378-1.652.378-.625 0-1.185-.126-1.68-.378a3.112 3.112 0 01-1.162-1.064c-.28-.457-.42-.98-.42-1.568 0-.588.14-1.106.42-1.554.29-.457.677-.812 1.162-1.064.495-.261 1.055-.392 1.68-.392zm0 .994c-.41 0-.78.084-1.106.252a1.895 1.895 0 00-.77.714c-.187.299-.28.649-.28 1.05 0 .392.093.742.28 1.05.187.299.443.537.77.714.327.168.695.252 1.106.252a2.3 2.3 0 001.092-.252c.327-.177.583-.415.77-.714.187-.308.28-.658.28-1.05 0-.401-.093-.751-.28-1.05a1.895 1.895 0 00-.77-.714 2.299 2.299 0 00-1.092-.252zm5.796-1.75h1.162v7.49h-1.162v-7.49zm-3.01 7.798c.877 0 1.629.098 2.254.294.625.187 1.106.462 1.442.826.345.355.518.789.518 1.302 0 .504-.173.938-.518 1.302-.336.364-.817.639-1.442.826-.625.196-1.377.294-2.254.294-.868 0-1.62-.098-2.254-.294-.625-.187-1.11-.462-1.456-.826a1.854 1.854 0 01-.504-1.302c0-.513.168-.947.504-1.302.345-.364.83-.639 1.456-.826.635-.196 1.386-.294 2.254-.294zm0 .91c-.635 0-1.185.061-1.652.182-.457.121-.812.294-1.064.518a1.066 1.066 0 00-.364.812c0 .308.121.574.364.798.252.224.607.397 1.064.518.467.121 1.017.182 1.652.182.644 0 1.195-.061 1.652-.182.457-.121.807-.294 1.05-.518.252-.224.378-.49.378-.798 0-.317-.126-.588-.378-.812-.243-.224-.593-.397-1.05-.518-.457-.121-1.008-.182-1.652-.182zm6.621-2.24h11.48v.952h-11.48v-.952zm5.236.602h1.162v2.912h-1.162v-2.912zm-3.752-6.468h8.498v4.438h-8.498v-4.438zm7.364.924h-6.23v2.59h6.23v-2.59zm-7.392 9.912h8.75v.952h-8.75v-.952zm0-2.674h1.162v2.996h-1.162v-2.996zm21.408-6.706h3.654v.938h-3.654v-.938zm0 2.506h3.682v.952h-3.682v-.952zm3.22-4.564h1.162v7.49h-1.162v-7.49zm-8.666.966h5.768v5.628h-5.768v-5.628zm4.634.938h-3.5v3.752h3.5v-3.752zm1.022 5.964c1.307 0 2.334.21 3.08.63.756.42 1.134 1.008 1.134 1.764s-.378 1.339-1.134 1.75c-.746.42-1.773.63-3.08.63-1.306 0-2.338-.21-3.094-.63-.746-.411-1.12-.994-1.12-1.75s.374-1.344 1.12-1.764c.756-.42 1.788-.63 3.094-.63zm0 .91c-.634 0-1.18.061-1.638.182-.457.112-.812.28-1.064.504a1.026 1.026 0 00-.364.798c0 .299.122.56.364.784.252.215.607.383 1.064.504.458.121 1.004.182 1.638.182.644 0 1.19-.061 1.638-.182.458-.121.808-.289 1.05-.504.252-.224.378-.485.378-.784 0-.317-.126-.583-.378-.798-.242-.224-.592-.392-1.05-.504-.448-.121-.994-.182-1.638-.182zm7.167-2.59h.896c.831 0 1.54-.005 2.128-.014a36.923 36.923 0 001.624-.084c.495-.047.994-.117 1.498-.21l.112.952c-.382.065-.76.121-1.134.168-.373.037-.765.065-1.176.084-.41.019-.863.033-1.358.042-.494.009-1.059.014-1.694.014h-.896v-.952zm-.028-5.474h5.446v3.57h-4.27v2.52h-1.148v-3.43h4.27v-1.708h-4.298v-.952zm8.75-.7h1.162v7.812h-1.162v-7.812zm-2.45 1.974h2.73v.952h-2.73v-.952zm0 2.576h2.73v.952h-2.73v-.952zm-.546 3.5c1.307 0 2.334.205 3.08.616.756.401 1.134.975 1.134 1.722 0 .737-.378 1.311-1.134 1.722-.746.411-1.773.616-3.08.616-1.306 0-2.338-.205-3.094-.616-.756-.411-1.134-.985-1.134-1.722 0-.747.378-1.321 1.134-1.722.756-.411 1.788-.616 3.094-.616zm0 .91c-.634 0-1.185.056-1.652.168-.457.112-.807.275-1.05.49a.97.97 0 00-.364.77c0 .299.122.555.364.77.243.215.593.378 1.05.49.467.112 1.018.168 1.652.168.635 0 1.181-.056 1.638-.168.458-.112.808-.275 1.05-.49.252-.215.378-.471.378-.77a.954.954 0 00-.378-.77c-.242-.215-.592-.378-1.05-.49-.457-.112-1.003-.168-1.638-.168zm9.995-7.994c.616 0 1.162.182 1.638.546.476.355.845.863 1.106 1.526.271.663.406 1.442.406 2.338 0 .896-.135 1.675-.406 2.338-.261.663-.63 1.176-1.106 1.54a2.624 2.624 0 01-1.638.546 2.66 2.66 0 01-1.638-.546c-.476-.364-.849-.877-1.12-1.54-.261-.663-.392-1.442-.392-2.338 0-.896.131-1.675.392-2.338.271-.663.644-1.171 1.12-1.526a2.66 2.66 0 011.638-.546zm0 1.036c-.401 0-.756.14-1.064.42-.308.271-.551.663-.728 1.176-.168.504-.252 1.097-.252 1.778s.084 1.279.252 1.792c.177.504.42.896.728 1.176.308.28.663.42 1.064.42.411 0 .77-.14 1.078-.42.308-.28.546-.672.714-1.176.177-.513.266-1.111.266-1.792s-.089-1.274-.266-1.778c-.168-.513-.406-.905-.714-1.176a1.552 1.552 0 00-1.078-.42zm5.894-2.016h1.148v12.684h-1.148v-12.684zm-3.122 4.83h3.64v.938h-3.64v-.938zm8.857 5.356l-.08.537c-.056.378-.142.782-.258 1.213-.113.431-.231.837-.353 1.218-.123.381-.224.684-.303.91h-.895l.169-.84c.069-.348.139-.738.209-1.169.072-.427.132-.865.179-1.312l.059-.557h1.273zm11.715-8.38h3.556v.896h-3.556v-.896zm0 2.296h3.556v.91h-3.556v-.91zm3.276-4.102h1.148v6.608h-1.148v-6.608zm-7 7.224h8.148v3.01h-6.972v1.946h-1.148v-2.828h6.972v-1.204h-7v-.924zm.028 4.34h8.596v.938h-8.596v-.938zm-1.666-10.976h1.162v1.806h3.416v-1.806h1.148v5.516h-5.726v-5.516zm1.162 2.716v1.862h3.416v-1.862h-3.416zm14.531-1.204h.952v.546a4.86 4.86 0 01-.448 2.072 4.918 4.918 0 01-1.26 1.652 5.283 5.283 0 01-1.862 1.05l-.574-.91a4.823 4.823 0 001.288-.616 4.67 4.67 0 001.008-.896c.29-.345.509-.719.658-1.12.159-.401.238-.812.238-1.232v-.546zm.196 0h.952v.546c0 .392.08.775.238 1.148.159.364.383.705.672 1.022.29.308.63.583 1.022.826.402.233.836.42 1.302.56l-.546.91a5.77 5.77 0 01-1.89-.966 4.782 4.782 0 01-1.288-1.554 4.183 4.183 0 01-.462-1.946v-.546zm-3.066-.546h6.874v.938h-6.874v-.938zm2.87-1.554h1.162v1.974h-1.162v-1.974zm5.782.014h1.162v7.756h-1.162v-7.756zm-3.038 8.022c.878 0 1.634.093 2.268.28.635.177 1.125.434 1.47.77.346.336.518.751.518 1.246 0 .728-.382 1.293-1.148 1.694-.756.411-1.792.616-3.108.616-1.325 0-2.366-.205-3.122-.616-.746-.401-1.12-.966-1.12-1.694s.374-1.293 1.12-1.694c.756-.401 1.797-.602 3.122-.602zm0 .91c-.644 0-1.199.056-1.666.168-.457.112-.807.271-1.05.476-.242.205-.364.453-.364.742 0 .439.271.784.812 1.036.551.243 1.307.364 2.268.364.962 0 1.718-.121 2.268-.364.551-.252.826-.597.826-1.036 0-.289-.126-.537-.378-.742-.252-.205-.606-.364-1.064-.476-.457-.112-1.008-.168-1.652-.168zm12.417-8.134c.887 0 1.676.145 2.366.434.691.289 1.237.695 1.638 1.218.402.523.602 1.134.602 1.834 0 .709-.2 1.325-.602 1.848-.401.523-.947.929-1.638 1.218-.69.289-1.479.434-2.366.434-.868 0-1.652-.145-2.352-.434-.69-.289-1.236-.695-1.638-1.218-.401-.523-.602-1.139-.602-1.848 0-.7.201-1.311.602-1.834.402-.523.948-.929 1.638-1.218.7-.289 1.484-.434 2.352-.434zm0 .938c-.662 0-1.255.107-1.778.322-.522.215-.938.513-1.246.896a2.024 2.024 0 00-.462 1.33c0 .504.154.947.462 1.33.308.383.724.681 1.246.896.523.215 1.116.322 1.778.322.672 0 1.27-.107 1.792-.322.523-.215.934-.513 1.232-.896a2.06 2.06 0 00.462-1.33c0-.513-.154-.957-.462-1.33-.298-.383-.709-.681-1.232-.896-.522-.215-1.12-.322-1.792-.322zm-5.712 8.274h11.48v.966h-11.48v-.966zm12.879.112h11.48v.966h-11.48v-.966zm5.138-2.702h1.148v3.108h-1.148v-3.108zm-3.738-6.496h8.652v3.836h-7.476v2.534h-1.148v-3.458h7.476v-1.96h-7.504v-.952zm.028 5.88h8.918v.952h-8.918v-.952zm20.652-5.992h1.218c0 1.055-.238 2.011-.714 2.87-.476.849-1.152 1.577-2.03 2.184-.868.607-1.908 1.087-3.122 1.442l-.476-.91c1.064-.308 1.979-.709 2.744-1.204.766-.495 1.354-1.069 1.764-1.722a4.04 4.04 0 00.616-2.17v-.49zm-4.48 0h5.264v.938h-5.264v-.938zm8.47-.812h1.162v7.21H233.6v-7.21zm-2.744 3.248h2.954v.966h-2.954v-.966zm-4.256 4.508h8.162v4.718H226.6v-4.718zm7.014.924h-5.88v2.856h5.88v-2.856zm6.257-7.924h.924v1.68c0 .635-.116 1.265-.35 1.89a5.26 5.26 0 01-.994 1.694c-.438.504-.97.896-1.596 1.176l-.63-.91a4.43 4.43 0 001.414-1.008 4.43 4.43 0 00.91-1.372c.215-.495.322-.985.322-1.47v-1.68zm.196 0h.924v1.68c0 .476.098.947.294 1.414.206.457.5.873.882 1.246.383.373.84.667 1.372.882l-.616.896a4.452 4.452 0 01-1.554-1.064 4.763 4.763 0 01-.98-1.554 5.206 5.206 0 01-.322-1.82v-1.68zm6.72-.756h1.106v7.644h-1.106v-7.644zm-2.044 3.29h2.38v.966h-2.38v-.966zm-.672-3.066h1.092v7.35h-1.092v-7.35zm-4.662 8.12h8.484v4.312h-1.148v-3.36h-7.336v-.952z" fill="#000"/><path d="M153 571.5h107a1.5 1.5 0 011.5 1.5v20a1.5 1.5 0 01-1.5 1.5H153a1.5 1.5 0 01-1.5-1.5v-20a1.5 1.5 0 011.5-1.5z" fill="#fff"/><path d="M153 571.5h107a1.5 1.5 0 011.5 1.5v20a1.5 1.5 0 01-1.5 1.5H153a1.5 1.5 0 01-1.5-1.5v-20a1.5 1.5 0 011.5-1.5z" stroke="#EB5F00"/><path d="M165.832 578.144h3.304v1.484h-3.304v-1.484zm0 2.59h3.36v1.484h-3.36v-1.484zm2.716-4.452h1.876v7.588h-1.876v-7.588zm-8.456.924h6.132v5.964h-6.132v-5.964zm4.312 1.47h-2.478v3.038h2.478v-3.038zm1.624 5.53c1.372 0 2.455.224 3.248.672.793.439 1.19 1.05 1.19 1.834 0 .803-.397 1.423-1.19 1.862-.793.448-1.876.672-3.248.672-1.372 0-2.455-.224-3.248-.672-.793-.439-1.19-1.059-1.19-1.862 0-.784.397-1.395 1.19-1.834.793-.448 1.876-.672 3.248-.672zm0 1.428c-.56 0-1.031.037-1.414.112-.383.075-.677.196-.882.364a.757.757 0 00-.294.616c0 .243.098.448.294.616.205.159.499.28.882.364.383.075.854.112 1.414.112.56 0 1.031-.037 1.414-.112.383-.084.672-.205.868-.364a.781.781 0 00.294-.616.757.757 0 00-.294-.616c-.196-.168-.485-.289-.868-.364a7.513 7.513 0 00-1.414-.112zm6.635-3.36h.98c.812 0 1.507-.005 2.086-.014a37.038 37.038 0 001.61-.084c.485-.047.966-.117 1.442-.21l.196 1.47c-.383.075-.761.135-1.134.182-.364.037-.756.07-1.176.098-.411.019-.863.033-1.358.042h-2.646v-1.484zm-.028-5.32h5.698v4.032h-3.822v2.38h-1.848v-3.752h3.822v-1.19h-3.85v-1.47zm8.512-.672h1.876v7.882h-1.876v-7.882zm-2.058 1.722h2.408v1.484h-2.408v-1.484zm0 2.674h2.408v1.498h-2.408v-1.498zm-.448 3.696c1.381 0 2.464.215 3.248.644.793.429 1.19 1.031 1.19 1.806 0 .784-.397 1.391-1.19 1.82-.784.429-1.867.644-3.248.644-1.381 0-2.469-.215-3.262-.644-.793-.429-1.19-1.036-1.19-1.82 0-.775.397-1.377 1.19-1.806.793-.429 1.881-.644 3.262-.644zm0 1.4c-.569 0-1.045.042-1.428.126-.383.075-.672.191-.868.35a.691.691 0 00-.294.574c0 .243.098.443.294.602.196.159.485.275.868.35.383.075.859.112 1.428.112s1.045-.037 1.428-.112c.383-.075.667-.191.854-.35a.742.742 0 00.294-.602.691.691 0 00-.294-.574c-.187-.159-.471-.275-.854-.35-.383-.084-.859-.126-1.428-.126zm9.673-8.61a2.77 2.77 0 011.722.574c.513.373.91.91 1.19 1.61.289.691.434 1.507.434 2.45 0 .952-.145 1.778-.434 2.478-.28.691-.677 1.227-1.19 1.61a2.82 2.82 0 01-1.722.56 2.82 2.82 0 01-1.722-.56c-.504-.383-.901-.919-1.19-1.61-.29-.7-.434-1.526-.434-2.478 0-.943.144-1.759.434-2.45.289-.7.686-1.237 1.19-1.61a2.77 2.77 0 011.722-.574zm0 1.694c-.308 0-.584.112-.826.336-.234.224-.416.555-.546.994-.131.429-.196.966-.196 1.61 0 .635.065 1.176.196 1.624.13.439.312.77.546.994.242.224.518.336.826.336.326 0 .606-.112.84-.336.233-.224.415-.555.546-.994.13-.448.196-.989.196-1.624 0-.644-.066-1.181-.196-1.61-.131-.439-.313-.77-.546-.994a1.172 1.172 0 00-.84-.336zm5.474-2.604h1.862v13.006h-1.862v-13.006zm-2.674 4.69h3.458v1.484h-3.458v-1.484zm10.421-3.486h8.204v1.484h-8.204v-1.484zm-1.204 8.582h11.732v1.512h-11.732v-1.512zm8.428-8.582h1.862v1.54c0 .607-.009 1.223-.028 1.848a26.147 26.147 0 01-.112 2.002 23.087 23.087 0 01-.336 2.408l-1.862-.168c.168-.831.28-1.596.336-2.296.065-.7.103-1.358.112-1.974.019-.625.028-1.232.028-1.82v-1.54zm4.171 5.096h11.732v1.442H212.93v-1.442zm4.914.49h1.862v2.058h-1.862v-2.058zm-3.458 1.512h1.834v1.036h5.222v-1.036h1.834v4.55h-8.89v-4.55zm1.834 2.38v.77h5.222v-.77h-5.222zm-1.862-10.472h8.876v3.36h-7.014v1.484h-1.834v-2.786h7.014v-.672h-7.042v-1.386zm.028 4.06h9.1v1.386h-9.1v-1.386zm20.711-1.498h3.01v1.512h-3.01v-1.512zm-3.64-1.96h1.498v1.4c0 .877-.126 1.703-.378 2.478a5.45 5.45 0 01-1.176 2.03c-.523.569-1.195 1.003-2.016 1.302l-.98-1.456a4.757 4.757 0 001.386-.728 4.04 4.04 0 00.938-1.022c.243-.392.425-.807.546-1.246.121-.439.182-.891.182-1.358v-1.4zm.392 0h1.484v1.414c0 .42.056.831.168 1.232.112.401.285.784.518 1.148.233.364.532.691.896.98.373.28.812.509 1.316.686l-.98 1.428c-.775-.289-1.414-.705-1.918-1.246a5.146 5.146 0 01-1.12-1.904 7.294 7.294 0 01-.364-2.324v-1.414zm5.614-.784h1.876v9.562h-1.876v-9.562zm-6.706 11.242h8.862v1.498h-8.862v-1.498zm0-2.632h1.862v3.472h-1.862v-3.472zm10.765-2.702h.896a93 93 0 001.68-.014c.504-.019.98-.047 1.428-.084.448-.047.91-.107 1.386-.182l.168 1.484c-.495.084-.975.149-1.442.196-.467.047-.961.075-1.484.084-.513.009-1.092.014-1.736.014h-.896v-1.498zm0-5.054h5.096v1.484h-3.304v4.396h-1.792v-5.88zm1.26 2.548h3.71v1.4h-3.71v-1.4zm7.574-3.416h1.778v7.924h-1.778v-7.924zm-1.54 3.178h2.058v1.498h-2.058v-1.498zm-1.218-2.94h1.736v7.602h-1.736v-7.602zm-4.382 8.232h8.918v4.508h-1.862v-3.01h-7.056v-1.498z" fill="#EB5F00"/><path d="M1279 348.5h51c.83 0 1.5.672 1.5 1.5v20a1.5 1.5 0 01-1.5 1.5h-51a1.5 1.5 0 01-1.5-1.5v-20c0-.828.67-1.5 1.5-1.5z" fill="#fff"/><path d="M1279 348.5h51c.83 0 1.5.672 1.5 1.5v20a1.5 1.5 0 01-1.5 1.5h-51a1.5 1.5 0 01-1.5-1.5v-20c0-.828.67-1.5 1.5-1.5z" stroke="#EB5F00"/><path d="M1293.9 353.282h1.87v9.366h-1.87v-9.366zm1.35 3.528h2.24v1.526h-2.24v-1.526zm-9.2 2.226h1.08c.94 0 1.74-.009 2.41-.028.67-.028 1.27-.07 1.79-.126.53-.056 1.05-.14 1.57-.252l.18 1.47c-.52.121-1.06.215-1.61.28-.54.056-1.16.098-1.85.126-.69.019-1.52.028-2.49.028h-1.08v-1.498zm0-4.732h5.81v1.484h-3.95v4.032h-1.86v-5.516zm1.36 10.22h8.82v1.498h-8.82v-1.498zm0-2.87h1.87v3.626h-1.87v-3.626zm15.68-.952h1.86v1.918h-1.86v-1.918zm-4.93-1.05h11.73v1.484h-11.73v-1.484zm1.3 2.576h9.02v4.004h-1.87v-2.534h-7.15v-1.47zm3.63-8.946h1.86v1.904h-1.86v-1.904zm-.12 2.058h1.64v.252c0 .495-.11.947-.35 1.358-.22.411-.56.775-1.02 1.092-.46.317-1.02.574-1.69.77-.68.196-1.45.327-2.34.392l-.55-1.4c.79-.047 1.45-.14 1.99-.28.55-.14.99-.313 1.33-.518.35-.205.6-.429.76-.672.16-.243.23-.49.23-.742v-.252zm.45 0h1.64v.252c0 .252.08.499.24.742.16.243.4.467.74.672.35.205.79.378 1.33.518.55.14 1.22.233 2 .28l-.54 1.4c-.89-.065-1.67-.196-2.34-.392-.67-.196-1.24-.453-1.7-.77-.45-.317-.8-.681-1.03-1.092a2.728 2.728 0 01-.34-1.358v-.252zm-4.14-.882h9.48v1.428h-9.48v-1.428zm16.7.056h1.81c0 .999-.09 1.96-.26 2.884a9.07 9.07 0 01-.89 2.618c-.43.831-1.03 1.605-1.81 2.324-.77.719-1.77 1.381-2.99 1.988l-.98-1.442c.99-.495 1.83-1.027 2.49-1.596a7.394 7.394 0 001.57-1.848c.38-.663.65-1.381.81-2.156.17-.775.25-1.619.25-2.534v-.238zm-4.34 0h5.26v1.484h-5.26v-1.484zm4.33 3.178v1.428l-4.76.434-.24-1.568 5-.294zm3.73-4.424h1.87v12.964h-1.87v-12.964z" fill="#EB5F00"/><path d="M1291.5 389.131c-.4 0-.77-.098-1.1-.294-.33-.199-.6-.464-.79-.795-.2-.332-.3-.698-.3-1.099 0-.404.1-.77.3-1.099.19-.331.46-.594.79-.79.33-.199.7-.298 1.1-.298.4 0 .77.099 1.1.298.33.196.59.459.79.79.2.329.3.695.3 1.099 0 .401-.1.767-.3 1.099-.2.331-.46.596-.79.795-.33.196-.7.294-1.1.294zm11.2.371h11.48v.966h-11.48v-.966zm5.15-3.066h1.16v3.388h-1.16v-3.388zm-.03-5.404h1v.77c0 .523-.1 1.017-.3 1.484-.18.457-.44.887-.78 1.288a5.96 5.96 0 01-1.15 1.05c-.43.299-.89.56-1.38.784-.49.215-.98.373-1.47.476l-.48-.924c.43-.075.86-.201 1.3-.378.44-.187.85-.411 1.23-.672.4-.261.74-.555 1.04-.882.31-.327.55-.677.73-1.05.18-.373.26-.765.26-1.176v-.77zm.23 0h.98v.77c0 .411.09.803.26 1.176.18.364.42.709.73 1.036.31.327.66.621 1.05.882.39.252.81.467 1.25.644.45.177.89.299 1.33.364l-.48.924c-.5-.103-1-.257-1.5-.462a8.728 8.728 0 01-1.4-.77 6.465 6.465 0 01-1.14-1.036 4.698 4.698 0 01-.8-1.274 3.894 3.894 0 01-.28-1.484v-.77zm-4.4-.462h9.55v.966h-9.55v-.966zm20.59-1.148h1.17v7.364h-1.17v-7.364zm.66 3.234h2.37v.98h-2.37v-.98zm-7.46 4.69h1.15v1.33h5.65v-1.33h1.17v4.578h-7.97v-4.578zm1.15 2.24v1.4h5.65v-1.4h-5.65zm-2.98-8.862h7.47v.938h-7.47v-.938zm3.73 1.526c.61 0 1.14.093 1.59.28.45.177.81.434 1.06.77.25.327.38.714.38 1.162 0 .448-.13.84-.38 1.176-.25.336-.61.597-1.06.784-.45.177-.98.266-1.59.266-.6 0-1.13-.089-1.59-.266-.45-.187-.8-.448-1.07-.784a1.912 1.912 0 01-.37-1.176c0-.448.12-.835.37-1.162.27-.336.62-.593 1.07-.77.46-.187.99-.28 1.59-.28zm0 .882c-.57 0-1.04.121-1.4.364-.34.243-.51.565-.51.966 0 .411.17.737.51.98.36.243.83.364 1.4.364s1.04-.121 1.39-.364c.36-.243.53-.569.53-.98 0-.401-.17-.723-.53-.966-.34-.243-.81-.364-1.39-.364zm-.57-3.822h1.16v1.918h-1.16v-1.918zm15.3 1.428h1.12c0 .915-.09 1.811-.28 2.688-.18.868-.5 1.699-.94 2.492-.43.793-1.03 1.535-1.79 2.226-.75.691-1.7 1.316-2.84 1.876l-.63-.91c1-.485 1.84-1.027 2.52-1.624.69-.597 1.24-1.241 1.65-1.932.42-.691.73-1.428.91-2.212.19-.784.28-1.61.28-2.478v-.126zm-4.67 0h5.26v.952h-5.26v-.952zm4.49 3.136v.91l-4.94.462-.2-1.022 5.14-.35zm3.79-4.452h1.17v12.67h-1.17v-12.67zm4.45 6.487c0-1.253.16-2.405.49-3.455.32-1.054.79-2.024 1.4-2.909h1.03a6.42 6.42 0 00-.67 1.214c-.21.477-.39 1.002-.54 1.576-.16.57-.28 1.16-.37 1.769-.09.61-.13 1.212-.13 1.805 0 .789.08 1.589.23 2.401.15.812.36 1.566.62 2.262.25.696.54 1.263.86 1.701h-1.03a10.456 10.456 0 01-1.4-2.904c-.33-1.054-.49-2.207-.49-3.46zm13.01-1.909h-1.24a2.552 2.552 0 00-1.04-1.611 2.739 2.739 0 00-.85-.417c-.31-.093-.63-.14-.97-.14-.62 0-1.18.156-1.68.468-.49.311-.89.77-1.19 1.377-.29.606-.43 1.35-.43 2.232 0 .882.14 1.626.43 2.232.3.607.7 1.066 1.19 1.377.5.312 1.06.468 1.68.468.34 0 .66-.047.97-.139.31-.093.6-.231.85-.413.26-.186.48-.413.66-.681.18-.272.31-.583.38-.935h1.24c-.1.521-.27.986-.51 1.397a3.82 3.82 0 01-.92 1.049c-.36.285-.77.502-1.22.651-.46.15-.94.224-1.45.224-.87 0-1.64-.212-2.32-.636-.67-.424-1.21-1.028-1.59-1.81-.39-.782-.59-1.71-.59-2.784 0-1.074.2-2.002.59-2.784a4.35 4.35 0 011.59-1.81c.68-.424 1.45-.636 2.32-.636.51 0 .99.075 1.45.224.45.149.86.368 1.22.656.37.285.67.633.92 1.044.24.408.41.873.51 1.397zm1.43-2.088v-1.094h7.64v1.094h-3.2V391h-1.24v-9.088h-3.2zm9.54 9.088v-10.182h3.44c.8 0 1.45.136 1.96.408.51.268.89.638 1.13 1.109.25.47.37 1.005.37 1.605 0 .6-.12 1.132-.37 1.596-.24.464-.62.829-1.13 1.094-.5.262-1.15.393-1.94.393h-2.78v-1.114h2.74c.54 0 .98-.079 1.31-.239.34-.159.58-.384.73-.676.15-.295.23-.646.23-1.054 0-.407-.08-.764-.23-1.069-.15-.304-.4-.54-.73-.706-.34-.169-.78-.253-1.33-.253h-2.17V391h-1.23zm4.79-4.574l2.51 4.574h-1.43l-2.47-4.574h1.39zm4.16 4.574v-10.182h1.24v9.088h4.73V391h-5.97zm9.47-1.392l-.08.537c-.05.378-.14.782-.26 1.213a28.581 28.581 0 01-.65 2.128h-.9c.04-.212.1-.492.17-.84s.14-.738.21-1.169c.07-.427.13-.865.18-1.312l.06-.557h1.27zm6.69 1.392h-1.29l3.73-10.182h1.28l3.74 10.182h-1.3l-3.04-8.571h-.08l-3.04 8.571zm.48-3.977h5.21v1.093h-5.21v-1.093zm8.56 3.977v-10.182h1.24v9.088h4.73V391h-5.97zm5.97-9.088v-1.094h7.63v1.094h-3.2V391h-1.23v-9.088h-3.2zm10.65 7.696l-.08.537c-.06.378-.14.782-.26 1.213-.11.431-.23.837-.35 1.218-.13.381-.23.684-.31.91h-.89c.04-.212.1-.492.17-.84s.14-.738.21-1.169c.07-.427.13-.865.18-1.312l.06-.557h1.27zm11.84-6.244c-.06-.504-.3-.895-.73-1.174-.42-.278-.94-.417-1.56-.417-.45 0-.84.073-1.18.218-.34.146-.6.347-.79.602a1.48 1.48 0 00-.28.87c0 .272.07.506.2.701.13.192.3.353.5.482.21.126.42.231.65.314.23.079.43.144.62.193l1.04.279c.26.069.56.166.88.288.33.123.64.29.94.502.3.209.55.478.75.806.19.328.29.731.29 1.208 0 .55-.14 1.047-.43 1.491-.29.444-.71.797-1.26 1.059-.54.262-1.21.393-1.99.393-.73 0-1.36-.118-1.89-.353-.53-.235-.95-.563-1.26-.984-.3-.421-.47-.91-.51-1.467h1.27c.04.384.17.703.39.955.23.248.52.434.87.556.35.12.73.179 1.13.179.47 0 .89-.076 1.27-.228.37-.156.67-.372.89-.647.22-.278.33-.603.33-.974 0-.338-.1-.613-.29-.825a2.044 2.044 0 00-.74-.517 7.702 7.702 0 00-1-.348l-1.25-.358c-.8-.229-1.43-.556-1.89-.98-.47-.424-.7-.979-.7-1.665 0-.57.15-1.068.46-1.492.31-.427.73-.759 1.26-.994.52-.239 1.11-.358 1.76-.358.66 0 1.24.118 1.75.353.51.232.91.55 1.21.955.3.404.46.863.48 1.377h-1.19zm3.36 7.636v-10.182h1.23v4.534h5.43v-4.534h1.23V391h-1.23v-4.554h-5.43V391h-1.23zm11.59-10.182V391h-1.23v-10.182h1.23zm2.48 10.182v-10.182h6.1v1.094h-4.87v3.44h4.41v1.094h-4.41V391h-1.23zm7.66-9.088v-1.094h7.63v1.094h-3.2V391h-1.23v-9.088h-3.2zm11.88 3.997c0 1.253-.16 2.406-.49 3.46a10.743 10.743 0 01-1.4 2.904h-1.03c.24-.328.46-.733.66-1.213a12.795 12.795 0 00.91-3.346c.09-.613.14-1.215.14-1.805 0-.789-.08-1.589-.23-2.401-.15-.812-.36-1.566-.62-2.262s-.54-1.263-.86-1.701h1.03a10.73 10.73 0 011.4 2.909c.33 1.05.49 2.202.49 3.455zm9.49 3.301v-6.562h1.11v6.562h-1.11zm-2.73-2.724v-1.114h6.57v1.114h-6.57zm-163.98 14.77h3.85v.938h-3.85v-.938zm0 2.912h3.85v.952h-3.85v-.952zm-2.31-3.99c.61 0 1.16.131 1.65.392.49.252.88.607 1.16 1.064.29.448.44.966.44 1.554 0 .588-.15 1.111-.44 1.568-.28.448-.67.803-1.16 1.064-.49.252-1.04.378-1.65.378-.63 0-1.19-.126-1.68-.378a3.076 3.076 0 01-1.16-1.064c-.28-.457-.42-.98-.42-1.568 0-.588.14-1.106.42-1.554.29-.457.67-.812 1.16-1.064.49-.261 1.05-.392 1.68-.392zm0 .994c-.41 0-.78.084-1.11.252a1.96 1.96 0 00-.77.714c-.18.299-.28.649-.28 1.05 0 .392.1.742.28 1.05.19.299.45.537.77.714.33.168.7.252 1.11.252a2.3 2.3 0 001.09-.252c.33-.177.58-.415.77-.714.19-.308.28-.658.28-1.05 0-.401-.09-.751-.28-1.05a1.895 1.895 0 00-.77-.714 2.3 2.3 0 00-1.09-.252zm5.79-1.75h1.17v7.49h-1.17v-7.49zm-3.01 7.798c.88 0 1.63.098 2.26.294.62.187 1.1.462 1.44.826.35.355.52.789.52 1.302 0 .504-.17.938-.52 1.302-.34.364-.82.639-1.44.826-.63.196-1.38.294-2.26.294-.86 0-1.62-.098-2.25-.294-.63-.187-1.11-.462-1.46-.826-.33-.364-.5-.798-.5-1.302 0-.513.17-.947.5-1.302.35-.364.83-.639 1.46-.826.63-.196 1.39-.294 2.25-.294zm0 .91c-.63 0-1.18.061-1.65.182-.46.121-.81.294-1.06.518a1.08 1.08 0 00-.37.812c0 .308.13.574.37.798.25.224.6.397 1.06.518.47.121 1.02.182 1.65.182.65 0 1.2-.061 1.66-.182.45-.121.8-.294 1.05-.518.25-.224.37-.49.37-.798 0-.317-.12-.588-.37-.812-.25-.224-.6-.397-1.05-.518-.46-.121-1.01-.182-1.66-.182zm6.62-2.24h11.48v.952h-11.48v-.952zm5.24.602h1.16v2.912h-1.16v-2.912zm-3.75-6.468h8.5v4.438h-8.5v-4.438zm7.36.924h-6.23v2.59h6.23v-2.59zm-7.39 9.912h8.75v.952h-8.75v-.952zm0-2.674h1.16v2.996h-1.16v-2.996zm21.41-2.912h4.55v.952h-4.55v-.952zm-6.03 4.228h11.48v.98h-11.48v-.98zm5.12-2.646h1.15v3.108h-1.15v-3.108zm.91-6.258h4.42v.966h-3.26v4.214h-1.16v-5.18zm-5.05.028h4.28v.952h-3.12v4.158h-1.16v-5.11zm0 4.634h.71c.41 0 .81-.009 1.2-.028.4-.019.81-.051 1.22-.098.41-.056.83-.131 1.26-.224l.11.966c-.45.103-.89.182-1.31.238-.42.047-.83.079-1.23.098-.41.009-.82.014-1.25.014h-.71v-.966zm13.43-2.03h8.61v.938h-8.61v-.938zm-1.55 2.632h11.48v.952h-11.48v-.952zm1.55-5.978h1.15v3.822h-1.15v-3.822zm-.08 10.948h8.76v.952h-8.76v-.952zm0-2.744h1.16v2.996h-1.16v-2.996zm15.36-2.898h11.47v.952h-11.47v-.952zm5.12.434h1.15v1.932h-1.15v-1.932zm-.02 2.52h.99v.392c0 .476-.13.915-.38 1.316-.25.392-.6.742-1.06 1.05a6.41 6.41 0 01-1.57.728c-.59.196-1.21.331-1.88.406l-.37-.896a8.802 8.802 0 001.63-.308 5.69 5.69 0 001.36-.574c.39-.233.7-.495.93-.784.23-.299.35-.611.35-.938v-.392zm.21 0h.98v.392c0 .345.11.663.33.952.24.289.55.551.94.784.4.224.86.411 1.37.56.52.149 1.06.252 1.63.308l-.37.896a9.048 9.048 0 01-1.87-.406 6.78 6.78 0 01-1.57-.714c-.45-.299-.8-.649-1.07-1.05a2.461 2.461 0 01-.37-1.33v-.392zm-.19-8.568h1.01v.574c0 .439-.09.849-.28 1.232a3.56 3.56 0 01-.77 1.05c-.31.317-.69.602-1.12.854-.42.243-.87.448-1.37.616-.49.168-1 .289-1.53.364l-.42-.91c.45-.056.9-.149 1.33-.28.44-.14.85-.308 1.22-.504.39-.205.72-.434 1.01-.686.3-.252.53-.523.69-.812.16-.299.23-.607.23-.924v-.574zm.2 0h.99v.574c0 .317.08.621.24.91.17.28.4.551.69.812.29.252.62.481.99.686.39.205.8.378 1.23.518.44.131.89.224 1.33.28l-.42.91a8.376 8.376 0 01-1.52-.364c-.5-.168-.96-.378-1.39-.63a6.241 6.241 0 01-1.12-.854 3.877 3.877 0 01-.75-1.05 2.829 2.829 0 01-.27-1.218v-.574zm10.68 1.666h.94v2.044c0 .663-.09 1.321-.28 1.974a8.611 8.611 0 01-.78 1.834 7.956 7.956 0 01-1.14 1.526 5.38 5.38 0 01-1.38 1.036l-.69-.924c.46-.224.88-.527 1.27-.91.4-.392.76-.835 1.07-1.33.31-.504.55-1.027.73-1.568.17-.551.26-1.097.26-1.638v-2.044zm.23 0h.92v2.044c0 .504.08 1.013.24 1.526.17.513.4 1.003.7 1.47.3.467.64.887 1.03 1.26.4.364.83.658 1.28.882l-.66.924a5.58 5.58 0 01-1.39-1.008c-.43-.429-.8-.915-1.12-1.456a7.995 7.995 0 01-.74-1.736 6.597 6.597 0 01-.26-1.862v-2.044zm-3.11-.518h6.83v.966h-6.83v-.966zm8.33-1.302h1.16v12.67h-1.16v-12.67zm.89 5.11h2.34v.98h-2.34v-.98zm5.54 5.076l-.08.537c-.05.378-.14.782-.26 1.213a28.581 28.581 0 01-.65 2.128h-.9c.05-.212.1-.492.17-.84s.14-.738.21-1.169c.07-.427.13-.865.18-1.312l.06-.557h1.27zm14.97-10.186h1.16v12.67h-1.16v-12.67zm-3.71 1.372h1.14c0 .915-.11 1.797-.33 2.646a9.119 9.119 0 01-1.02 2.422 9.587 9.587 0 01-1.82 2.114c-.75.653-1.66 1.237-2.72 1.75l-.62-.938c1.23-.588 2.23-1.274 3.03-2.058.79-.784 1.38-1.657 1.76-2.618.38-.971.58-2.016.58-3.136v-.182zm-4.78 0h5.27v.938h-5.27v-.938zm13.69 2.142h8.58v.952h-8.58v-.952zm0-3.262h1.15v3.682h-1.15v-3.682zm-1.55 5.684h11.45v.952h-11.45v-.952zm5.71 2.072c1.35 0 2.41.201 3.18.602.76.401 1.15.971 1.15 1.708 0 .728-.39 1.293-1.15 1.694-.77.401-1.83.602-3.18.602s-2.42-.201-3.19-.602c-.77-.401-1.15-.966-1.15-1.694 0-.737.38-1.307 1.15-1.708.77-.401 1.84-.602 3.19-.602zm-.01.924c-.66 0-1.22.056-1.7.168-.46.103-.82.257-1.08.462a.938.938 0 00-.37.756c0 .289.12.541.37.756.26.205.62.364 1.08.476.48.103 1.04.154 1.7.154.67 0 1.24-.051 1.7-.154.48-.112.84-.271 1.1-.476.25-.215.37-.467.37-.756a.938.938 0 00-.37-.756c-.26-.205-.62-.359-1.1-.462-.46-.112-1.03-.168-1.7-.168zm12.79-7.616h1.12c0 .915-.09 1.811-.28 2.688a9.13 9.13 0 01-.94 2.492 8.731 8.731 0 01-1.79 2.226c-.75.691-1.7 1.316-2.84 1.876l-.63-.91c1-.485 1.84-1.027 2.52-1.624.69-.597 1.24-1.241 1.65-1.932.42-.691.72-1.428.91-2.212.19-.784.28-1.61.28-2.478v-.126zm-4.67 0h5.26v.952h-5.26v-.952zm4.49 3.136v.91l-4.94.462-.2-1.022 5.14-.35zm3.79-4.452h1.17v12.67h-1.17v-12.67zm4.45 6.487c0-1.253.16-2.405.49-3.455.32-1.054.79-2.024 1.4-2.909h1.03a6.42 6.42 0 00-.67 1.214c-.21.477-.39 1.002-.54 1.576-.16.57-.28 1.16-.37 1.769-.09.61-.13 1.212-.13 1.805 0 .789.08 1.589.23 2.401.15.812.36 1.566.62 2.262.25.696.54 1.263.86 1.701h-1.03a10.456 10.456 0 01-1.4-2.904c-.33-1.054-.49-2.207-.49-3.46zm4.81 5.091v-10.182h6.11v1.094h-4.88v3.44h4.42v1.094h-4.42V411h-1.23zm11.62-10.182V411h-1.23v-8.889h-.06l-2.49 1.65v-1.252l2.55-1.691h1.23zm3.03 6.105c-.01-.55.08-.992.27-1.327.18-.335.43-.578.73-.731.31-.152.63-.229.97-.229.33 0 .64.075.92.224.28.146.6.376.96.691.25.212.45.361.59.448a.96.96 0 00.49.129c.28 0 .51-.103.67-.308.17-.209.25-.511.24-.905h1.08c.01.55-.08.992-.27 1.327-.19.335-.43.579-.74.731-.3.152-.62.229-.96.229-.34 0-.65-.073-.93-.219-.27-.149-.6-.381-.96-.696a3.973 3.973 0 00-.59-.448.95.95 0 00-.48-.129c-.27 0-.5.095-.67.284-.17.185-.26.495-.25.929h-1.07zm9.3 4.077v-10.182h6.11v1.094h-4.87v3.44h4.41v1.094h-4.41V411h-1.24zm11.62-10.182V411h-1.23v-8.889h-.06l-2.49 1.65v-1.252l2.55-1.691h1.23zm2.93 10.182v-.895l3.36-3.679c.4-.431.72-.805.98-1.123.25-.322.44-.624.56-.905.13-.285.19-.584.19-.895 0-.358-.08-.668-.26-.93-.17-.262-.4-.464-.69-.606-.3-.143-.63-.214-1-.214-.39 0-.73.081-1.02.243-.29.16-.51.383-.67.672-.16.288-.24.626-.24 1.014h-1.17c0-.597.14-1.12.41-1.571.28-.451.65-.802 1.13-1.054a3.351 3.351 0 011.6-.378c.6 0 1.13.126 1.59.378.46.252.82.591 1.08 1.019.26.428.39.903.39 1.427 0 .374-.06.741-.2 1.099-.13.354-.36.75-.7 1.188-.32.434-.78.964-1.36 1.591l-2.29 2.446v.079h4.73V411h-6.42zm11-5.091c0 1.253-.16 2.406-.49 3.46a10.456 10.456 0 01-1.4 2.904h-1.03c.24-.328.46-.733.67-1.213.2-.478.39-1.001.54-1.571.16-.574.28-1.165.37-1.775.08-.613.13-1.215.13-1.805 0-.789-.08-1.589-.23-2.401-.15-.812-.36-1.566-.62-2.262-.25-.696-.54-1.263-.86-1.701h1.03c.61.885 1.08 1.855 1.4 2.909.33 1.05.49 2.202.49 3.455zm2.2 3.649h11.48v.966h-11.48v-.966zm5.13-2.702h1.15v3.108h-1.15v-3.108zm-3.73-6.496h8.65v3.836h-7.48v2.534h-1.15v-3.458h7.48v-1.96h-7.5v-.952zm.02 5.88h8.92v.952h-8.92v-.952zm21.89-4.522h3.25v.952h-3.25v-.952zm2.76-2.296h1.16v6.538h-1.16v-6.538zm-6.99 7.182h8.15v3.038h-6.99v1.918h-1.13v-2.8h6.97v-1.232h-7v-.924zm.03 4.382h8.58v.938h-8.58v-.938zm.87-11.158h.93v1.176c0 .775-.14 1.498-.43 2.17-.29.663-.7 1.237-1.22 1.722-.52.476-1.14.84-1.85 1.092l-.61-.924a5.05 5.05 0 001.66-.924 4.24 4.24 0 001.11-1.4c.27-.541.41-1.12.41-1.736v-1.176zm.18 0h.95v1.176c0 .411.07.812.22 1.204.15.383.36.742.63 1.078.28.336.62.635 1 .896.38.252.8.453 1.26.602l-.62.91a5.502 5.502 0 01-1.8-1.05 5.05 5.05 0 01-1.21-1.624 4.727 4.727 0 01-.43-2.016v-1.176zm16.29 2.884h2.84v.966h-2.84v-.966zm2.49-3.29h1.17v7.546h-1.17v-7.546zm-3.01 7.938c.88 0 1.63.093 2.26.28.63.187 1.12.457 1.45.812.34.345.51.77.51 1.274 0 .747-.38 1.325-1.14 1.736-.74.411-1.77.616-3.08.616-1.3 0-2.33-.205-3.09-.616-.75-.411-1.12-.989-1.12-1.736 0-.504.17-.929.5-1.274.35-.355.84-.625 1.46-.812.64-.187 1.39-.28 2.25-.28zm0 .91c-.63 0-1.18.056-1.63.168-.46.112-.82.275-1.07.49-.24.215-.36.481-.36.798 0 .299.12.555.36.77.25.215.61.383 1.07.504.45.112 1 .168 1.63.168.65 0 1.19-.056 1.64-.168.46-.121.81-.289 1.05-.504.25-.215.38-.471.38-.77 0-.317-.13-.583-.38-.798-.24-.215-.59-.378-1.05-.49-.45-.112-.99-.168-1.64-.168zm-3.02-7.56h.95v1.022c0 .775-.15 1.503-.45 2.184-.28.672-.7 1.265-1.23 1.778-.53.504-1.15.891-1.85 1.162l-.6-.924c.48-.168.91-.397 1.29-.686a4.91 4.91 0 001.01-.994c.29-.373.51-.775.66-1.204.15-.429.22-.868.22-1.316v-1.022zm.22 0h.96v1.008c0 .541.12 1.069.37 1.582.26.513.62.966 1.08 1.358.47.392 1.01.7 1.61.924l-.59.924a5.239 5.239 0 01-1.8-1.092 5.418 5.418 0 01-1.21-1.68 4.942 4.942 0 01-.42-2.016v-1.008zm-3.03-.364h6.76v.952h-6.76v-.952zm-230.25 32.785c-.4 0-.77-.098-1.1-.294-.33-.199-.6-.464-.79-.795-.2-.332-.3-.698-.3-1.099 0-.404.1-.77.3-1.099.19-.331.46-.594.79-.79.33-.199.7-.298 1.1-.298.4 0 .77.099 1.1.298.33.196.59.459.79.79.2.329.3.695.3 1.099 0 .401-.1.767-.3 1.099-.2.331-.46.596-.79.795-.33.196-.7.294-1.1.294zm20.41-9.709h1.16v6.804h-1.16v-6.804zm-6.98 7.434h1.13v1.526h5.87v-1.526h1.14v5.068h-8.14v-5.068zm1.13 2.45v1.666h5.87v-1.666h-5.87zm.22-9.282c.65 0 1.22.126 1.71.378.5.243.88.583 1.16 1.022.29.439.44.947.44 1.526 0 .569-.15 1.078-.44 1.526-.28.439-.66.779-1.16 1.022-.49.243-1.06.364-1.71.364-.63 0-1.2-.121-1.7-.364s-.89-.583-1.18-1.022a2.82 2.82 0 01-.42-1.526c0-.579.14-1.087.42-1.526.29-.439.68-.779 1.18-1.022.5-.252 1.07-.378 1.7-.378zm0 .98c-.42 0-.79.084-1.12.252-.32.159-.58.387-.77.686-.18.289-.28.625-.28 1.008 0 .373.1.709.28 1.008.19.289.45.518.77.686.33.168.7.252 1.12.252.42 0 .8-.084 1.12-.252a1.9 1.9 0 00.77-.686c.19-.299.28-.635.28-1.008 0-.383-.09-.719-.28-1.008a1.773 1.773 0 00-.77-.686c-.32-.168-.7-.252-1.12-.252zm9.83 4.704h.9c.83 0 1.54-.005 2.12-.014.6-.019 1.14-.051 1.63-.098.49-.047.99-.117 1.5-.21l.11.952c-.38.065-.76.121-1.14.168-.37.037-.76.065-1.17.084-.41.019-.86.033-1.36.042-.49.009-1.06.014-1.69.014h-.9v-.938zm-.03-5.516h5.45v3.584h-4.27v2.492h-1.15v-3.388h4.27v-1.75h-4.3v-.938zm8.75-.756h1.16v7.784h-1.16v-7.784zm-2.46 1.876h2.73v.938h-2.73v-.938zm0 2.618h2.73v.952h-2.73v-.952zm-4.85 3.962h8.47v4.214h-1.16v-3.262h-7.31v-.952zm15.48-7.028h10.18v.952H1333v-.952zm-.6 6.776h11.48v.952h-11.48v-.952zm5.13.77h1.15v3.696h-1.15v-3.696zm.58-5.866c1.29 0 2.29.182 3.02.546.73.364 1.09.887 1.09 1.568 0 .663-.36 1.181-1.09 1.554-.73.364-1.73.546-3.02.546s-2.3-.182-3.03-.546c-.72-.373-1.09-.891-1.09-1.554 0-.681.37-1.204 1.09-1.568.73-.364 1.74-.546 3.03-.546zm0 .882c-.93 0-1.65.107-2.16.322-.5.205-.75.509-.75.91 0 .383.25.681.75.896.51.215 1.23.322 2.16.322.92 0 1.64-.107 2.14-.322.51-.215.77-.513.77-.896 0-.401-.26-.705-.77-.91-.5-.215-1.22-.322-2.14-.322zm-.58-4.074h1.15v2.142h-1.15v-2.142zm17.06 3.682h2.15V428h-2.15v-.966zm-2.38-2.618c.56 0 1.05.131 1.48.392.43.261.77.625 1.02 1.092.26.457.38.989.38 1.596 0 .597-.12 1.129-.38 1.596-.25.457-.59.817-1.02 1.078-.43.261-.92.392-1.48.392-.56 0-1.06-.131-1.49-.392a2.815 2.815 0 01-1.02-1.078c-.24-.467-.36-.999-.36-1.596 0-.607.12-1.139.36-1.596.25-.467.59-.831 1.02-1.092.43-.261.93-.392 1.49-.392zm0 .994c-.35 0-.66.089-.94.266-.27.177-.49.425-.64.742-.16.308-.24.667-.24 1.078 0 .401.08.761.24 1.078.15.308.37.551.64.728.28.177.59.266.94.266.34 0 .66-.089.94-.266.28-.177.5-.42.65-.728.16-.317.24-.677.24-1.078 0-.411-.08-.77-.24-1.078a1.742 1.742 0 00-.65-.742 1.74 1.74 0 00-.94-.266zm6.56-1.988h1.11v9.478h-1.11v-9.478zm-2.39.252h1.09v8.862h-1.09v-8.862zm-4.76 11.186h8.64v.952h-8.64v-.952zm0-3.178h1.16v3.612h-1.16v-3.612zm19.74-8.26h1.15v12.684h-1.15v-12.684zm-2.62 4.774h2.8v.952h-2.8v-.952zm-6.06 3.906h.95c.8 0 1.52-.009 2.14-.028.63-.019 1.22-.056 1.78-.112.57-.056 1.15-.135 1.74-.238l.12.952c-.6.103-1.2.182-1.78.238-.57.056-1.19.098-1.83.126-.63.019-1.36.028-2.17.028h-.95v-.966zm0-7.518h5.85v.952h-4.7v6.888h-1.15v-7.84zm.85 3.556h4.44v.938h-4.44v-.938zm20.99-3.402h1.12c0 .915-.09 1.811-.28 2.688a9.13 9.13 0 01-.94 2.492 8.731 8.731 0 01-1.79 2.226c-.75.691-1.7 1.316-2.84 1.876l-.63-.91c1-.485 1.84-1.027 2.52-1.624.69-.597 1.24-1.241 1.65-1.932.42-.691.72-1.428.91-2.212.19-.784.28-1.61.28-2.478v-.126zm-4.67 0h5.26v.952h-5.26v-.952zm4.49 3.136v.91l-4.94.462-.2-1.022 5.14-.35zm3.79-4.452h1.17v12.67h-1.17v-12.67zm3.66 10.136h11.48v.966h-11.48v-.966zm5.13-2.702h1.15v3.108h-1.15v-3.108zm-3.73-6.496h8.65v3.836h-7.48v2.534h-1.15v-3.458h7.48v-1.96h-7.5v-.952zm.02 5.88h8.92v.952h-8.92v-.952zm24.65-6.818h1.16v12.684h-1.16v-12.684zm-2.72 4.606h3.05v.952h-3.05v-.952zm-3.33-2.8h.94v1.904c0 .681-.1 1.353-.28 2.016a8.007 8.007 0 01-.76 1.848 7.01 7.01 0 01-1.13 1.54 5.38 5.38 0 01-1.39 1.064l-.7-.924c.46-.224.89-.532 1.29-.924s.75-.835 1.05-1.33c.31-.504.54-1.036.71-1.596.18-.569.27-1.134.27-1.694v-1.904zm.25 0h.92v1.904c0 .523.09 1.055.26 1.596.16.532.4 1.036.7 1.512.3.476.66.905 1.06 1.288.4.373.83.667 1.29.882l-.69.924c-.5-.252-.97-.593-1.4-1.022-.43-.429-.8-.919-1.13-1.47a7.522 7.522 0 01-.74-1.792 7 7 0 01-.27-1.918v-1.904zm-3.09-.504h6.87v.952h-6.87v-.952zm15.63.056h.96v1.022a5.2 5.2 0 01-.45 2.17c-.29.663-.7 1.241-1.23 1.736-.53.495-1.15.873-1.87 1.134l-.58-.924a5.092 5.092 0 001.66-.952c.48-.42.85-.901 1.11-1.442a3.8 3.8 0 00.4-1.722v-1.022zm.21 0h.96v1.022c0 .551.12 1.073.37 1.568.26.495.61.929 1.07 1.302.45.373.99.667 1.61.882l-.55.91a5.254 5.254 0 01-1.83-1.05 4.892 4.892 0 01-1.21-1.61 4.843 4.843 0 01-.42-2.002v-1.022zm-3.03-.42h6.77v.952h-6.77v-.952zm8.37-.938h1.16v7.63h-1.16v-7.63zm.84 3.22h2.18v.966h-2.18v-.966zm-3.71 4.76c.86 0 1.59.093 2.21.28.62.177 1.11.439 1.44.784.34.345.51.765.51 1.26s-.17.915-.51 1.26c-.33.345-.82.611-1.44.798-.62.187-1.35.28-2.21.28-.86 0-1.6-.093-2.23-.28-.62-.187-1.1-.453-1.44-.798-.34-.345-.5-.765-.5-1.26s.16-.915.5-1.26c.34-.345.82-.607 1.44-.784.63-.187 1.37-.28 2.23-.28zm0 .924c-.63 0-1.17.056-1.63.168-.44.112-.79.271-1.03.476a.938.938 0 00-.37.756c0 .299.12.555.37.77.24.205.59.364 1.03.476.46.112 1 .168 1.63.168.62 0 1.16-.056 1.61-.168.45-.112.79-.271 1.03-.476.25-.215.37-.471.37-.77a.938.938 0 00-.37-.756c-.24-.205-.58-.364-1.03-.476-.45-.112-.99-.168-1.61-.168zm-135.78 24.805c-.4 0-.77-.098-1.1-.294-.33-.199-.6-.464-.79-.795-.2-.332-.3-.698-.3-1.099 0-.404.1-.77.3-1.099.19-.331.46-.594.79-.79.33-.199.7-.298 1.1-.298.4 0 .77.099 1.1.298.33.196.59.459.79.79.2.329.3.695.3 1.099 0 .401-.1.767-.3 1.099-.2.331-.46.596-.79.795-.33.196-.7.294-1.1.294zm17.23-7.651h3.66v.938h-3.66v-.938zm0 2.506h3.69v.952h-3.69v-.952zm3.22-4.564h1.17v7.49h-1.17v-7.49zm-8.66.966h5.77v5.628h-5.77v-5.628zm4.63.938h-3.5v3.752h3.5v-3.752zm1.02 5.964c1.31 0 2.34.21 3.08.63.76.42 1.14 1.008 1.14 1.764s-.38 1.339-1.14 1.75c-.74.42-1.77.63-3.08.63-1.3 0-2.33-.21-3.09-.63-.75-.411-1.12-.994-1.12-1.75s.37-1.344 1.12-1.764c.76-.42 1.79-.63 3.09-.63zm0 .91c-.63 0-1.18.061-1.63.182-.46.112-.82.28-1.07.504-.24.215-.36.481-.36.798 0 .299.12.56.36.784.25.215.61.383 1.07.504.45.121 1 .182 1.63.182.65 0 1.19-.061 1.64-.182.46-.121.81-.289 1.05-.504.25-.224.38-.485.38-.784 0-.317-.13-.583-.38-.798-.24-.224-.59-.392-1.05-.504-.45-.121-.99-.182-1.64-.182zm7.17-2.59h.9c.83 0 1.54-.005 2.12-.014.6-.019 1.14-.047 1.63-.084.49-.047.99-.117 1.5-.21l.11.952c-.38.065-.76.121-1.14.168-.37.037-.76.065-1.17.084-.41.019-.86.033-1.36.042-.49.009-1.06.014-1.69.014h-.9v-.952zm-.03-5.474h5.45v3.57h-4.27v2.52h-1.15v-3.43h4.27v-1.708h-4.3v-.952zm8.75-.7h1.16v7.812h-1.16v-7.812zm-2.45 1.974h2.73v.952h-2.73v-.952zm0 2.576h2.73v.952h-2.73v-.952zm-.54 3.5c1.3 0 2.33.205 3.08.616.75.401 1.13.975 1.13 1.722 0 .737-.38 1.311-1.13 1.722-.75.411-1.78.616-3.08.616-1.31 0-2.34-.205-3.1-.616-.75-.411-1.13-.985-1.13-1.722 0-.747.38-1.321 1.13-1.722.76-.411 1.79-.616 3.1-.616zm0 .91c-.64 0-1.19.056-1.66.168-.45.112-.8.275-1.05.49a.972.972 0 00-.36.77c0 .299.12.555.36.77.25.215.6.378 1.05.49.47.112 1.02.168 1.66.168.63 0 1.18-.056 1.63-.168.46-.112.81-.275 1.05-.49.26-.215.38-.471.38-.77a.934.934 0 00-.38-.77c-.24-.215-.59-.378-1.05-.49-.45-.112-1-.168-1.63-.168zm9.99-7.994c.62 0 1.16.182 1.64.546.48.355.84.863 1.11 1.526.27.663.4 1.442.4 2.338 0 .896-.13 1.675-.4 2.338s-.63 1.176-1.11 1.54a2.63 2.63 0 01-1.64.546c-.6 0-1.15-.182-1.64-.546-.47-.364-.85-.877-1.12-1.54-.26-.663-.39-1.442-.39-2.338 0-.896.13-1.675.39-2.338.27-.663.65-1.171 1.12-1.526a2.691 2.691 0 011.64-.546zm0 1.036c-.4 0-.75.14-1.06.42-.31.271-.55.663-.73 1.176-.17.504-.25 1.097-.25 1.778s.08 1.279.25 1.792c.18.504.42.896.73 1.176.31.28.66.42 1.06.42.41 0 .77-.14 1.08-.42.31-.28.55-.672.71-1.176.18-.513.27-1.111.27-1.792s-.09-1.274-.27-1.778c-.16-.513-.4-.905-.71-1.176-.31-.28-.67-.42-1.08-.42zm5.9-2.016h1.14v12.684h-1.14v-12.684zm-3.13 4.83h3.64v.938h-3.64v-.938zm15.4-4.83h1.18v7.532H1350v-7.532zm.84 3.29h2.19v.966h-2.19v-.966zm-3.71 4.508c.85 0 1.58.098 2.2.294.63.187 1.11.462 1.44.826.35.355.52.789.52 1.302 0 .504-.17.938-.52 1.302-.33.364-.81.639-1.44.826-.62.196-1.35.294-2.2.294-.86 0-1.6-.098-2.22-.294-.63-.187-1.11-.462-1.45-.826-.33-.364-.5-.798-.5-1.302 0-.513.17-.947.5-1.302.34-.364.82-.639 1.45-.826.62-.196 1.36-.294 2.22-.294zm0 .938c-.62 0-1.16.061-1.62.182-.45.112-.8.28-1.05.504-.24.215-.37.481-.37.798 0 .308.13.574.37.798.25.224.6.397 1.05.518.46.112 1 .168 1.62.168.62 0 1.16-.056 1.61-.168.46-.121.81-.294 1.05-.518.25-.224.37-.49.37-.798 0-.317-.12-.583-.37-.798-.24-.224-.59-.392-1.05-.504-.45-.121-.99-.182-1.61-.182zm-5.23-3.164h.98c.88 0 1.65-.009 2.31-.028.65-.019 1.25-.061 1.8-.126a22.28 22.28 0 001.68-.266l.13.952c-.58.112-1.15.201-1.72.266-.56.056-1.18.098-1.85.126-.67.019-1.46.028-2.35.028h-.98v-.952zm0-4.606h5.58v.952h-4.44v4.284h-1.14v-5.236zm24.92-.966h1.16v9.17h-1.16v-9.17zm.8 3.752h2.24v.966h-2.24v-.966zm-8.88 2.212h.98c.87 0 1.63-.009 2.28-.028a20.47 20.47 0 001.81-.126c.55-.065 1.11-.154 1.67-.266l.14.952a23.781 23.781 0 01-3.57.406c-.67.019-1.44.028-2.33.028h-.98v-.966zm0-4.872h5.59v.952h-4.44v4.438h-1.15v-5.39zm1.36 10.346h8.44v.952h-8.44v-.952zm0-3.192h1.15v3.626h-1.15v-3.626zm16.07-1.204h1.15v1.988h-1.15v-1.988zm-5.14-.672h11.44v.938h-11.44v-.938zm1.28 2.38h8.75v3.878h-1.17v-2.94h-7.58v-.938zm3.86-8.806h1.15v1.764h-1.15v-1.764zm-.06 1.904h1.03v.21c0 .523-.13.994-.4 1.414-.26.411-.63.765-1.1 1.064-.47.299-1.01.546-1.63.742-.6.187-1.25.317-1.94.392l-.37-.882c.62-.065 1.19-.173 1.73-.322.53-.149.99-.341 1.4-.574.41-.243.72-.518.95-.826.22-.308.33-.644.33-1.008v-.21zm.26 0h1v.21c0 .364.12.7.34 1.008.23.308.55.583.95.826.41.233.88.425 1.4.574.53.149 1.11.257 1.72.322l-.36.882c-.68-.075-1.33-.205-1.95-.392a6.985 6.985 0 01-1.62-.742 3.448 3.448 0 01-1.09-1.064c-.26-.42-.39-.891-.39-1.414v-.21zm-4.16-.602h9.1v.924h-9.1v-.924zm17.31.07h1.12c0 .915-.09 1.811-.28 2.688a8.79 8.79 0 01-.93 2.492c-.44.793-1.04 1.535-1.8 2.226-.75.691-1.7 1.316-2.84 1.876l-.63-.91c1-.485 1.84-1.027 2.52-1.624.69-.597 1.24-1.241 1.65-1.932.42-.691.73-1.428.91-2.212.19-.784.28-1.61.28-2.478v-.126zm-4.67 0h5.26v.952h-5.26v-.952zm4.49 3.136v.91l-4.94.462-.2-1.022 5.14-.35zm3.8-4.452h1.16v12.67h-1.16v-12.67zm11.21 6.692h1.17v2.758h-1.17v-2.758zm-.01-4.452h.94v.294c0 .737-.15 1.414-.45 2.03-.3.607-.71 1.129-1.25 1.568-.53.429-1.15.756-1.86.98l-.54-.896a5.576 5.576 0 001.65-.826 4.01 4.01 0 001.1-1.274c.27-.495.41-1.022.41-1.582v-.294zm.22 0h.96v.294c0 .541.13 1.05.4 1.526.27.467.65.877 1.12 1.232a5.4 5.4 0 001.67.784l-.53.91a5.604 5.604 0 01-1.88-.966 4.644 4.644 0 01-1.27-1.526 4.195 4.195 0 01-.47-1.96v-.294zm-3.08-.588h6.95v.952h-6.95v-.952zm2.87-1.554h1.17v1.974h-1.17v-1.974zm5.53-.098h1.17v12.684h-1.17v-12.684zm-8.93 10.066l-.15-.966c.76 0 1.61-.005 2.53-.014.93-.019 1.89-.056 2.87-.112a30.25 30.25 0 002.86-.322l.1.868c-.96.177-1.92.303-2.9.378-.97.075-1.91.121-2.82.14-.9.019-1.73.028-2.49.028zm22.29-10.066h1.1v12.67h-1.1v-12.67zm-2.14 5.082h2.43v.952h-2.43v-.952zm-.73-4.802h1.08v11.732h-1.08v-11.732zm-6.32 8.288h.83c.63 0 1.19-.005 1.69-.014a16.266 16.266 0 002.89-.35l.11.966c-.5.103-.99.182-1.47.238-.47.056-.96.093-1.48.112-.52.019-1.1.028-1.74.028h-.83v-.98zm0-7.028h4.71v.952h-3.54v6.524h-1.17v-7.476zm20.31-.144V459h-1.24v-8.889h-.06l-2.48 1.65v-1.252l2.54-1.691h1.24zm12.17-1.396h1.12v12.67h-1.12v-12.67zm-2.04 5.096h2.44v.952h-2.44v-.952zm-3.26-3.458h1.1c0 .812-.07 1.605-.23 2.38a8.72 8.72 0 01-.79 2.24 7.837 7.837 0 01-1.44 2.002c-.61.616-1.36 1.181-2.27 1.694l-.67-.826c1.06-.597 1.91-1.274 2.53-2.03a7.048 7.048 0 001.35-2.45c.28-.887.42-1.82.42-2.8v-.21zm-3.81 0h4.19v.952h-4.19v-.952zm6.31-1.302h1.1v11.704h-1.1v-11.704zm16.51 1.96h3.25v.952h-3.25v-.952zm2.76-2.296h1.16v6.538H1463v-6.538zm-6.99 7.182h8.15v3.038h-6.98v1.918h-1.14v-2.8h6.97v-1.232h-7v-.924zm.03 4.382h8.58v.938h-8.58v-.938zm.87-11.158h.94v1.176a5.42 5.42 0 01-.44 2.17 4.999 4.999 0 01-1.21 1.722c-.53.476-1.14.84-1.85 1.092l-.62-.924a5.098 5.098 0 001.67-.924 4.34 4.34 0 001.1-1.4c.28-.541.41-1.12.41-1.736v-1.176zm.18 0h.95v1.176c0 .411.08.812.23 1.204.15.383.36.742.63 1.078.28.336.61.635.99.896.39.252.81.453 1.26.602l-.61.91a5.549 5.549 0 01-1.81-1.05 5.17 5.17 0 01-1.2-1.624 4.735 4.735 0 01-.44-2.016v-1.176zm16.3 2.884h2.84v.966h-2.84v-.966zm2.49-3.29h1.16v7.546h-1.16v-7.546zm-3.01 7.938c.88 0 1.63.093 2.25.28.64.187 1.12.457 1.46.812.34.345.5.77.5 1.274 0 .747-.37 1.325-1.13 1.736-.75.411-1.77.616-3.08.616s-2.34-.205-3.09-.616c-.75-.411-1.12-.989-1.12-1.736 0-.504.16-.929.5-1.274.35-.355.83-.625 1.46-.812.63-.187 1.38-.28 2.25-.28zm0 .91c-.63 0-1.18.056-1.64.168-.46.112-.81.275-1.06.49-.24.215-.37.481-.37.798 0 .299.13.555.37.77.25.215.6.383 1.06.504.46.112 1.01.168 1.64.168.64 0 1.19-.056 1.64-.168.46-.121.81-.289 1.05-.504.25-.215.38-.471.38-.77 0-.317-.13-.583-.38-.798-.24-.215-.59-.378-1.05-.49-.45-.112-1-.168-1.64-.168zm-3.02-7.56h.95v1.022c0 .775-.15 1.503-.45 2.184-.29.672-.7 1.265-1.23 1.778-.53.504-1.15.891-1.85 1.162l-.6-.924c.47-.168.9-.397 1.29-.686.39-.289.72-.621 1-.994.29-.373.51-.775.66-1.204.15-.429.23-.868.23-1.316v-1.022zm.22 0h.95v1.008c0 .541.13 1.069.38 1.582a4.1 4.1 0 001.08 1.358c.46.392 1 .7 1.61.924l-.59.924a5.379 5.379 0 01-1.81-1.092 5.387 5.387 0 01-1.2-1.68 4.942 4.942 0 01-.42-2.016v-1.008zm-3.04-.364h6.76v.952h-6.76v-.952zm24.98-.924h1.16v12.656h-1.16v-12.656zm.85 5.138h2.33v.966h-2.33v-.966zm-4.08-3.78h1.13c0 1.204-.2 2.357-.59 3.458-.39 1.092-1.01 2.105-1.85 3.038-.84.924-1.94 1.727-3.31 2.408l-.65-.896c1.18-.588 2.15-1.274 2.93-2.058.78-.793 1.37-1.671 1.75-2.632.39-.971.59-2.016.59-3.136v-.182zm-4.68 0h5.26v.966h-5.26v-.966zm13.78 2.156h8.58v.952h-8.58v-.952zm0-3.262h1.14v3.682h-1.14v-3.682zm-1.56 5.684h11.45v.952h-11.45v-.952zm5.71 2.072c1.36 0 2.42.201 3.18.602.77.401 1.15.971 1.15 1.708 0 .728-.38 1.293-1.15 1.694-.76.401-1.82.602-3.18.602-1.35 0-2.41-.201-3.19-.602-.76-.401-1.15-.966-1.15-1.694 0-.737.39-1.307 1.15-1.708.78-.401 1.84-.602 3.19-.602zm-.01.924c-.65 0-1.22.056-1.69.168-.47.103-.83.257-1.08.462-.25.205-.38.457-.38.756 0 .289.13.541.38.756.25.205.61.364 1.08.476.47.103 1.04.154 1.69.154.67 0 1.24-.051 1.71-.154.47-.112.84-.271 1.09-.476.25-.215.38-.467.38-.756 0-.299-.13-.551-.38-.756-.25-.205-.62-.359-1.09-.462-.47-.112-1.04-.168-1.71-.168z" fill="#000"/><g filter="url(#filter0_i_1102_15322)"><circle cx="1293" cy="480" r="12" fill="#D9D9D9"/><circle cx="1293" cy="480" r="12" fill="#FFC600"/><circle cx="1293" cy="480" r="12" fill="#fff"/></g><circle cx="1293" cy="480" r="11.5" stroke="#000"/><path d="M1293 473.571s5.14-.429 4.15 6.317c-.22 0-4.15.109-4.15.109v-6.426z" fill="#EB5F00"/><path d="M1293.09 473.143a4.38 4.38 0 014.38 4.38v4.953a4.38 4.38 0 11-8.76 0v-4.953a4.38 4.38 0 014.38-4.38zm-3.81 9.333a3.813 3.813 0 003.81 3.809c2.11 0 3.81-1.705 3.81-3.809V480h-7.62v2.476zm4-2.857h3.62v-2.096c0-2.04-1.6-3.706-3.62-3.805v5.901zm-.38-5.901a3.814 3.814 0 00-3.62 3.805v2.096h3.62v-5.901z" fill="#000"/><rect x="1292.43" y="475.333" width="1.334" height="2.858" rx=".667" fill="#FFC600" stroke="#000" stroke-width=".571"/><path d="M1309.41 480.8h8.38v1.07h-8.38v-1.07zm3.49.7h1.33v3.39h-1.33v-3.39zm.68-5.56c.66 0 1.24.087 1.74.26.51.167.9.407 1.18.72.28.313.42.68.42 1.1 0 .427-.14.797-.42 1.11-.28.307-.67.547-1.18.72-.5.167-1.08.25-1.74.25-.66 0-1.24-.083-1.75-.25-.5-.173-.89-.413-1.18-.72a1.61 1.61 0 01-.42-1.11c0-.42.14-.787.42-1.1.29-.313.68-.553 1.18-.72.51-.173 1.09-.26 1.75-.26zm-.01 1.05c-.4 0-.75.04-1.05.12-.29.08-.52.197-.68.35a.726.726 0 00-.24.56c0 .22.08.407.24.56.16.153.39.27.68.35.3.073.65.11 1.05.11.41 0 .77-.037 1.06-.11.29-.08.52-.197.68-.35a.72.72 0 00.25-.56.703.703 0 00-.25-.56c-.16-.153-.39-.27-.68-.35-.29-.08-.65-.12-1.06-.12zm6.07-1.04h5.86v1.03h-5.86v-1.03zm5.06 0h1.31v.81c0 .407-.01.833-.03 1.28-.01.447-.08.947-.2 1.5l-1.32-.13c.13-.533.2-1.007.21-1.42.02-.413.03-.823.03-1.23v-.81zm.41 1.55v.91l-5.58.23-.16-1.02 5.74-.12zm-6.48 1.69h8.33v1.04h-8.33v-1.04zm.89 1.58h6.55v2.46h-5.21v.99h-1.32v-1.94h5.21v-.5h-5.23v-1.01zm.02 3.01h6.84v1.01h-6.84v-1.01zm14.63-8.16h1.33v5.7h-1.33v-5.7zm-4.98 6.1h6.31v3.17h-1.33v-2.11h-4.98v-1.06zm-.9-1.85h.8c.61 0 1.15-.007 1.63-.02.48-.013.94-.037 1.37-.07.43-.04.87-.097 1.31-.17l.15 1.06c-.45.073-.91.13-1.36.17-.45.04-.92.067-1.42.08-.5.007-1.06.01-1.68.01h-.8v-1.06zm-.02-3.74h4.27v2.85h-2.95v1.38h-1.3V478h2.93v-.81h-2.95v-1.06zm13.3.21h1.09v1.34c0 .6-.05 1.177-.16 1.73-.1.547-.27 1.06-.49 1.54-.21.473-.49.893-.83 1.26-.33.36-.73.647-1.19.86l-.79-1.1c.41-.18.76-.417 1.05-.71.3-.3.55-.64.74-1.02.2-.387.34-.797.43-1.23.1-.433.15-.877.15-1.33v-1.34zm.26 0h1.08v1.34c0 .433.05.857.14 1.27.1.413.24.803.42 1.17.2.367.44.693.72.98.3.28.64.503 1.03.67l-.77 1.08a4.02 4.02 0 01-1.17-.83 4.94 4.94 0 01-.81-1.2c-.21-.46-.37-.953-.48-1.48a8.986 8.986 0 01-.16-1.66v-1.34zm3.84-.73h1.33v9.29h-1.33v-9.29zm11.12.02h1.33v6.69h-1.33v-6.69zm.96 2.52h1.6v1.09h-1.6v-1.09zm-6.57 1.59h.77c.67 0 1.24-.007 1.72-.02.48-.02.9-.05 1.28-.09.38-.04.75-.1 1.12-.18l.13 1.05c-.38.087-.76.153-1.15.2-.39.04-.83.07-1.32.09-.5.013-1.09.02-1.78.02h-.77v-1.07zm0-3.38h4.15v1.06h-2.82v2.88h-1.33v-3.94zm.97 7.3h6.3v1.07h-6.3v-1.07zm0-2.05h1.34v2.59h-1.34v-2.59zm11.4-.68h1.33v1.37h-1.33v-1.37zm-3.52-.75h8.38v1.06h-8.38v-1.06zm.93 1.84h6.44v2.86h-1.33v-1.81h-5.11v-1.05zm2.59-6.39h1.33v1.36h-1.33v-1.36zm-.08 1.47h1.17v.18a2 2 0 01-.25.97c-.16.293-.41.553-.73.78-.33.227-.73.41-1.21.55-.48.14-1.04.233-1.67.28l-.39-1c.56-.033 1.03-.1 1.42-.2.39-.1.71-.223.95-.37s.42-.307.54-.48c.11-.173.17-.35.17-.53v-.18zm.32 0h1.17v.18c0 .18.05.357.17.53.11.173.29.333.53.48.24.147.56.27.95.37.39.1.87.167 1.43.2l-.39 1a8.078 8.078 0 01-1.67-.28c-.48-.14-.89-.323-1.22-.55-.32-.227-.57-.487-.73-.78a1.992 1.992 0 01-.24-.97v-.18zm-2.96-.63h6.77v1.02h-6.77v-1.02zm12.12.04h1.29c0 .713-.06 1.4-.18 2.06a6.575 6.575 0 01-.64 1.87c-.3.593-.73 1.147-1.29 1.66-.55.513-1.26.987-2.14 1.42l-.7-1.03c.72-.353 1.31-.733 1.78-1.14a4.956 4.956 0 001.7-2.86c.12-.553.18-1.157.18-1.81v-.17zm-3.1 0h3.76v1.06h-3.76v-1.06zm3.09 2.27v1.02l-3.4.31-.17-1.12 3.57-.21zm2.67-3.16h1.33v9.26h-1.33v-9.26zm11.82 0h1.27v9.26h-1.27v-9.26zm-3.05 3.17h1.54v1.08h-1.54v-1.08zm1.18-3.02h1.24v8.69h-1.24v-8.69zm-3.17 1.36h1v.95c0 .52-.04 1.033-.12 1.54-.08.507-.19.987-.35 1.44-.16.447-.37.85-.63 1.21a3.5 3.5 0 01-.94.89l-.79-.98c.45-.287.81-.647 1.08-1.08.26-.44.45-.92.57-1.44.12-.527.18-1.053.18-1.58v-.95zm.3 0h.99v.95c0 .513.05 1.02.17 1.52.11.5.3.957.56 1.37.26.407.61.74 1.06 1l-.77.96a3.23 3.23 0 01-1.18-1.19c-.3-.5-.51-1.063-.64-1.69a9.774 9.774 0 01-.19-1.97v-.95zm-1.79-.58h4.13v1.07h-4.13v-1.07zm15.46-.92h1.33v9.26h-1.33v-9.26zm-1.78 3.54h2.43v1.08h-2.43v-1.08zm-1.25-2.59h1.31c0 .7-.07 1.37-.2 2.01a6.73 6.73 0 01-.65 1.8 6.172 6.172 0 01-1.26 1.58c-.53.48-1.19.92-1.99 1.32l-.7-1.03c.65-.327 1.2-.68 1.64-1.06.44-.38.8-.79 1.08-1.23.27-.44.47-.92.59-1.44.12-.527.18-1.097.18-1.71v-.24zm-3.05 0h3.75v1.06h-3.75v-1.06z" fill="#333"/><path d="M991 308V182h314" stroke="#EB5F00"/><circle cx="991" cy="312" r="4.5" fill="#fff" stroke="#EB5F00"/><path d="M1279 170.5h38c.83 0 1.5.672 1.5 1.5v20a1.5 1.5 0 01-1.5 1.5h-38a1.5 1.5 0 01-1.5-1.5v-20c0-.828.67-1.5 1.5-1.5z" fill="#fff"/><path d="M1279 170.5h38c.83 0 1.5.672 1.5 1.5v20a1.5 1.5 0 01-1.5 1.5h-38a1.5 1.5 0 01-1.5-1.5v-20c0-.828.67-1.5 1.5-1.5z" stroke="#EB5F00"/><path d="M1291.82 176.892h3.15v1.414h-3.15v-1.414zm0 2.38h3.15v1.4h-3.15v-1.4zm2.73-3.99h1.86v6.65h-1.86v-6.65zm-6.71 7.14h8.57v3.472h-6.71v1.638h-1.83v-2.982h6.71v-.686h-6.74v-1.442zm.03 4.228h8.92v1.456h-8.92v-1.456zm-1.76-10.836h1.84v1.498h2.47v-1.498h1.83v5.754h-6.14v-5.754zm1.84 2.898v1.414h2.47v-1.414h-2.47zm13.37-1.26h1.53v.476a5.84 5.84 0 01-.41 2.17c-.27.672-.67 1.26-1.22 1.764-.54.495-1.23.863-2.08 1.106l-.86-1.442c.53-.159.98-.359 1.36-.602.39-.252.71-.541.95-.868.26-.327.44-.667.55-1.022.12-.364.18-.733.18-1.106v-.476zm.35 0h1.51v.476c0 .345.07.686.19 1.022.13.336.31.653.56.952.25.289.57.551.95.784.39.233.85.415 1.38.546l-.85 1.47c-.83-.224-1.53-.569-2.09-1.036a4.644 4.644 0 01-1.24-1.68 5.272 5.272 0 01-.41-2.058v-.476zm-2.95-.826h7.08v1.456h-7.08v-1.456zm2.6-1.33h1.88v1.988h-1.88v-1.988zm5.76-.014h1.86v7.812h-1.86v-7.812zm-2.52 8.036c.91 0 1.7.098 2.36.294.67.196 1.17.476 1.53.84.36.364.54.807.54 1.33 0 .784-.39 1.391-1.19 1.82-.79.429-1.87.644-3.24.644-1.38 0-2.46-.215-3.25-.644-.79-.429-1.19-1.036-1.19-1.82 0-.775.4-1.377 1.19-1.806.79-.439 1.87-.658 3.25-.658zm0 1.414c-.56 0-1.04.037-1.43.112-.38.075-.67.191-.87.35a.733.733 0 00-.28.588c0 .345.22.607.64.784.44.168 1.09.252 1.94.252.84 0 1.48-.084 1.91-.252.44-.177.66-.439.66-.784 0-.233-.1-.429-.29-.588-.2-.159-.49-.275-.87-.35-.37-.075-.84-.112-1.41-.112z" fill="#EB5F00"/><path d="M1291.5 211.131c-.4 0-.77-.098-1.1-.294-.33-.199-.6-.464-.79-.795-.2-.332-.3-.698-.3-1.099 0-.404.1-.77.3-1.099.19-.331.46-.594.79-.79.33-.199.7-.298 1.1-.298.4 0 .77.099 1.1.298.33.196.59.459.79.79.2.329.3.695.3 1.099 0 .401-.1.767-.3 1.099-.2.331-.46.596-.79.795-.33.196-.7.294-1.1.294zm16.97-7.875h3.85v.938h-3.85v-.938zm0 2.912h3.85v.952h-3.85v-.952zm-2.31-3.99c.61 0 1.16.131 1.65.392.49.252.88.607 1.16 1.064.29.448.44.966.44 1.554 0 .588-.15 1.111-.44 1.568-.28.448-.67.803-1.16 1.064-.49.252-1.04.378-1.65.378-.63 0-1.19-.126-1.68-.378a3.076 3.076 0 01-1.16-1.064c-.28-.457-.42-.98-.42-1.568 0-.588.14-1.106.42-1.554.29-.457.67-.812 1.16-1.064.49-.261 1.05-.392 1.68-.392zm0 .994c-.41 0-.78.084-1.11.252a1.96 1.96 0 00-.77.714c-.18.299-.28.649-.28 1.05 0 .392.1.742.28 1.05.19.299.45.537.77.714.33.168.7.252 1.11.252a2.3 2.3 0 001.09-.252c.33-.177.58-.415.77-.714.19-.308.28-.658.28-1.05 0-.401-.09-.751-.28-1.05a1.895 1.895 0 00-.77-.714 2.3 2.3 0 00-1.09-.252zm5.79-1.75h1.17v7.49h-1.17v-7.49zm-3.01 7.798c.88 0 1.63.098 2.26.294.62.187 1.1.462 1.44.826.35.355.52.789.52 1.302 0 .504-.17.938-.52 1.302-.34.364-.82.639-1.44.826-.63.196-1.38.294-2.26.294-.86 0-1.62-.098-2.25-.294-.63-.187-1.11-.462-1.46-.826-.33-.364-.5-.798-.5-1.302 0-.513.17-.947.5-1.302.35-.364.83-.639 1.46-.826.63-.196 1.39-.294 2.25-.294zm0 .91c-.63 0-1.18.061-1.65.182-.46.121-.81.294-1.06.518a1.08 1.08 0 00-.37.812c0 .308.13.574.37.798.25.224.6.397 1.06.518.47.121 1.02.182 1.65.182.65 0 1.2-.061 1.66-.182.45-.121.8-.294 1.05-.518.25-.224.37-.49.37-.798 0-.317-.12-.588-.37-.812-.25-.224-.6-.397-1.05-.518-.46-.121-1.01-.182-1.66-.182zm6.62-2.24h11.48v.952h-11.48v-.952zm5.24.602h1.16v2.912h-1.16v-2.912zm-3.75-6.468h8.5v4.438h-8.5v-4.438zm7.36.924h-6.23v2.59h6.23v-2.59zm-7.39 9.912h8.75v.952h-8.75v-.952zm0-2.674h1.16v2.996h-1.16v-2.996zm21.41-2.912h4.55v.952h-4.55v-.952zm-6.03 4.228h11.48v.98h-11.48v-.98zm5.12-2.646h1.15v3.108h-1.15v-3.108zm.91-6.258h4.42v.966h-3.26v4.214h-1.16v-5.18zm-5.05.028h4.28v.952h-3.12v4.158h-1.16v-5.11zm0 4.634h.71c.41 0 .81-.009 1.2-.028.4-.019.81-.051 1.22-.098.41-.056.83-.131 1.26-.224l.11.966c-.45.103-.89.182-1.31.238-.42.047-.83.079-1.23.098-.41.009-.82.014-1.25.014h-.71v-.966zm13.43-2.03h8.61v.938h-8.61v-.938zm-1.55 2.632h11.48v.952h-11.48v-.952zm1.55-5.978h1.15v3.822h-1.15v-3.822zm-.08 10.948h8.76v.952h-8.76v-.952zm0-2.744h1.16v2.996h-1.16v-2.996zm15.36-2.898h11.47v.952h-11.47v-.952zm5.12.434h1.15v1.932h-1.15v-1.932zm-.02 2.52h.99v.392c0 .476-.13.915-.38 1.316-.25.392-.6.742-1.06 1.05a6.41 6.41 0 01-1.57.728c-.59.196-1.21.331-1.88.406l-.37-.896a8.802 8.802 0 001.63-.308 5.69 5.69 0 001.36-.574c.39-.233.7-.495.93-.784.23-.299.35-.611.35-.938v-.392zm.21 0h.98v.392c0 .345.11.663.33.952.24.289.55.551.94.784.4.224.86.411 1.37.56.52.149 1.06.252 1.63.308l-.37.896a9.048 9.048 0 01-1.87-.406 6.78 6.78 0 01-1.57-.714c-.45-.299-.8-.649-1.07-1.05a2.461 2.461 0 01-.37-1.33v-.392zm-.19-8.568h1.01v.574c0 .439-.09.849-.28 1.232a3.56 3.56 0 01-.77 1.05c-.31.317-.69.602-1.12.854-.42.243-.87.448-1.37.616-.49.168-1 .289-1.53.364l-.42-.91c.45-.056.9-.149 1.33-.28.44-.14.85-.308 1.22-.504.39-.205.72-.434 1.01-.686.3-.252.53-.523.69-.812.16-.299.23-.607.23-.924v-.574zm.2 0h.99v.574c0 .317.08.621.24.91.17.28.4.551.69.812.29.252.62.481.99.686.39.205.8.378 1.23.518.44.131.89.224 1.33.28l-.42.91a8.376 8.376 0 01-1.52-.364c-.5-.168-.96-.378-1.39-.63a6.241 6.241 0 01-1.12-.854 3.877 3.877 0 01-.75-1.05 2.829 2.829 0 01-.27-1.218v-.574zm10.68 1.666h.94v2.044c0 .663-.09 1.321-.28 1.974a8.611 8.611 0 01-.78 1.834 7.956 7.956 0 01-1.14 1.526 5.38 5.38 0 01-1.38 1.036l-.69-.924c.46-.224.88-.527 1.27-.91.4-.392.76-.835 1.07-1.33.31-.504.55-1.027.73-1.568.17-.551.26-1.097.26-1.638v-2.044zm.23 0h.92v2.044c0 .504.08 1.013.24 1.526.17.513.4 1.003.7 1.47.3.467.64.887 1.03 1.26.4.364.83.658 1.28.882l-.66.924a5.58 5.58 0 01-1.39-1.008c-.43-.429-.8-.915-1.12-1.456a7.995 7.995 0 01-.74-1.736 6.597 6.597 0 01-.26-1.862v-2.044zm-3.11-.518h6.83v.966h-6.83v-.966zm8.33-1.302h1.16v12.67h-1.16v-12.67zm.89 5.11h2.34v.98h-2.34v-.98zm5.54 5.076l-.08.537c-.05.378-.14.782-.26 1.213a28.581 28.581 0 01-.65 2.128h-.9c.05-.212.1-.492.17-.84s.14-.738.21-1.169c.07-.427.13-.865.18-1.312l.06-.557h1.27zm11.51-8.352h3.85v.938h-3.85v-.938zm0 2.912h3.85v.952h-3.85v-.952zm-2.31-3.99c.61 0 1.16.131 1.65.392.49.252.88.607 1.16 1.064.29.448.44.966.44 1.554 0 .588-.15 1.111-.44 1.568-.28.448-.67.803-1.16 1.064-.49.252-1.04.378-1.65.378-.63 0-1.19-.126-1.68-.378a3.076 3.076 0 01-1.16-1.064c-.28-.457-.42-.98-.42-1.568 0-.588.14-1.106.42-1.554.29-.457.67-.812 1.16-1.064.49-.261 1.05-.392 1.68-.392zm0 .994c-.41 0-.78.084-1.11.252a1.96 1.96 0 00-.77.714c-.18.299-.28.649-.28 1.05 0 .392.1.742.28 1.05.19.299.45.537.77.714.33.168.7.252 1.11.252a2.3 2.3 0 001.09-.252c.33-.177.58-.415.77-.714.19-.308.28-.658.28-1.05 0-.401-.09-.751-.28-1.05a1.895 1.895 0 00-.77-.714 2.3 2.3 0 00-1.09-.252zm5.79-1.75h1.17v7.49h-1.17v-7.49zm-3.01 7.798c.88 0 1.63.098 2.26.294.62.187 1.1.462 1.44.826.35.355.52.789.52 1.302 0 .504-.17.938-.52 1.302-.34.364-.82.639-1.44.826-.63.196-1.38.294-2.26.294-.86 0-1.62-.098-2.25-.294-.63-.187-1.11-.462-1.46-.826-.33-.364-.5-.798-.5-1.302 0-.513.17-.947.5-1.302.35-.364.83-.639 1.46-.826.63-.196 1.39-.294 2.25-.294zm0 .91c-.63 0-1.18.061-1.65.182-.46.121-.81.294-1.06.518a1.08 1.08 0 00-.37.812c0 .308.13.574.37.798.25.224.6.397 1.06.518.47.121 1.02.182 1.65.182.65 0 1.2-.061 1.66-.182.45-.121.8-.294 1.05-.518.25-.224.37-.49.37-.798 0-.317-.12-.588-.37-.812-.25-.224-.6-.397-1.05-.518-.46-.121-1.01-.182-1.66-.182zm6.62-2.24h11.48v.952h-11.48v-.952zm5.24.602h1.16v2.912h-1.16v-2.912zm-3.75-6.468h8.5v4.438h-8.5v-4.438zm7.36.924h-6.23v2.59h6.23v-2.59zm-7.39 9.912h8.75v.952h-8.75v-.952zm0-2.674h1.16v2.996h-1.16v-2.996zm12.01-7.378h5.71v.952h-5.71v-.952zm1.98 3.626h1.14v4.284h-1.14v-4.284zm3.26-3.626h1.15v.686c0 .513-.02 1.185-.06 2.016-.03.831-.13 1.834-.31 3.01l-1.15-.098c.19-1.148.3-2.128.33-2.94.02-.812.04-1.475.04-1.988v-.686zm2.73-1.386h1.16v12.67h-1.16v-12.67zm.84 5.292h2.34v.994h-2.34v-.994zm-9.37 4.606l-.14-.966c.76-.009 1.58-.019 2.48-.028.9-.019 1.82-.056 2.74-.112.94-.056 1.83-.135 2.68-.238l.07.868c-.88.14-1.78.243-2.7.308-.92.065-1.82.112-2.69.14-.88.019-1.69.028-2.44.028zm16.8-4.13h11.47v.952h-11.47v-.952zm5.13.434h1.15v1.932h-1.15v-1.932zm-.03 2.52h.99v.392c0 .476-.12.915-.37 1.316-.26.392-.61.742-1.07 1.05a6.41 6.41 0 01-1.57.728c-.58.196-1.21.331-1.87.406l-.38-.896a9.073 9.073 0 001.64-.308 6.06 6.06 0 001.36-.574c.39-.233.7-.495.92-.784.23-.299.35-.611.35-.938v-.392zm.21 0h.98v.392c0 .345.11.663.34.952.23.289.54.551.93.784.41.224.86.411 1.38.56.51.149 1.05.252 1.62.308l-.36.896a9.145 9.145 0 01-1.88-.406 6.78 6.78 0 01-1.57-.714c-.45-.299-.8-.649-1.06-1.05a2.47 2.47 0 01-.38-1.33v-.392zm-.18-8.568h1.01v.574c0 .439-.1.849-.28 1.232-.19.383-.45.733-.77 1.05-.32.317-.69.602-1.12.854-.42.243-.88.448-1.38.616-.49.168-1 .289-1.52.364l-.42-.91c.45-.056.89-.149 1.33-.28.44-.14.84-.308 1.22-.504.38-.205.71-.434 1-.686.3-.252.53-.523.69-.812.16-.299.24-.607.24-.924v-.574zm.19 0h1v.574c0 .317.08.621.24.91.16.28.39.551.68.812.29.252.62.481 1 .686.38.205.79.378 1.23.518.44.131.88.224 1.33.28l-.42.91a8.687 8.687 0 01-1.53-.364 7.589 7.589 0 01-1.38-.63c-.42-.252-.8-.537-1.12-.854a3.915 3.915 0 01-.76-1.05 2.829 2.829 0 01-.27-1.218v-.574zm10.68 1.666h.94v2.044c0 .663-.09 1.321-.28 1.974a8.13 8.13 0 01-.78 1.834 7.956 7.956 0 01-1.14 1.526c-.42.439-.89.784-1.38 1.036l-.69-.924c.46-.224.88-.527 1.28-.91.4-.392.75-.835 1.06-1.33.31-.504.55-1.027.73-1.568.18-.551.26-1.097.26-1.638v-2.044zm.23 0h.92v2.044c0 .504.08 1.013.24 1.526.17.513.4 1.003.7 1.47.3.467.64.887 1.04 1.26.4.364.82.658 1.27.882l-.66.924a5.72 5.72 0 01-1.38-1.008 6.914 6.914 0 01-1.12-1.456 7.562 7.562 0 01-.75-1.736 6.978 6.978 0 01-.26-1.862v-2.044zm-3.11-.518h6.83v.966h-6.83v-.966zm8.33-1.302h1.16v12.67h-1.16v-12.67zm.9 5.11h2.33v.98h-2.33v-.98zm7.35 4.97h11.48v.966h-11.48v-.966zm5.15-3.066h1.16v3.388h-1.16v-3.388zm-.03-5.404h1v.77c0 .523-.1 1.017-.3 1.484-.18.457-.44.887-.78 1.288a5.96 5.96 0 01-1.15 1.05c-.43.299-.89.56-1.38.784-.49.215-.98.373-1.47.476l-.48-.924c.43-.075.86-.201 1.3-.378.44-.187.85-.411 1.23-.672.4-.261.74-.555 1.04-.882.31-.327.55-.677.73-1.05.17-.373.26-.765.26-1.176v-.77zm.23 0h.98v.77c0 .411.09.803.26 1.176.18.364.42.709.73 1.036.31.327.66.621 1.05.882.39.252.81.467 1.25.644.45.177.89.299 1.33.364l-.48.924c-.5-.103-1-.257-1.5-.462a8.728 8.728 0 01-1.4-.77 6.465 6.465 0 01-1.14-1.036 4.698 4.698 0 01-.8-1.274 3.894 3.894 0 01-.28-1.484v-.77zm-4.4-.462h9.55v.966h-9.55v-.966zm20.59-1.148h1.17v7.364h-1.17v-7.364zm.66 3.234h2.37v.98h-2.37v-.98zm-7.46 4.69h1.15v1.33h5.65v-1.33h1.17v4.578h-7.97v-4.578zm1.15 2.24v1.4h5.65v-1.4h-5.65zm-2.98-8.862h7.47v.938h-7.47v-.938zm3.73 1.526c.61 0 1.14.093 1.59.28.45.177.81.434 1.06.77.25.327.38.714.38 1.162 0 .448-.13.84-.38 1.176-.25.336-.61.597-1.06.784-.45.177-.98.266-1.59.266-.6 0-1.13-.089-1.59-.266-.45-.187-.8-.448-1.07-.784a1.912 1.912 0 01-.37-1.176c0-.448.12-.835.37-1.162.27-.336.62-.593 1.07-.77.46-.187.99-.28 1.59-.28zm0 .882c-.57 0-1.04.121-1.4.364-.34.243-.51.565-.51.966 0 .411.17.737.51.98.36.243.83.364 1.4.364s1.04-.121 1.39-.364c.35-.243.53-.569.53-.98 0-.401-.18-.723-.53-.966-.35-.243-.81-.364-1.39-.364zm-.57-3.822h1.16v1.918h-1.16v-1.918zm15.4.924c.89 0 1.67.145 2.37.434.69.289 1.23.695 1.63 1.218.4.523.61 1.134.61 1.834 0 .709-.21 1.325-.61 1.848-.4.523-.94.929-1.63 1.218-.7.289-1.48.434-2.37.434-.87 0-1.65-.145-2.35-.434-.69-.289-1.24-.695-1.64-1.218-.4-.523-.6-1.139-.6-1.848 0-.7.2-1.311.6-1.834.4-.523.95-.929 1.64-1.218.7-.289 1.48-.434 2.35-.434zm0 .938c-.66 0-1.26.107-1.78.322-.52.215-.94.513-1.24.896a2.02 2.02 0 00-.47 1.33c0 .504.16.947.47 1.33.3.383.72.681 1.24.896.52.215 1.12.322 1.78.322.67 0 1.27-.107 1.79-.322.52-.215.93-.513 1.23-.896.31-.383.47-.826.47-1.33 0-.513-.16-.957-.47-1.33-.3-.383-.71-.681-1.23-.896-.52-.215-1.12-.322-1.79-.322zm-5.71 8.274h11.48v.966h-11.48v-.966zm12.88.112h11.48v.966h-11.48v-.966zm5.13-2.702h1.15v3.108h-1.15v-3.108zm-3.73-6.496h8.65v3.836h-7.48v2.534h-1.15v-3.458h7.48v-1.96h-7.5v-.952zm.02 5.88h8.92v.952h-8.92v-.952zm21.89-4.522h3.25v.952h-3.25v-.952zm2.76-2.296h1.16v6.538h-1.16v-6.538zm-6.99 7.182h8.15v3.038h-6.99v1.918h-1.13v-2.8h6.97v-1.232h-7v-.924zm.03 4.382h8.58v.938h-8.58v-.938zm.87-11.158h.93v1.176c0 .775-.14 1.498-.43 2.17a5.026 5.026 0 01-1.22 1.722c-.52.476-1.14.84-1.85 1.092l-.61-.924a5.05 5.05 0 001.66-.924 4.24 4.24 0 001.11-1.4c.27-.541.41-1.12.41-1.736v-1.176zm.18 0h.95v1.176c0 .411.08.812.22 1.204.15.383.36.742.63 1.078.28.336.62.635 1 .896.38.252.8.453 1.26.602l-.62.91a5.502 5.502 0 01-1.8-1.05 5.05 5.05 0 01-1.21-1.624 4.727 4.727 0 01-.43-2.016v-1.176zm16.29 2.884h2.85v.966h-2.85v-.966zm2.5-3.29h1.16v7.546h-1.16v-7.546zm-3.01 7.938c.87 0 1.62.093 2.25.28.63.187 1.12.457 1.46.812.33.345.5.77.5 1.274 0 .747-.38 1.325-1.13 1.736-.75.411-1.78.616-3.08.616-1.31 0-2.34-.205-3.1-.616-.75-.411-1.12-.989-1.12-1.736 0-.504.17-.929.51-1.274.34-.355.83-.625 1.45-.812.64-.187 1.39-.28 2.26-.28zm0 .91c-.64 0-1.19.056-1.64.168-.46.112-.81.275-1.07.49-.24.215-.36.481-.36.798 0 .299.12.555.36.77.26.215.61.383 1.07.504.45.112 1 .168 1.64.168.64 0 1.19-.056 1.63-.168.46-.121.81-.289 1.05-.504.26-.215.38-.471.38-.77a.987.987 0 00-.38-.798c-.24-.215-.59-.378-1.05-.49-.44-.112-.99-.168-1.63-.168zm-3.03-7.56h.95v1.022a5.52 5.52 0 01-.44 2.184c-.29.672-.7 1.265-1.24 1.778a5.54 5.54 0 01-1.84 1.162l-.61-.924c.48-.168.91-.397 1.29-.686a4.91 4.91 0 001.01-.994c.29-.373.51-.775.66-1.204.15-.429.22-.868.22-1.316v-1.022zm.23 0h.95v1.008c0 .541.12 1.069.38 1.582.25.513.61.966 1.07 1.358.47.392 1.01.7 1.61.924l-.58.924a5.19 5.19 0 01-1.81-1.092 5.23 5.23 0 01-1.2-1.68 4.942 4.942 0 01-.42-2.016v-1.008zm-3.04-.364h6.76v.952h-6.76v-.952zm-245.22 32.785c-.4 0-.77-.098-1.1-.294-.33-.199-.6-.464-.79-.795-.2-.332-.3-.698-.3-1.099 0-.404.1-.77.3-1.099.19-.331.46-.594.79-.79.33-.199.7-.298 1.1-.298.4 0 .77.099 1.1.298.33.196.59.459.79.79.2.329.3.695.3 1.099 0 .401-.1.767-.3 1.099-.2.331-.46.596-.79.795-.33.196-.7.294-1.1.294zm20.41-9.709h1.16v6.804h-1.16v-6.804zm-6.98 7.434h1.13v1.526h5.87v-1.526h1.14v5.068h-8.14v-5.068zm1.13 2.45v1.666h5.87v-1.666h-5.87zm.22-9.282c.65 0 1.22.126 1.71.378.5.243.88.583 1.16 1.022.29.439.44.947.44 1.526 0 .569-.15 1.078-.44 1.526-.28.439-.66.779-1.16 1.022-.49.243-1.06.364-1.71.364-.63 0-1.2-.121-1.7-.364s-.89-.583-1.18-1.022a2.82 2.82 0 01-.42-1.526c0-.579.14-1.087.42-1.526.29-.439.68-.779 1.18-1.022.5-.252 1.07-.378 1.7-.378zm0 .98c-.42 0-.79.084-1.12.252-.32.159-.58.387-.77.686-.18.289-.28.625-.28 1.008 0 .373.1.709.28 1.008.19.289.45.518.77.686.33.168.7.252 1.12.252.42 0 .8-.084 1.12-.252a1.9 1.9 0 00.77-.686c.19-.299.28-.635.28-1.008 0-.383-.09-.719-.28-1.008a1.773 1.773 0 00-.77-.686c-.32-.168-.7-.252-1.12-.252zm9.83 4.704h.9c.83 0 1.54-.005 2.12-.014.6-.019 1.14-.051 1.63-.098.49-.047.99-.117 1.5-.21l.11.952c-.38.065-.76.121-1.14.168-.37.037-.76.065-1.17.084-.41.019-.86.033-1.36.042-.49.009-1.06.014-1.69.014h-.9v-.938zm-.03-5.516h5.45v3.584h-4.27v2.492h-1.15v-3.388h4.27v-1.75h-4.3v-.938zm8.75-.756h1.16v7.784h-1.16v-7.784zm-2.46 1.876h2.73v.938h-2.73v-.938zm0 2.618h2.73v.952h-2.73v-.952zm-4.85 3.962h8.47v4.214h-1.16v-3.262h-7.31v-.952zm15.48-7.028h10.18v.952H1333v-.952zm-.6 6.776h11.48v.952h-11.48v-.952zm5.13.77h1.15v3.696h-1.15v-3.696zm.58-5.866c1.29 0 2.29.182 3.02.546.73.364 1.09.887 1.09 1.568 0 .663-.36 1.181-1.09 1.554-.73.364-1.73.546-3.02.546s-2.3-.182-3.03-.546c-.72-.373-1.09-.891-1.09-1.554 0-.681.37-1.204 1.09-1.568.73-.364 1.74-.546 3.03-.546zm0 .882c-.93 0-1.65.107-2.16.322-.5.205-.75.509-.75.91 0 .383.25.681.75.896.51.215 1.23.322 2.16.322.92 0 1.64-.107 2.14-.322.51-.215.77-.513.77-.896 0-.401-.26-.705-.77-.91-.5-.215-1.22-.322-2.14-.322zm-.58-4.074h1.15v2.142h-1.15v-2.142zm17.06 3.682h2.15V230h-2.15v-.966zm-2.38-2.618c.56 0 1.05.131 1.48.392.43.261.77.625 1.02 1.092.26.457.38.989.38 1.596 0 .597-.12 1.129-.38 1.596-.25.457-.59.817-1.02 1.078-.43.261-.92.392-1.48.392-.56 0-1.06-.131-1.49-.392a2.815 2.815 0 01-1.02-1.078c-.24-.467-.36-.999-.36-1.596 0-.607.12-1.139.36-1.596.25-.467.59-.831 1.02-1.092.43-.261.93-.392 1.49-.392zm0 .994c-.35 0-.66.089-.94.266-.27.177-.49.425-.64.742-.16.308-.24.667-.24 1.078 0 .401.08.761.24 1.078.15.308.37.551.64.728.28.177.59.266.94.266.34 0 .66-.089.94-.266.28-.177.5-.42.65-.728.16-.317.24-.677.24-1.078 0-.411-.08-.77-.24-1.078a1.742 1.742 0 00-.65-.742 1.74 1.74 0 00-.94-.266zm6.56-1.988h1.11v9.478h-1.11v-9.478zm-2.39.252h1.09v8.862h-1.09v-8.862zm-4.76 11.186h8.64v.952h-8.64v-.952zm0-3.178h1.16v3.612h-1.16v-3.612zm19.74-8.26h1.15v12.684h-1.15v-12.684zm-2.62 4.774h2.8v.952h-2.8v-.952zm-6.06 3.906h.95c.8 0 1.52-.009 2.14-.028.63-.019 1.22-.056 1.78-.112.57-.056 1.15-.135 1.74-.238l.12.952c-.6.103-1.2.182-1.78.238-.57.056-1.19.098-1.83.126-.63.019-1.36.028-2.17.028h-.95v-.966zm0-7.518h5.85v.952h-4.7v6.888h-1.15v-7.84zm.85 3.556h4.44v.938h-4.44v-.938zm20.99-3.402h1.12c0 .915-.09 1.811-.28 2.688a9.13 9.13 0 01-.94 2.492 8.731 8.731 0 01-1.79 2.226c-.75.691-1.7 1.316-2.84 1.876l-.63-.91c1-.485 1.84-1.027 2.52-1.624.69-.597 1.24-1.241 1.65-1.932.42-.691.72-1.428.91-2.212.19-.784.28-1.61.28-2.478v-.126zm-4.67 0h5.26v.952h-5.26v-.952zm4.49 3.136v.91l-4.94.462-.2-1.022 5.14-.35zm3.79-4.452h1.17v12.67h-1.17v-12.67zm3.66 10.136h11.48v.966h-11.48v-.966zm5.13-2.702h1.15v3.108h-1.15v-3.108zm-3.73-6.496h8.65v3.836h-7.48v2.534h-1.15v-3.458h7.48v-1.96h-7.5v-.952zm.02 5.88h8.92v.952h-8.92v-.952zm24.65-6.818h1.16v12.684h-1.16v-12.684zm-2.72 4.606h3.05v.952h-3.05v-.952zm-3.33-2.8h.94v1.904c0 .681-.1 1.353-.28 2.016a8.007 8.007 0 01-.76 1.848 7.01 7.01 0 01-1.13 1.54 5.38 5.38 0 01-1.39 1.064l-.7-.924c.46-.224.89-.532 1.29-.924s.75-.835 1.05-1.33c.31-.504.54-1.036.71-1.596.18-.569.27-1.134.27-1.694v-1.904zm.25 0h.92v1.904c0 .523.09 1.055.26 1.596.16.532.4 1.036.7 1.512.3.476.66.905 1.06 1.288.4.373.83.667 1.29.882l-.69.924c-.5-.252-.97-.593-1.4-1.022-.43-.429-.8-.919-1.13-1.47a7.522 7.522 0 01-.74-1.792 7 7 0 01-.27-1.918v-1.904zm-3.09-.504h6.87v.952h-6.87v-.952zm15.63.056h.96v1.022a5.2 5.2 0 01-.45 2.17c-.29.663-.7 1.241-1.23 1.736-.53.495-1.15.873-1.87 1.134l-.58-.924a5.092 5.092 0 001.66-.952c.48-.42.85-.901 1.11-1.442a3.8 3.8 0 00.4-1.722v-1.022zm.21 0h.96v1.022c0 .551.12 1.073.37 1.568.26.495.61.929 1.07 1.302.45.373.99.667 1.61.882l-.55.91a5.254 5.254 0 01-1.83-1.05 4.892 4.892 0 01-1.21-1.61 4.843 4.843 0 01-.42-2.002v-1.022zm-3.03-.42h6.77v.952h-6.77v-.952zm8.37-.938h1.16v7.63h-1.16v-7.63zm.84 3.22h2.18v.966h-2.18v-.966zm-3.71 4.76c.86 0 1.59.093 2.21.28.62.177 1.11.439 1.44.784.34.345.51.765.51 1.26s-.17.915-.51 1.26c-.33.345-.82.611-1.44.798-.62.187-1.35.28-2.21.28-.86 0-1.6-.093-2.23-.28-.62-.187-1.1-.453-1.44-.798-.34-.345-.5-.765-.5-1.26s.16-.915.5-1.26c.34-.345.82-.607 1.44-.784.63-.187 1.37-.28 2.23-.28zm0 .924c-.63 0-1.17.056-1.63.168-.44.112-.79.271-1.03.476a.938.938 0 00-.37.756c0 .299.12.555.37.77.24.205.59.364 1.03.476.46.112 1 .168 1.63.168.62 0 1.16-.056 1.61-.168.45-.112.79-.271 1.03-.476.25-.215.37-.471.37-.77a.938.938 0 00-.37-.756c-.24-.205-.58-.364-1.03-.476-.45-.112-.99-.168-1.61-.168zm-135.78 24.805c-.4 0-.77-.098-1.1-.294-.33-.199-.6-.464-.79-.795-.2-.332-.3-.698-.3-1.099 0-.404.1-.77.3-1.099.19-.331.46-.594.79-.79.33-.199.7-.298 1.1-.298.4 0 .77.099 1.1.298.33.196.59.459.79.79.2.329.3.695.3 1.099 0 .401-.1.767-.3 1.099-.2.331-.46.596-.79.795-.33.196-.7.294-1.1.294zm17.23-7.651h3.66v.938h-3.66v-.938zm0 2.506h3.69v.952h-3.69v-.952zm3.22-4.564h1.17v7.49h-1.17v-7.49zm-8.66.966h5.77v5.628h-5.77v-5.628zm4.63.938h-3.5v3.752h3.5v-3.752zm1.02 5.964c1.31 0 2.34.21 3.08.63.76.42 1.14 1.008 1.14 1.764s-.38 1.339-1.14 1.75c-.74.42-1.77.63-3.08.63-1.3 0-2.33-.21-3.09-.63-.75-.411-1.12-.994-1.12-1.75s.37-1.344 1.12-1.764c.76-.42 1.79-.63 3.09-.63zm0 .91c-.63 0-1.18.061-1.63.182-.46.112-.82.28-1.07.504-.24.215-.36.481-.36.798 0 .299.12.56.36.784.25.215.61.383 1.07.504.45.121 1 .182 1.63.182.65 0 1.19-.061 1.64-.182.46-.121.81-.289 1.05-.504.25-.224.38-.485.38-.784 0-.317-.13-.583-.38-.798-.24-.224-.59-.392-1.05-.504-.45-.121-.99-.182-1.64-.182zm7.17-2.59h.9c.83 0 1.54-.005 2.12-.014.6-.019 1.14-.047 1.63-.084.49-.047.99-.117 1.5-.21l.11.952c-.38.065-.76.121-1.14.168-.37.037-.76.065-1.17.084-.41.019-.86.033-1.36.042-.49.009-1.06.014-1.69.014h-.9v-.952zm-.03-5.474h5.45v3.57h-4.27v2.52h-1.15v-3.43h4.27v-1.708h-4.3v-.952zm8.75-.7h1.16v7.812h-1.16v-7.812zm-2.45 1.974h2.73v.952h-2.73v-.952zm0 2.576h2.73v.952h-2.73v-.952zm-.54 3.5c1.3 0 2.33.205 3.08.616.75.401 1.13.975 1.13 1.722 0 .737-.38 1.311-1.13 1.722-.75.411-1.78.616-3.08.616-1.31 0-2.34-.205-3.1-.616-.75-.411-1.13-.985-1.13-1.722 0-.747.38-1.321 1.13-1.722.76-.411 1.79-.616 3.1-.616zm0 .91c-.64 0-1.19.056-1.66.168-.45.112-.8.275-1.05.49a.972.972 0 00-.36.77c0 .299.12.555.36.77.25.215.6.378 1.05.49.47.112 1.02.168 1.66.168.63 0 1.18-.056 1.63-.168.46-.112.81-.275 1.05-.49.26-.215.38-.471.38-.77a.934.934 0 00-.38-.77c-.24-.215-.59-.378-1.05-.49-.45-.112-1-.168-1.63-.168zm9.99-7.994c.62 0 1.16.182 1.64.546.48.355.84.863 1.11 1.526.27.663.4 1.442.4 2.338 0 .896-.13 1.675-.4 2.338s-.63 1.176-1.11 1.54a2.63 2.63 0 01-1.64.546c-.6 0-1.15-.182-1.64-.546-.47-.364-.85-.877-1.12-1.54-.26-.663-.39-1.442-.39-2.338 0-.896.13-1.675.39-2.338.27-.663.65-1.171 1.12-1.526a2.691 2.691 0 011.64-.546zm0 1.036c-.4 0-.75.14-1.06.42-.31.271-.55.663-.73 1.176-.17.504-.25 1.097-.25 1.778s.08 1.279.25 1.792c.18.504.42.896.73 1.176.31.28.66.42 1.06.42.41 0 .77-.14 1.08-.42.31-.28.55-.672.71-1.176.18-.513.27-1.111.27-1.792s-.09-1.274-.27-1.778c-.16-.513-.4-.905-.71-1.176-.31-.28-.67-.42-1.08-.42zm5.9-2.016h1.14v12.684h-1.14v-12.684zm-3.13 4.83h3.64v.938h-3.64v-.938zm15.4-4.83h1.18v7.532H1350v-7.532zm.84 3.29h2.19v.966h-2.19v-.966zm-3.71 4.508c.85 0 1.58.098 2.2.294.63.187 1.11.462 1.44.826.35.355.52.789.52 1.302 0 .504-.17.938-.52 1.302-.33.364-.81.639-1.44.826-.62.196-1.35.294-2.2.294-.86 0-1.6-.098-2.22-.294-.63-.187-1.11-.462-1.45-.826-.33-.364-.5-.798-.5-1.302 0-.513.17-.947.5-1.302.34-.364.82-.639 1.45-.826.62-.196 1.36-.294 2.22-.294zm0 .938c-.62 0-1.16.061-1.62.182-.45.112-.8.28-1.05.504-.24.215-.37.481-.37.798 0 .308.13.574.37.798.25.224.6.397 1.05.518.46.112 1 .168 1.62.168.62 0 1.16-.056 1.61-.168.46-.121.81-.294 1.05-.518.25-.224.37-.49.37-.798 0-.317-.12-.583-.37-.798-.24-.224-.59-.392-1.05-.504-.45-.121-.99-.182-1.61-.182zm-5.23-3.164h.98c.88 0 1.65-.009 2.31-.028.65-.019 1.25-.061 1.8-.126a22.28 22.28 0 001.68-.266l.13.952c-.58.112-1.15.201-1.72.266-.56.056-1.18.098-1.85.126-.67.019-1.46.028-2.35.028h-.98v-.952zm0-4.606h5.58v.952h-4.44v4.284h-1.14v-5.236zm22.23.84h3.56v.896h-3.56v-.896zm0 2.296h3.56v.91h-3.56v-.91zm3.28-4.102h1.15v6.608h-1.15v-6.608zm-7 7.224h8.15v3.01h-6.98v1.946h-1.14v-2.828h6.97v-1.204h-7v-.924zm.03 4.34h8.59v.938h-8.59v-.938zm-1.67-10.976h1.16v1.806h3.42v-1.806h1.15v5.516h-5.73v-5.516zm1.16 2.716v1.862h3.42v-1.862h-3.42zm14.53-1.204h.95v.546c0 .737-.15 1.428-.44 2.072a4.97 4.97 0 01-1.26 1.652 5.39 5.39 0 01-1.87 1.05l-.57-.91a4.75 4.75 0 001.29-.616c.39-.261.73-.56 1.01-.896.29-.345.5-.719.65-1.12.16-.401.24-.812.24-1.232v-.546zm.2 0h.95v.546c0 .392.08.775.24 1.148.16.364.38.705.67 1.022.29.308.63.583 1.02.826.4.233.84.42 1.3.56l-.54.91a5.75 5.75 0 01-1.89-.966 4.814 4.814 0 01-1.29-1.554 4.157 4.157 0 01-.46-1.946v-.546zm-3.07-.546h6.88v.938h-6.88v-.938zm2.87-1.554h1.16v1.974h-1.16v-1.974zm5.78.014h1.17v7.756h-1.17v-7.756zm-3.03 8.022c.87 0 1.63.093 2.26.28.64.177 1.13.434 1.47.77.35.336.52.751.52 1.246 0 .728-.38 1.293-1.15 1.694-.75.411-1.79.616-3.1.616-1.33 0-2.37-.205-3.13-.616-.74-.401-1.12-.966-1.12-1.694s.38-1.293 1.12-1.694c.76-.401 1.8-.602 3.13-.602zm0 .91c-.65 0-1.2.056-1.67.168-.46.112-.81.271-1.05.476-.24.205-.36.453-.36.742 0 .439.27.784.81 1.036.55.243 1.3.364 2.27.364.96 0 1.71-.121 2.26-.364.55-.252.83-.597.83-1.036 0-.289-.13-.537-.38-.742-.25-.205-.6-.364-1.06-.476-.46-.112-1.01-.168-1.65-.168zm14.26-2.254h1.17v2.758h-1.17v-2.758zm-.01-4.452h.94v.294c0 .737-.15 1.414-.45 2.03-.3.607-.71 1.129-1.25 1.568-.53.429-1.15.756-1.86.98l-.54-.896a5.576 5.576 0 001.65-.826 4.01 4.01 0 001.1-1.274c.28-.495.41-1.022.41-1.582v-.294zm.22 0h.96v.294c0 .541.13 1.05.4 1.526.27.467.65.877 1.12 1.232a5.4 5.4 0 001.67.784l-.53.91a5.604 5.604 0 01-1.88-.966 4.644 4.644 0 01-1.27-1.526 4.195 4.195 0 01-.47-1.96v-.294zm-3.08-.588h6.95v.952h-6.95v-.952zm2.87-1.554h1.17v1.974h-1.17v-1.974zm5.53-.098h1.17v12.684H1397v-12.684zm-8.93 10.066l-.15-.966c.76 0 1.61-.005 2.53-.014a77.65 77.65 0 002.87-.112 30.25 30.25 0 002.86-.322l.1.868c-.96.177-1.92.303-2.9.378-.97.075-1.91.121-2.82.14-.9.019-1.73.028-2.49.028zm22.29-10.066h1.11v12.67h-1.11v-12.67zm-2.14 5.082h2.43v.952h-2.43v-.952zm-.73-4.802h1.08v11.732h-1.08v-11.732zm-6.31 8.288h.82c.63 0 1.19-.005 1.7-.014a16.266 16.266 0 002.88-.35l.11.966c-.5.103-.99.182-1.47.238-.47.056-.96.093-1.48.112-.52.019-1.09.028-1.74.028h-.82v-.98zm0-7.028h4.7v.952h-3.54v6.524h-1.16v-7.476zM1417.9 261v-.895l3.36-3.679c.39-.431.72-.805.97-1.123.26-.322.45-.624.57-.905.13-.285.19-.584.19-.895 0-.358-.09-.668-.26-.93s-.4-.464-.7-.606a2.21 2.21 0 00-.99-.214c-.39 0-.73.081-1.02.243-.29.16-.52.383-.68.672-.15.288-.23.626-.23 1.014h-1.17c0-.597.14-1.12.41-1.571.28-.451.65-.802 1.12-1.054a3.42 3.42 0 011.61-.378c.6 0 1.12.126 1.59.378.46.252.82.591 1.08 1.019.26.428.39.903.39 1.427 0 .374-.07.741-.2 1.099-.13.354-.37.75-.7 1.188-.33.434-.78.964-1.36 1.591l-2.29 2.446v.079h4.73V261h-6.42zm17.72-11.578h1.12v12.67h-1.12v-12.67zm-2.04 5.096h2.44v.952h-2.44v-.952zm-3.26-3.458h1.1c0 .812-.08 1.605-.23 2.38a8.72 8.72 0 01-.79 2.24 7.837 7.837 0 01-1.44 2.002c-.61.616-1.36 1.181-2.27 1.694l-.67-.826c1.06-.597 1.91-1.274 2.53-2.03a7.048 7.048 0 001.35-2.45c.28-.887.42-1.82.42-2.8v-.21zm-3.81 0h4.19v.952h-4.19v-.952zm6.31-1.302h1.1v11.704h-1.1v-11.704zm16.51 1.96h3.25v.952h-3.25v-.952zm2.76-2.296h1.16v6.538h-1.16v-6.538zm-6.99 7.182h8.15v3.038h-6.98v1.918h-1.14v-2.8h6.97v-1.232h-7v-.924zm.03 4.382h8.58v.938h-8.58v-.938zm.87-11.158h.94v1.176a5.42 5.42 0 01-.44 2.17 4.999 4.999 0 01-1.21 1.722c-.53.476-1.14.84-1.85 1.092l-.62-.924a5.098 5.098 0 001.67-.924 4.34 4.34 0 001.1-1.4c.28-.541.41-1.12.41-1.736v-1.176zm.18 0h.95v1.176c0 .411.08.812.23 1.204.15.383.36.742.63 1.078.28.336.61.635.99.896.39.252.81.453 1.26.602l-.61.91a5.549 5.549 0 01-1.81-1.05 5.17 5.17 0 01-1.2-1.624 4.735 4.735 0 01-.44-2.016v-1.176zm16.3 2.884h2.84v.966h-2.84v-.966zm2.49-3.29h1.16v7.546h-1.16v-7.546zm-3.01 7.938c.88 0 1.63.093 2.25.28.64.187 1.12.457 1.46.812.34.345.5.77.5 1.274 0 .747-.37 1.325-1.13 1.736-.75.411-1.77.616-3.08.616s-2.34-.205-3.09-.616c-.75-.411-1.12-.989-1.12-1.736 0-.504.16-.929.5-1.274.34-.355.83-.625 1.46-.812.63-.187 1.38-.28 2.25-.28zm0 .91c-.64 0-1.18.056-1.64.168-.46.112-.81.275-1.06.49-.25.215-.37.481-.37.798 0 .299.12.555.37.77.25.215.6.383 1.06.504.46.112 1 .168 1.64.168.64 0 1.19-.056 1.64-.168.45-.121.8-.289 1.05-.504.25-.215.38-.471.38-.77 0-.317-.13-.583-.38-.798-.25-.215-.6-.378-1.05-.49-.45-.112-1-.168-1.64-.168zm-3.02-7.56h.95v1.022c0 .775-.15 1.503-.45 2.184-.29.672-.7 1.265-1.23 1.778-.53.504-1.15.891-1.85 1.162l-.6-.924c.47-.168.9-.397 1.29-.686.39-.289.72-.621 1-.994.29-.373.51-.775.66-1.204.15-.429.23-.868.23-1.316v-1.022zm.22 0h.95v1.008c0 .541.13 1.069.38 1.582a4.1 4.1 0 001.08 1.358c.46.392 1 .7 1.61.924l-.59.924a5.379 5.379 0 01-1.81-1.092 5.387 5.387 0 01-1.2-1.68 4.942 4.942 0 01-.42-2.016v-1.008zm-3.04-.364h6.76v.952h-6.76v-.952zm24.98-.924h1.16v12.656h-1.16v-12.656zm.85 5.138h2.33v.966h-2.33v-.966zm-4.08-3.78h1.13c0 1.204-.2 2.357-.59 3.458-.39 1.092-1.01 2.105-1.85 3.038-.84.924-1.94 1.727-3.31 2.408l-.65-.896c1.18-.588 2.15-1.274 2.93-2.058.78-.793 1.37-1.671 1.75-2.632.39-.971.59-2.016.59-3.136v-.182zm-4.68 0h5.26v.966h-5.26v-.966zm13.77 2.156h8.59v.952h-8.59v-.952zm0-3.262h1.15v3.682h-1.15v-3.682zm-1.55 5.684h11.45v.952h-11.45v-.952zm5.71 2.072c1.36 0 2.42.201 3.18.602.77.401 1.15.971 1.15 1.708 0 .728-.38 1.293-1.15 1.694-.76.401-1.82.602-3.18.602-1.35 0-2.41-.201-3.19-.602-.76-.401-1.15-.966-1.15-1.694 0-.737.39-1.307 1.15-1.708.78-.401 1.84-.602 3.19-.602zm-.01.924c-.65 0-1.22.056-1.7.168-.46.103-.82.257-1.07.462a.92.92 0 00-.38.756c0 .289.12.541.38.756.25.205.61.364 1.07.476.48.103 1.05.154 1.7.154.67 0 1.24-.051 1.71-.154.47-.112.84-.271 1.09-.476.25-.215.38-.467.38-.756 0-.299-.13-.551-.38-.756-.25-.205-.62-.359-1.09-.462-.47-.112-1.04-.168-1.71-.168z" fill="#000"/><g filter="url(#filter1_i_1102_15322)"><circle cx="1293" cy="281" r="12" fill="#D9D9D9"/><circle cx="1293" cy="281" r="12" fill="#FFC600"/><circle cx="1293" cy="281" r="12" fill="#fff"/></g><circle cx="1293" cy="281" r="11.5" stroke="#000"/><path d="M1293 274.571s5.14-.429 4.15 6.317c-.22 0-4.15.109-4.15.109v-6.426z" fill="#EB5F00"/><path d="M1293.09 274.143a4.38 4.38 0 014.38 4.38v4.953a4.38 4.38 0 11-8.76 0v-4.953a4.38 4.38 0 014.38-4.38zm-3.81 9.333a3.813 3.813 0 003.81 3.809c2.11 0 3.81-1.705 3.81-3.809V281h-7.62v2.476zm4-2.857h3.62v-2.096c0-2.04-1.6-3.706-3.62-3.805v5.901zm-.38-5.901a3.814 3.814 0 00-3.62 3.805v2.096h3.62v-5.901z" fill="#000"/><rect x="1292.43" y="276.333" width="1.334" height="2.858" rx=".667" fill="#FFC600" stroke="#000" stroke-width=".571"/><path d="M1309.41 281.8h8.38v1.07h-8.38v-1.07zm3.49.7h1.33v3.39h-1.33v-3.39zm.68-5.56c.66 0 1.24.087 1.74.26.51.167.9.407 1.18.72.28.313.42.68.42 1.1 0 .427-.14.797-.42 1.11-.28.307-.67.547-1.18.72-.5.167-1.08.25-1.74.25-.66 0-1.24-.083-1.75-.25-.5-.173-.89-.413-1.18-.72a1.61 1.61 0 01-.42-1.11c0-.42.14-.787.42-1.1.29-.313.68-.553 1.18-.72.51-.173 1.09-.26 1.75-.26zm-.01 1.05c-.4 0-.75.04-1.05.12-.29.08-.52.197-.68.35a.726.726 0 00-.24.56c0 .22.08.407.24.56.16.153.39.27.68.35.3.073.65.11 1.05.11.41 0 .77-.037 1.06-.11.29-.08.52-.197.68-.35a.72.72 0 00.25-.56.703.703 0 00-.25-.56c-.16-.153-.39-.27-.68-.35-.29-.08-.65-.12-1.06-.12zm6.07-1.04h5.86v1.03h-5.86v-1.03zm5.06 0h1.31v.81c0 .407-.01.833-.03 1.28-.01.447-.08.947-.2 1.5l-1.32-.13c.13-.533.2-1.007.21-1.42.02-.413.03-.823.03-1.23v-.81zm.41 1.55v.91l-5.58.23-.16-1.02 5.74-.12zm-6.48 1.69h8.33v1.04h-8.33v-1.04zm.89 1.58h6.55v2.46h-5.21v.99h-1.32v-1.94h5.21v-.5h-5.23v-1.01zm.02 3.01h6.84v1.01h-6.84v-1.01zm14.63-8.16h1.33v5.7h-1.33v-5.7zm-4.98 6.1h6.31v3.17h-1.33v-2.11h-4.98v-1.06zm-.9-1.85h.8c.61 0 1.15-.007 1.63-.02.48-.013.94-.037 1.37-.07.43-.04.87-.097 1.31-.17l.15 1.06c-.45.073-.91.13-1.36.17-.45.04-.92.067-1.42.08-.5.007-1.06.01-1.68.01h-.8v-1.06zm-.02-3.74h4.27v2.85h-2.95v1.38h-1.3V279h2.93v-.81h-2.95v-1.06zm13.3.21h1.09v1.34c0 .6-.05 1.177-.16 1.73-.1.547-.27 1.06-.49 1.54-.21.473-.49.893-.83 1.26-.33.36-.73.647-1.19.86l-.79-1.1c.41-.18.76-.417 1.05-.71.3-.3.55-.64.74-1.02.2-.387.34-.797.43-1.23.1-.433.15-.877.15-1.33v-1.34zm.26 0h1.08v1.34c0 .433.05.857.14 1.27.1.413.24.803.42 1.17.2.367.44.693.72.98.3.28.64.503 1.03.67l-.77 1.08a4.02 4.02 0 01-1.17-.83 4.94 4.94 0 01-.81-1.2c-.21-.46-.37-.953-.48-1.48a8.986 8.986 0 01-.16-1.66v-1.34zm3.84-.73h1.33v9.29h-1.33v-9.29zm9.63 1.17h2.25v1.01h-2.25v-1.01zm0 1.7h2.25v1h-2.25v-1zm1.95-2.85h1.33v4.75h-1.33v-4.75zm-4.79 5.1h6.12v2.48h-4.79v1.17h-1.31v-2.13h4.79v-.49h-4.81v-1.03zm.02 3.02h6.37v1.04h-6.37v-1.04zm-1.26-7.74h1.32v1.07h1.76v-1.07h1.31v4.11h-4.39v-4.11zm1.32 2.07v1.01h1.76v-1.01h-1.76zm9.75-.9h1.09v.34c0 .547-.1 1.063-.29 1.55-.2.48-.49.9-.87 1.26-.39.353-.89.617-1.49.79l-.61-1.03c.37-.113.69-.257.97-.43.28-.18.5-.387.68-.62.18-.233.31-.477.39-.73.08-.26.13-.523.13-.79v-.34zm.25 0h1.08v.34c0 .247.04.49.13.73s.22.467.4.68c.18.207.4.393.68.56.28.167.61.297.99.39l-.61 1.05c-.6-.16-1.09-.407-1.49-.74-.4-.34-.69-.74-.89-1.2-.2-.46-.29-.95-.29-1.47v-.34zm-2.11-.59h5.06v1.04h-5.06v-1.04zm1.86-.95h1.34v1.42h-1.34v-1.42zm4.11-.01h1.33v5.58h-1.33v-5.58zm-1.8 5.74c.65 0 1.21.07 1.69.21.47.14.83.34 1.09.6.26.26.39.577.39.95 0 .56-.29.993-.85 1.3-.57.307-1.34.46-2.32.46-.98 0-1.76-.153-2.32-.46-.57-.307-.85-.74-.85-1.3 0-.553.28-.983.85-1.29.56-.313 1.34-.47 2.32-.47zm0 1.01c-.4 0-.74.027-1.02.08-.28.053-.48.137-.62.25a.51.51 0 00-.2.42c0 .247.15.433.46.56.31.12.77.18 1.38.18.6 0 1.05-.06 1.37-.18.31-.127.47-.313.47-.56a.52.52 0 00-.21-.42c-.14-.113-.35-.197-.62-.25-.27-.053-.61-.08-1.01-.08zm13.63-6.76h1.27v9.26h-1.27v-9.26zm-3.05 3.17h1.54v1.08h-1.54v-1.08zm1.18-3.02h1.24v8.69h-1.24v-8.69zm-3.17 1.36h1v.95c0 .52-.04 1.033-.12 1.54-.07.507-.19.987-.35 1.44-.16.447-.37.85-.63 1.21s-.57.657-.94.89l-.79-.98c.45-.287.81-.647 1.08-1.08.27-.44.46-.92.57-1.44.12-.527.18-1.053.18-1.58v-.95zm.3 0h.99v.95c0 .513.06 1.02.17 1.52.11.5.3.957.56 1.37.26.407.61.74 1.06 1l-.77.96c-.49-.293-.89-.69-1.18-1.19-.29-.5-.51-1.063-.64-1.69a9.774 9.774 0 01-.19-1.97v-.95zm-1.79-.58h4.13v1.07h-4.13v-1.07zm15.46-.92h1.33v9.26h-1.33v-9.26zm-1.78 3.54h2.43v1.08h-2.43v-1.08zm-1.25-2.59h1.31c0 .7-.07 1.37-.2 2.01a6.73 6.73 0 01-.65 1.8 6.172 6.172 0 01-1.26 1.58c-.53.48-1.19.92-1.99 1.32l-.7-1.03c.65-.327 1.2-.68 1.64-1.06.44-.38.8-.79 1.08-1.23.27-.44.47-.92.59-1.44.12-.527.18-1.097.18-1.71v-.24zm-3.05 0h3.75v1.06h-3.75v-1.06z" fill="#333"/><defs><filter id="filter0_i_1102_15322" x="1281" y="466" width="24" height="26" filterUnits="userSpaceOnUse" color-interpolation-filters="sRGB"><feFlood flood-opacity="0" result="BackgroundImageFix"/><feBlend in="SourceGraphic" in2="BackgroundImageFix" result="shape"/><feColorMatrix in="SourceAlpha" values="0 0 0 0 0 0 0 0 0 0 0 0 0 0 0 0 0 0 127 0" result="hardAlpha"/><feOffset dy="-2"/><feGaussianBlur stdDeviation="2"/><feComposite in2="hardAlpha" operator="arithmetic" k2="-1" k3="1"/><feColorMatrix values="0 0 0 0 0 0 0 0 0 0 0 0 0 0 0 0 0 0 0.5 0"/><feBlend in2="shape" result="effect1_innerShadow_1102_15322"/></filter><filter id="filter1_i_1102_15322" x="1281" y="267" width="24" height="26" filterUnits="userSpaceOnUse" color-interpolation-filters="sRGB"><feFlood flood-opacity="0" result="BackgroundImageFix"/><feBlend in="SourceGraphic" in2="BackgroundImageFix" result="shape"/><feColorMatrix in="SourceAlpha" values="0 0 0 0 0 0 0 0 0 0 0 0 0 0 0 0 0 0 127 0" result="hardAlpha"/><feOffset dy="-2"/><feGaussianBlur stdDeviation="2"/><feComposite in2="hardAlpha" operator="arithmetic" k2="-1" k3="1"/><feColorMatrix values="0 0 0 0 0 0 0 0 0 0 0 0 0 0 0 0 0 0 0.5 0"/><feBlend in2="shape" result="effect1_innerShadow_1102_15322"/></filter></defs></svg>