<svg width="64" height="64" xmlns="http://www.w3.org/2000/svg" data-name="레이어_2"><defs><style/></defs><g class="layer"><g data-name="레이어_1" id="_레이어_1-2"><g id="svg_1"><path d="M31.59 31.61c-1.81.72-2.76.04-3.19-.47l-4.83 5.85c-4.09 4.9-8.97 6.79-12.69 5.16l19.3-23.16s1.93-2.63 4.12-4.35c.16-.12.21-.25.18-.47-.14-.58-1.42-.97-2.96-.95l-3.83.02s-1.42-.07-2.35 0c-.19.02-2.67.12-3.48.21-.86.07-3.04.46-3.66.63-3.91 1.07-7.67 2.98-10.57 6.37-3.83 4.46-5.82 9.74-5.6 14.85.16 3.77 1.52 7.09 3.83 9.34 2.18 2.11 4.9 3.21 7.86 3.21.76 0 1.54-.07 2.32-.21 3.85-.72 7.61-3.18 10.9-7.13l6.98-8.44c-.23-.32-.91-1-2.28-.46h-.06zM6.55 35.07c-.16-3.69 1.36-7.62 4.32-11.03 3.5-4.04 6.34-5.23 9.05-5.41 1.26-.09 2.41.09 3.68.72L7.43 38.8c-.53-1.07-.82-2.35-.88-3.72v-.02z" id="svg_2" fill="#ca2829"/><path d="M61.56 25.31c-.31-3.84-1.98-7.27-4.59-9.41-6.23-5.13-13.46-3.39-19.87 4.74l-7.3 8.83-.6.74c.14.21.66.75 2.04.19 1.69-.68 2.86.04 3.42.72l1.03-1.25 4.75-5.74.04-.05c4.88-6.2 9.53-7.57 13.83-4.02 1.56 1.28 2.55 3.37 2.74 5.72.29 3.55-1.11 7.58-4.2 11.1-4.34 4.92-8.52 6.37-12.72 4.86l6.27-7.72-3.35-3.49-9.36 11.53s-1.87 2.55-4.03 4.27c-.23.16-.33.28-.27.54.12.56 1.34.93 2.82.95h3.93s3.33.02 4.03-.04c.14-.02 2.49-.23 2.96-.26.41-.04 2.43-.44 2.9-.56 3.97-1.12 7.18-2.93 10.18-6.57 3.91-4.71 5.84-10.08 5.43-15.12l-.08.04z" id="svg_3" fill="#263b7c"/></g></g></g></svg>