<svg width="1670" height="840" fill="none" xmlns="http://www.w3.org/2000/svg"><path d="M1527 676.198h101c.83 0 1.5.671 1.5 1.5v20a1.5 1.5 0 01-1.5 1.5h-101a1.5 1.5 0 01-1.5-1.5v-20c0-.829.67-1.5 1.5-1.5z" fill="#fff"/><path d="M1527 676.198h101c.83 0 1.5.671 1.5 1.5v20a1.5 1.5 0 01-1.5 1.5h-101a1.5 1.5 0 01-1.5-1.5v-20c0-.829.67-1.5 1.5-1.5z" stroke="#EB5F00"/><path d="M1533.88 692.698v-10.182h2.16v8.407h4.36v1.775h-6.52zm9.81.144c-.49 0-.93-.085-1.31-.254a2.08 2.08 0 01-.9-.76c-.22-.338-.33-.759-.33-1.263 0-.424.08-.781.23-1.069.16-.288.37-.52.64-.696.27-.176.57-.308.92-.398.34-.089.7-.152 1.08-.189.44-.046.8-.089 1.07-.129.27-.043.47-.106.59-.189.13-.083.19-.205.19-.368v-.03c0-.314-.1-.558-.3-.73-.2-.173-.47-.259-.83-.259-.39 0-.69.085-.91.254a1.13 1.13 0 00-.45.626l-1.96-.159c.1-.464.29-.865.59-1.203a2.78 2.78 0 011.12-.786c.47-.185 1.01-.278 1.62-.278.42 0 .83.05 1.21.149.39.1.74.254 1.04.462.31.209.55.478.72.806.18.325.27.714.27 1.168v5.151h-2.01v-1.059h-.06a2.2 2.2 0 01-.49.631c-.21.179-.46.32-.74.423a3.12 3.12 0 01-1 .149zm.6-1.462c.31 0 .59-.061.83-.184.24-.126.42-.295.56-.507.14-.212.2-.452.2-.721v-.81a.938.938 0 01-.27.119c-.11.033-.24.065-.38.095-.15.026-.29.051-.43.074l-.39.055c-.25.036-.46.094-.65.174-.18.08-.33.187-.43.323a.807.807 0 00-.16.497c0 .289.11.509.32.662.21.149.48.223.8.223zm6.09 4.181c-.26 0-.52-.021-.75-.064-.23-.04-.43-.091-.58-.154l.48-1.581c.25.076.47.117.67.124.2.007.38-.04.52-.139.15-.1.27-.269.36-.507l.13-.323-2.74-7.856h2.23l1.58 5.608h.08l1.59-5.608h2.25l-2.97 8.462c-.15.411-.34.769-.58 1.074-.25.308-.55.545-.92.711-.38.169-.82.253-1.35.253zm9.82-2.714c-.77 0-1.44-.164-2-.492a3.41 3.41 0 01-1.3-1.382c-.3-.594-.46-1.281-.46-2.064 0-.788.16-1.478.46-2.068.31-.593.74-1.054 1.3-1.382.56-.331 1.23-.497 2-.497.78 0 1.44.166 2 .497.57.328 1 .789 1.3 1.382.31.59.46 1.28.46 2.068 0 .783-.15 1.47-.46 2.064-.3.59-.73 1.05-1.3 1.382-.56.328-1.22.492-2 .492zm.01-1.641c.35 0 .65-.099.88-.298.24-.202.42-.477.54-.825.12-.348.18-.744.18-1.189 0-.444-.06-.84-.18-1.188s-.3-.623-.54-.825c-.23-.202-.53-.303-.88-.303s-.65.101-.89.303c-.24.202-.42.477-.54.825-.12.348-.18.744-.18 1.188 0 .445.06.841.18 1.189.12.348.3.623.54.825.24.199.54.298.89.298zm9.75-1.76v-4.385h2.11v7.637h-2.03v-1.387h-.08a2.25 2.25 0 01-.86 1.079c-.4.271-.88.407-1.46.407-.51 0-.96-.116-1.34-.348a2.39 2.39 0 01-.91-.989c-.22-.428-.33-.94-.33-1.536v-4.863h2.12v4.485c0 .451.12.807.36 1.069.24.261.56.392.96.392.25 0 .49-.058.72-.174.22-.119.4-.295.53-.527.14-.232.21-.518.21-.86zm7.59-4.385v1.591h-4.6v-1.591h4.6zm-3.55-1.829h2.11v7.119c0 .196.03.348.09.458.06.106.15.18.25.223.11.043.24.065.38.065.1 0 .2-.008.3-.025.1-.02.17-.035.23-.045l.33 1.576a6.99 6.99 0 01-.45.115c-.19.046-.42.074-.7.084-.51.02-.96-.048-1.34-.204a1.86 1.86 0 01-.89-.726c-.21-.328-.32-.742-.31-1.242v-7.398zm7.77 3.18h.9c.62 0 1.18-.005 1.68-.014.5-.01.98-.033 1.43-.07.44-.047.91-.112 1.38-.196l.17 1.484c-.49.084-.97.149-1.44.196-.47.037-.96.065-1.49.084-.51.009-1.09.014-1.73.014h-.9v-1.498zm0-4.732h5.1v1.47h-3.31v4.368h-1.79v-5.838zm1.26 2.38h3.71v1.414h-3.71v-1.414zm7.58-3.08h1.77v7.364h-1.77v-7.364zm-1.5 2.898h2.04v1.512h-2.04v-1.512zm-1.26-2.66h1.73v7.042h-1.73v-7.042zm-4.27 7.56h1.83v1.064h5.14v-1.064h1.83v5.026h-8.8v-5.026zm1.83 2.492v1.036h5.14v-1.036h-5.14zm11.47-3.668h11.75v1.47h-11.75v-1.47zm5.1.798h1.86v2.73h-1.86v-2.73zm-3.74 3.822h9.09v1.498h-9.09v-1.498zm0-2.072h1.86v2.702h-1.86v-2.702zm.14-8.764h1.84v1.316h5.06v-1.316h1.85v5.32h-8.75v-5.32zm1.84 2.716v1.162h5.06v-1.162h-5.06zm18.19-3.15h1.88v13.006h-1.88v-13.006zm-8.21 8.47h1.14c.77 0 1.49-.01 2.17-.028.69-.028 1.35-.07 2.01-.126.65-.066 1.32-.159 2-.28l.19 1.498c-1.04.186-2.07.312-3.09.378a59.4 59.4 0 01-3.28.084h-1.14v-1.526zm-.03-7.364h6.12v5.026h-4.2v2.912h-1.89v-4.382h4.2v-2.058h-4.23v-1.498z" fill="#EB5F00"/><path d="M1317.46 716.828c-.4 0-.77-.097-1.1-.293a2.295 2.295 0 01-.79-.795c-.2-.332-.3-.698-.3-1.099 0-.404.1-.771.3-1.099.2-.331.46-.595.79-.79.33-.199.7-.299 1.1-.299.41 0 .77.1 1.1.299.33.195.59.459.79.79.2.328.3.695.3 1.099 0 .401-.1.767-.3 1.099-.2.331-.46.596-.79.795-.33.196-.69.293-1.1.293zm11.73 1.87v-10.182h1.24v9.088h4.73v1.094h-5.97zm9.97.179c-.49 0-.93-.091-1.32-.274a2.272 2.272 0 01-.94-.8c-.23-.351-.35-.776-.35-1.273 0-.437.09-.792.26-1.064.17-.275.4-.49.69-.646.29-.156.61-.272.96-.348.35-.08.7-.143 1.05-.189.47-.06.85-.104 1.13-.134.3-.033.51-.088.64-.164.14-.077.2-.209.2-.398v-.04c0-.49-.13-.872-.4-1.143-.26-.272-.67-.408-1.21-.408-.56 0-1 .123-1.31.368-.32.245-.55.507-.68.785l-1.11-.397c.2-.464.46-.826.8-1.084.33-.262.7-.444 1.09-.547.4-.106.79-.159 1.17-.159.25 0 .53.03.85.089.32.057.63.174.93.353.3.179.55.45.75.811.2.361.3.845.3 1.452v5.031h-1.18v-1.034h-.06c-.08.165-.21.343-.39.532-.19.189-.44.349-.74.482-.31.132-.69.199-1.13.199zm.18-1.054c.46 0 .85-.091 1.17-.274.32-.182.56-.417.73-.706.16-.288.24-.591.24-.909v-1.074c-.05.059-.16.114-.32.164a5.78 5.78 0 01-.58.124c-.22.033-.43.063-.63.09-.2.023-.37.043-.49.059-.31.04-.59.105-.86.194a1.54 1.54 0 00-.64.393c-.16.172-.23.408-.23.706 0 .407.15.716.45.925.3.205.69.308 1.16.308zm5.94 3.738c-.2 0-.38-.016-.53-.049-.16-.03-.26-.06-.32-.09l.29-1.034c.29.073.54.1.76.08.22-.02.41-.118.58-.294.17-.172.33-.452.47-.84l.22-.596-2.82-7.677h1.27l2.11 6.086h.08l2.11-6.086h1.27l-3.24 8.75a3.54 3.54 0 01-.54.98c-.22.262-.47.456-.75.581-.29.126-.6.189-.96.189zm9.87-2.704c-.69 0-1.3-.164-1.82-.492a3.38 3.38 0 01-1.21-1.377c-.29-.59-.43-1.28-.43-2.069 0-.795.14-1.489.43-2.083a3.37 3.37 0 011.21-1.382c.52-.328 1.13-.492 1.82-.492.69 0 1.29.164 1.81.492.52.328.92.789 1.21 1.382.29.594.44 1.288.44 2.083 0 .789-.15 1.479-.44 2.069-.29.589-.69 1.049-1.21 1.377-.52.328-1.12.492-1.81.492zm0-1.054c.52 0 .95-.134 1.29-.403.34-.268.59-.621.75-1.059.16-.437.24-.911.24-1.422 0-.51-.08-.986-.24-1.427-.16-.44-.41-.797-.75-1.068-.34-.272-.77-.408-1.29-.408-.53 0-.96.136-1.3.408a2.53 2.53 0 00-.75 1.068c-.16.441-.24.917-.24 1.427 0 .511.08.985.24 1.422.17.438.42.791.75 1.059.34.269.77.403 1.3.403zm10.06-2.227v-4.515h1.17v7.637h-1.17v-1.293h-.08c-.18.388-.46.718-.83.989-.38.269-.86.403-1.44.403-.47 0-.9-.104-1.27-.313-.37-.212-.66-.53-.87-.955-.22-.427-.32-.966-.32-1.615v-4.853h1.17v4.773c0 .557.16 1.001.47 1.333.31.331.71.497 1.2.497a2 2 0 00.89-.224c.31-.149.56-.378.77-.686.21-.308.31-.701.31-1.178zm6.64-4.515v.995h-3.95v-.995h3.95zm-2.8-1.829h1.17v7.278c0 .332.05.58.15.746.1.162.22.272.38.328.15.053.32.08.49.08.13 0 .23-.007.32-.02l.19-.04.24 1.054c-.08.03-.19.06-.33.089-.14.034-.32.05-.54.05-.33 0-.66-.071-.98-.214a1.953 1.953 0 01-.78-.651c-.21-.292-.31-.659-.31-1.104v-7.596zm8.68 3.53h.8c.67 0 1.26-.005 1.76-.014.51-.019.99-.052 1.44-.098.45-.056.91-.131 1.37-.224l.13.952c-.48.093-.96.168-1.43.224-.45.046-.94.079-1.47.098-.52.009-1.12.014-1.8.014h-.8v-.952zm0-4.872h4.88v.938h-3.76v4.634h-1.12v-5.572zm.77 2.394h3.97v.924h-3.97v-.924zm8.24-3.15h1.11v7.182h-1.11v-7.182zm-2 3.052h2.4v.966h-2.4v-.966zm-.8-2.814h1.1v6.846h-1.1v-6.846zm-4.39 7.448h1.15v1.4h6.02v-1.4h1.13v4.802h-8.3v-4.802zm1.15 2.324v1.526h6.02v-1.526h-6.02zm18.56-10.024h1.16v12.684h-1.16V707.12zm-5.52.98c.63 0 1.18.182 1.66.546.48.354.86.863 1.13 1.526.28.662.42 1.442.42 2.338 0 .896-.14 1.675-.42 2.338-.27.662-.65 1.176-1.13 1.54-.48.364-1.03.546-1.66.546-.62 0-1.18-.182-1.66-.546-.49-.364-.87-.878-1.15-1.54-.27-.663-.41-1.442-.41-2.338 0-.896.14-1.676.41-2.338.28-.663.66-1.172 1.15-1.526a2.686 2.686 0 011.66-.546zm0 1.036c-.42 0-.79.14-1.1.42-.31.27-.55.662-.73 1.176-.18.504-.27 1.096-.27 1.778 0 .681.09 1.278.27 1.792.18.504.42.896.73 1.176.31.28.68.42 1.1.42.41 0 .77-.14 1.08-.42.32-.28.57-.672.74-1.176.18-.514.27-1.111.27-1.792 0-.682-.09-1.274-.27-1.778-.17-.514-.42-.906-.74-1.176-.31-.28-.67-.42-1.08-.42zm13.12 4.676h11.48v.938h-11.48v-.938zm5.24.476h1.16v2.912h-1.16v-2.912zm-3.78 4.27h8.75v.952h-8.75v-.952zm0-2.492h1.15v2.842h-1.15v-2.842zm.07-8.54h1.15v1.61h6.13v-1.61h1.15v5.068h-8.43v-5.068zm1.15 2.506v1.624h6.13v-1.624h-6.13zm19.44-2.912h1.15v12.684h-1.15V707.12zm-8.5 8.652h1.05c.72 0 1.41-.01 2.08-.028.67-.028 1.35-.075 2.03-.14.69-.066 1.41-.159 2.15-.28l.11.952c-1.13.186-2.21.312-3.22.378-1 .056-2.05.084-3.15.084h-1.05v-.966zm-.02-7.476h5.85v4.522h-4.65v3.318h-1.18v-4.256h4.65v-2.632h-4.67v-.952zm13.18 4.284h6.47v.952h-6.47v-.952zm2.59.756h1.17v2.912h-1.17v-2.912zm-2.59-5.012h6.42v.938h-5.27v3.654h-1.15v-4.592zm8.15-1.204h1.16v12.684h-1.16V707.12zm-8.93 9.94l-.15-.98c.83 0 1.71-.005 2.64-.014.93-.019 1.88-.052 2.84-.098.96-.056 1.89-.136 2.78-.238l.09.854c-.92.14-1.86.247-2.82.322-.96.065-1.89.107-2.8.126-.91.018-1.77.028-2.58.028zm16.03-8.96c.61 0 1.16.182 1.64.546.47.354.84.863 1.1 1.526.27.662.41 1.442.41 2.338 0 .896-.14 1.675-.41 2.338-.26.662-.63 1.176-1.1 1.54a2.65 2.65 0 01-1.64.546 2.67 2.67 0 01-1.64-.546c-.48-.364-.85-.878-1.12-1.54-.26-.663-.39-1.442-.39-2.338 0-.896.13-1.676.39-2.338.27-.663.64-1.172 1.12-1.526a2.67 2.67 0 011.64-.546zm0 1.036c-.4 0-.76.14-1.07.42-.3.27-.55.662-.72 1.176-.17.504-.26 1.096-.26 1.778 0 .681.09 1.278.26 1.792.17.504.42.896.72 1.176.31.28.67.42 1.07.42.41 0 .77-.14 1.08-.42.3-.28.54-.672.71-1.176.18-.514.27-1.111.27-1.792 0-.682-.09-1.274-.27-1.778-.17-.514-.41-.906-.71-1.176-.31-.28-.67-.42-1.08-.42zm5.89-2.016h1.15v12.684h-1.15V707.12zm-3.12 4.83h3.64v.938h-3.64v-.938zm11.2 6.748v-10.182h1.24v9.088h4.73v1.094h-5.97zm9.97.179c-.49 0-.93-.091-1.32-.274-.4-.185-.71-.452-.94-.8-.23-.351-.35-.776-.35-1.273 0-.437.09-.792.26-1.064.17-.275.4-.49.69-.646.29-.156.61-.272.96-.348.35-.08.7-.143 1.05-.189.47-.06.85-.104 1.13-.134.3-.033.51-.088.64-.164.14-.077.2-.209.2-.398v-.04c0-.49-.13-.872-.4-1.143-.26-.272-.67-.408-1.21-.408-.56 0-1 .123-1.31.368-.32.245-.55.507-.68.785l-1.11-.397c.2-.464.46-.826.8-1.084.33-.262.7-.444 1.09-.547.4-.106.79-.159 1.17-.159.25 0 .53.03.85.089.32.057.63.174.93.353.3.179.55.45.75.811.2.361.3.845.3 1.452v5.031h-1.18v-1.034h-.06c-.08.165-.21.343-.39.532-.19.189-.44.349-.74.482-.31.132-.69.199-1.13.199zm.18-1.054c.46 0 .85-.091 1.17-.274.32-.182.56-.417.73-.706.16-.288.24-.591.24-.909v-1.074c-.05.059-.16.114-.32.164a5.78 5.78 0 01-.58.124c-.22.033-.43.063-.63.09-.2.023-.37.043-.49.059-.31.04-.59.105-.86.194a1.54 1.54 0 00-.64.393c-.16.172-.23.408-.23.706 0 .407.15.716.45.925.3.205.69.308 1.16.308zm5.94 3.738c-.2 0-.38-.016-.53-.049-.16-.03-.26-.06-.32-.09l.29-1.034c.29.073.54.1.76.08.22-.02.41-.118.58-.294.17-.172.33-.452.47-.84l.22-.596-2.82-7.677h1.27l2.11 6.086h.08l2.11-6.086h1.27l-3.24 8.75a3.54 3.54 0 01-.54.98c-.22.262-.47.456-.75.581-.29.126-.6.189-.96.189zm9.87-2.704c-.69 0-1.3-.164-1.82-.492a3.38 3.38 0 01-1.21-1.377c-.29-.59-.43-1.28-.43-2.069 0-.795.14-1.489.43-2.083a3.37 3.37 0 011.21-1.382c.52-.328 1.13-.492 1.82-.492.69 0 1.29.164 1.81.492.52.328.92.789 1.21 1.382.29.594.44 1.288.44 2.083 0 .789-.15 1.479-.44 2.069-.29.589-.69 1.049-1.21 1.377-.52.328-1.12.492-1.81.492zm0-1.054c.52 0 .95-.134 1.29-.403.34-.268.59-.621.75-1.059.16-.437.24-.911.24-1.422 0-.51-.08-.986-.24-1.427-.16-.44-.41-.797-.75-1.068-.34-.272-.77-.408-1.29-.408-.53 0-.96.136-1.3.408a2.53 2.53 0 00-.75 1.068c-.16.441-.24.917-.24 1.427 0 .511.08.985.24 1.422.17.438.42.791.75 1.059.34.269.77.403 1.3.403zm10.06-2.227v-4.515h1.17v7.637h-1.17v-1.293h-.08c-.18.388-.46.718-.83.989-.38.269-.86.403-1.44.403-.47 0-.9-.104-1.27-.313-.37-.212-.66-.53-.87-.955-.22-.427-.32-.966-.32-1.615v-4.853h1.17v4.773c0 .557.16 1.001.47 1.333.31.331.71.497 1.2.497a2 2 0 00.89-.224c.31-.149.56-.378.77-.686.21-.308.31-.701.31-1.178zm6.64-4.515v.995h-3.95v-.995h3.95zm-2.8-1.829h1.17v7.278c0 .332.05.58.15.746.1.162.22.272.38.328.15.053.31.08.49.08.13 0 .23-.007.32-.02l.19-.04.24 1.054c-.08.03-.19.06-.33.089-.14.034-.32.05-.54.05-.33 0-.66-.071-.98-.214a1.953 1.953 0 01-.78-.651c-.21-.292-.31-.659-.31-1.104v-7.596zm9.86 5.882c.91 0 1.69.093 2.34.28.67.186 1.17.452 1.53.798.36.345.54.765.54 1.26 0 .476-.18.891-.54 1.246-.36.345-.86.606-1.53.784-.65.186-1.43.28-2.34.28-.89 0-1.67-.094-2.33-.28-.67-.178-1.17-.439-1.53-.784-.35-.355-.53-.77-.53-1.246 0-.495.18-.915.53-1.26.36-.346.86-.612 1.53-.798.66-.187 1.44-.28 2.33-.28zm0 .896c-.66 0-1.23.06-1.72.182-.48.112-.86.275-1.13.49-.26.214-.39.471-.39.77 0 .28.13.527.39.742.27.214.65.378 1.13.49.49.112 1.06.168 1.72.168.68 0 1.26-.056 1.74-.168.49-.112.86-.276 1.12-.49.27-.215.41-.462.41-.742 0-.299-.14-.556-.41-.77-.26-.215-.63-.378-1.12-.49-.48-.122-1.06-.182-1.74-.182zm-4.31-8.246h8.15v.938h-8.15v-.938zm-1.34 5.25h11.41v.952h-11.41v-.952zm4.69-2.436h1.15v2.716h-1.15v-2.716zm4.13-2.814h1.15v1.064c0 .513-.02 1.04-.05 1.582-.02.532-.13 1.124-.3 1.778l-1.14-.126c.17-.654.27-1.232.3-1.736.02-.504.04-1.004.04-1.498v-1.064zm12.7-.644h1.17v9.254h-1.17v-9.254zm.81 3.836h2.22v.98h-2.22v-.98zm-4.27-2.856h1.23c0 1.092-.24 2.081-.73 2.968-.47.886-1.16 1.656-2.04 2.31-.89.653-1.94 1.171-3.15 1.554l-.49-.938c1.06-.336 1.98-.77 2.76-1.302.77-.532 1.37-1.144 1.79-1.834.42-.691.63-1.438.63-2.24v-.518zm-4.66 0h5.26v.966h-5.26v-.966zm1.4 10.458h8.44v.952h-8.44v-.952zm0-3.122h1.16v3.5h-1.16v-3.5zm20.14-8.316h1.16v12.684h-1.16V707.12zm-5.52.98c.63 0 1.18.182 1.66.546.48.354.86.863 1.13 1.526.28.662.42 1.442.42 2.338 0 .896-.14 1.675-.42 2.338-.27.662-.65 1.176-1.13 1.54-.48.364-1.03.546-1.66.546-.62 0-1.18-.182-1.66-.546-.49-.364-.87-.878-1.15-1.54-.27-.663-.41-1.442-.41-2.338 0-.896.14-1.676.41-2.338.28-.663.66-1.172 1.15-1.526a2.686 2.686 0 011.66-.546zm0 1.036c-.42 0-.78.14-1.1.42-.31.27-.55.662-.73 1.176-.18.504-.27 1.096-.27 1.778 0 .681.09 1.278.27 1.792.18.504.42.896.73 1.176.32.28.68.42 1.1.42.42 0 .77-.14 1.08-.42.32-.28.57-.672.74-1.176.18-.514.27-1.111.27-1.792 0-.682-.09-1.274-.27-1.778-.17-.514-.42-.906-.74-1.176-.31-.28-.66-.42-1.08-.42zm19.12-.21h3.55v.896h-3.55v-.896zm0 2.296h3.55v.91h-3.55v-.91zm3.27-4.102h1.15v6.608h-1.15v-6.608zm-7 7.224h8.15v3.01h-6.97v1.946h-1.15v-2.828h6.97v-1.204h-7v-.924zm.03 4.34h8.6v.938h-8.6v-.938zm-1.66-10.976h1.16v1.806h3.41v-1.806h1.15v5.516h-5.72v-5.516zm1.16 2.716v1.862h3.41v-1.862h-3.41zm12.55 2.618h8.7v.938h-8.7v-.938zm-1.45 4.186h11.48v.966h-11.48v-.966zm5.14-3.78h1.14v4.158h-1.14v-4.158zm-3.69-5.32h8.57v.966h-7.4v4.368h-1.17v-5.334zm11.43 9.128h11.48v.966h-11.48v-.966zm5.13-2.702h1.15v3.108h-1.15v-3.108zm-3.73-6.496h8.65v3.836h-7.48v2.534h-1.15v-3.458h7.48v-1.96h-7.5v-.952zm.02 5.88h8.92v.952h-8.92v-.952zm18.04-6.02h.92v1.694a5.08 5.08 0 01-.35 1.862 5.428 5.428 0 01-1 1.666 4.5 4.5 0 01-1.59 1.162l-.63-.896c.55-.243 1.03-.57 1.42-.98.4-.42.7-.878.91-1.372.21-.495.32-.976.32-1.442v-1.694zm.2 0h.92v1.694c0 .457.1.914.29 1.372.21.448.5.854.89 1.218.39.354.85.639 1.38.854l-.61.896a4.374 4.374 0 01-1.56-1.036 4.736 4.736 0 01-.98-1.526 4.893 4.893 0 01-.33-1.778v-1.694zm6.72-.784h1.1v7.812h-1.1v-7.812zm-2.02 3.388h2.38v.952h-2.38v-.952zm-.7-3.15h1.09v7.168h-1.09v-7.168zm-.34 7.854c.87 0 1.62.088 2.24.266.64.177 1.13.438 1.47.784.35.336.52.742.52 1.218s-.17.882-.52 1.218c-.34.345-.83.606-1.47.784-.62.177-1.37.266-2.24.266-.86 0-1.62-.089-2.25-.266-.64-.178-1.13-.439-1.47-.784a1.64 1.64 0 01-.5-1.218c0-.476.16-.882.5-1.218.34-.346.83-.607 1.47-.784.63-.178 1.39-.266 2.25-.266zm0 .896c-.95 0-1.7.121-2.25.364-.55.242-.83.578-.83 1.008 0 .429.28.765.83 1.008.55.242 1.3.364 2.25.364.64 0 1.18-.056 1.64-.168.46-.103.81-.257 1.05-.462.25-.206.38-.453.38-.742 0-.43-.28-.766-.83-1.008-.54-.243-1.28-.364-2.24-.364zm9.56-8.288h.97v1.302c0 .821-.15 1.577-.45 2.268-.29.69-.7 1.297-1.23 1.82-.52.513-1.15.905-1.88 1.176l-.61-.938a4.987 4.987 0 001.69-.994c.48-.43.85-.929 1.11-1.498.27-.579.4-1.19.4-1.834v-1.302zm.21 0h.94v1.26c0 .597.13 1.162.39 1.694.27.532.62 1.003 1.08 1.414.47.401 1.01.704 1.63.91l-.63.91a5.533 5.533 0 01-1.8-1.106 4.981 4.981 0 01-1.19-1.694 5.348 5.348 0 01-.42-2.128v-1.26zm5.86-.714h1.16v7.49h-1.16v-7.49zm-3.01 7.868c1.3 0 2.33.21 3.08.63.75.42 1.13 1.008 1.13 1.764 0 .746-.38 1.33-1.13 1.75-.75.42-1.78.63-3.08.63-1.31 0-2.34-.21-3.1-.63-.74-.42-1.12-1.004-1.12-1.75 0-.756.38-1.344 1.12-1.764.76-.42 1.79-.63 3.1-.63zm0 .924c-.64 0-1.18.06-1.64.182-.46.112-.81.28-1.07.504-.24.214-.36.476-.36.784 0 .298.12.56.36.784.26.214.61.382 1.07.504.46.112 1 .168 1.64.168.64 0 1.19-.056 1.63-.168.46-.122.81-.29 1.05-.504.26-.224.38-.486.38-.784 0-.308-.12-.57-.38-.784-.24-.224-.59-.392-1.05-.504-.44-.122-.99-.182-1.63-.182zm.25-6.118h2.99v.966h-2.99v-.966zm10.01 1.694h1.17v2.212h-1.17v-2.212zm5.6-4.354h1.15v7.686h-1.15v-7.686zm-9 7.154l-.14-.924c.77 0 1.61-.005 2.53-.014.92-.019 1.86-.056 2.81-.112.96-.056 1.89-.15 2.79-.28l.07.826c-.92.158-1.85.275-2.8.35-.95.065-1.88.107-2.77.126-.9.018-1.73.028-2.49.028zm1.87 1.162h8.28v4.172h-8.28v-4.172zm7.16.938h-6.02v2.282h6.02v-2.282zm-8.07-5.516h6.19v.952h-6.19v-.952zm0-3.052h6.09v.952h-4.93v2.548h-1.16v-3.5zm-271.77 33.008c-.4 0-.77-.097-1.1-.293-.33-.199-.6-.464-.8-.795a2.177 2.177 0 01-.29-1.099c0-.404.1-.771.29-1.099.2-.331.47-.595.8-.79.33-.199.7-.299 1.1-.299.4 0 .77.1 1.1.299.33.195.59.459.79.79.2.328.3.695.3 1.099 0 .401-.1.767-.3 1.099-.2.331-.46.596-.79.795-.33.196-.7.293-1.1.293zm20.42-9.708h1.17v12.67h-1.17v-12.67zm-3.71 1.372h1.15c0 .914-.11 1.796-.33 2.646a8.844 8.844 0 01-1.03 2.422c-.46.756-1.07 1.46-1.82 2.114-.74.653-1.65 1.236-2.71 1.75l-.62-.938c1.22-.588 2.23-1.274 3.03-2.058.79-.784 1.38-1.657 1.76-2.618.38-.971.57-2.016.57-3.136v-.182zm-4.77 0h5.26v.938h-5.26v-.938zm17.11-.168h1.02v.378c0 .532-.13 1.026-.39 1.484a4.17 4.17 0 01-1.08 1.204c-.45.345-.97.634-1.55.868-.58.224-1.2.387-1.85.49l-.44-.938c.45-.056.89-.15 1.31-.28.42-.14.82-.304 1.17-.49.36-.196.67-.416.94-.658.27-.252.48-.518.63-.798.16-.28.24-.574.24-.882v-.378zm.47 0h1.03v.378c0 .308.07.602.22.882.16.28.37.541.64.784.27.242.59.462.94.658.37.196.76.364 1.18.504.42.13.85.224 1.3.28l-.43.938a8.705 8.705 0 01-1.85-.504 6.462 6.462 0 01-1.56-.868c-.44-.355-.8-.756-1.07-1.204a2.79 2.79 0 01-.4-1.47v-.378zm-4.39-.588h9.35v.952h-9.35v-.952zm.42 10.822h8.69v.952h-8.69v-.952zm0-2.632h1.16v3.01h-1.16v-3.01zm-1.47-1.974h11.46v.952h-11.46v-.952zm5.14-2.1h1.14v2.492h-1.14v-2.492zm14.8-3.43h.95v1.022c0 .774-.15 1.498-.45 2.17-.29.662-.7 1.241-1.22 1.736a5.26 5.26 0 01-1.85 1.106l-.61-.896a4.966 4.966 0 001.66-.966c.48-.42.85-.896 1.11-1.428.27-.542.41-1.116.41-1.722v-1.022zm.21 0h.95v1.022c0 .55.12 1.082.38 1.596.25.513.6.966 1.06 1.358.47.392 1.01.695 1.62.91l-.58.91c-.7-.252-1.3-.612-1.82-1.078a4.976 4.976 0 01-1.61-3.696v-1.022zm-3.04-.42h6.77v.952h-6.77v-.952zm8.37-.882h1.16v7.63h-1.16v-7.63zm.84 3.332h2.18v.98h-2.18v-.98zm-7.91 4.97h8.23v4.368h-1.16v-3.416h-7.07v-.952zm17.64-5.278h3.4v.952h-3.4v-.952zm-2.9-2.436c.63 0 1.18.126 1.67.378.49.242.88.583 1.16 1.022.28.438.42.947.42 1.526 0 .578-.14 1.092-.42 1.54-.28.438-.67.784-1.16 1.036-.49.242-1.04.364-1.67.364-.63 0-1.2-.122-1.69-.364a2.917 2.917 0 01-1.15-1.036 2.846 2.846 0 01-.42-1.54c0-.579.14-1.088.42-1.526.28-.439.66-.78 1.15-1.022.49-.252 1.06-.378 1.69-.378zm0 .98c-.42 0-.79.084-1.12.252a1.858 1.858 0 00-1.04 1.694c0 .382.1.723.28 1.022.19.289.44.518.76.686.33.168.7.252 1.12.252.41 0 .78-.084 1.09-.252a1.9 1.9 0 00.77-.686c.19-.299.28-.64.28-1.022 0-.383-.09-.719-.28-1.008a1.767 1.767 0 00-.77-.686 2.272 2.272 0 00-1.09-.252zm5.8-1.568h1.16v6.804h-1.16v-6.804zm-6.95 7.434h1.15v1.582h5.8v-1.582h1.16v5.068h-8.11v-5.068zm1.15 2.506v1.61h5.8v-1.61h-5.8zm16.63-2.394h1.17v2.058h-1.17v-2.058zm5.32-7.546h1.17v12.67h-1.17v-12.67zm.8 5.376h2.34v.98h-2.34v-.98zm-9.36 4.886l-.19-.98c.77 0 1.6-.005 2.5-.014.9-.019 1.83-.056 2.77-.112s1.85-.145 2.73-.266l.08.854c-.9.158-1.83.275-2.77.35-.93.074-1.84.121-2.72.14-.86.018-1.67.028-2.4.028zm.04-8.722h7.56v.938h-7.56v-.938zm3.79 1.666c.59 0 1.11.098 1.56.294.44.196.79.471 1.05.826.25.345.37.756.37 1.232 0 .466-.12.877-.37 1.232-.26.354-.61.63-1.05.826-.45.186-.97.28-1.56.28-.59 0-1.11-.094-1.57-.28a2.57 2.57 0 01-1.05-.826 2.148 2.148 0 01-.36-1.232c0-.476.12-.887.36-1.232.26-.355.61-.63 1.05-.826.46-.196.98-.294 1.57-.294zm0 .91c-.57 0-1.02.13-1.37.392-.34.261-.52.611-.52 1.05 0 .429.18.774.52 1.036.35.261.8.392 1.37.392.56 0 1.02-.131 1.36-.392.35-.262.52-.607.52-1.036 0-.439-.17-.789-.52-1.05-.34-.262-.8-.392-1.36-.392zm-.59-4.088h1.17v2.128h-1.17v-2.128zm15.68 2.198h3.53v.966h-3.53v-.966zm0 2.716h3.56v.952h-3.56v-.952zm-5.48-3.836h5.76v5.922h-5.76v-5.922zm4.63.938h-3.5v4.06h3.5v-4.06zm4.03-2.03h1.16v9.24h-1.16v-9.24zm-6.97 11.424h8.43v.952h-8.43v-.952zm0-3.01h1.16v3.444h-1.16v-3.444zm11.17-7.042h5.71v.952h-5.71v-.952zm1.97 3.626h1.15v4.284h-1.15v-4.284zm3.27-3.626h1.14v.686c0 .513-.01 1.185-.05 2.016-.03.83-.13 1.834-.31 3.01l-1.15-.098c.19-1.148.3-2.128.32-2.94.03-.812.05-1.475.05-1.988v-.686zm2.73-1.386h1.16v12.67h-1.16v-12.67zm.84 5.292h2.33v.994h-2.33v-.994zm-9.37 4.606l-.14-.966c.76-.01 1.58-.019 2.48-.028.9-.019 1.82-.056 2.74-.112.94-.056 1.83-.136 2.68-.238l.07.868c-.88.14-1.78.242-2.71.308-.91.065-1.81.112-2.68.14-.88.018-1.69.028-2.44.028zm16.8-3.654h11.46v.938h-11.46v-.938zm5.16-2.03h1.13v2.422h-1.13v-2.422zm-3.71-.364h8.66v.938h-8.66v-.938zm0-3.262h8.58v.924h-7.44v2.898h-1.14v-3.822zm4.27 7.504c1.35 0 2.41.2 3.17.602.77.392 1.15.952 1.15 1.68s-.38 1.288-1.15 1.68c-.76.401-1.82.602-3.17.602-1.36 0-2.42-.201-3.2-.602-.76-.392-1.14-.952-1.14-1.68s.38-1.288 1.14-1.68c.78-.402 1.84-.602 3.2-.602zm-.02.91c-.65 0-1.22.056-1.69.168-.47.102-.83.256-1.08.462-.25.196-.38.443-.38.742 0 .289.13.536.38.742.25.205.61.359 1.08.462.47.112 1.04.168 1.69.168.67 0 1.24-.056 1.71-.168.48-.103.84-.257 1.09-.462.25-.206.38-.453.38-.742 0-.299-.13-.546-.38-.742-.25-.206-.61-.36-1.09-.462-.47-.112-1.04-.168-1.71-.168zm10.74-8.54c.63 0 1.19.121 1.68.364.49.233.88.56 1.16.98.28.42.42.91.42 1.47 0 .55-.14 1.04-.42 1.47-.28.42-.67.746-1.16.98-.49.233-1.05.35-1.68.35-.63 0-1.19-.117-1.68-.35a2.88 2.88 0 01-1.18-.98c-.28-.43-.42-.92-.42-1.47 0-.56.14-1.05.42-1.47.29-.42.68-.747 1.18-.98.49-.243 1.05-.364 1.68-.364zm0 .966c-.41 0-.78.079-1.11.238-.32.149-.57.364-.75.644-.19.28-.28.602-.28.966s.09.686.28.966c.18.27.43.485.75.644.33.158.7.238 1.11.238.41 0 .77-.08 1.09-.238.33-.159.58-.374.77-.644.19-.28.28-.602.28-.966s-.09-.686-.28-.966a1.8 1.8 0 00-.77-.644 2.407 2.407 0 00-1.09-.238zm5.65-1.428h1.17v6.482h-1.17v-6.482zm-7.02 7.112h8.19v3.066h-7.03v1.904h-1.12v-2.772h7v-1.274h-7.04v-.924zm.04 4.452h8.58v.938h-8.58v-.938zm19.23-11.564h1.15v12.67h-1.15v-12.67zm.88 5.208h2.34v.98h-2.34v-.98zm-9.53-3.178h7.46v.952h-7.46v-.952zm3.79 1.988c.6 0 1.13.126 1.59.378.46.252.83.597 1.09 1.036.27.429.4.928.4 1.498 0 .569-.13 1.073-.4 1.512-.26.438-.63.784-1.09 1.036-.46.242-.99.364-1.59.364-.59 0-1.12-.122-1.59-.364a2.887 2.887 0 01-1.09-1.036 2.83 2.83 0 01-.41-1.512c0-.57.14-1.069.41-1.498a2.88 2.88 0 011.09-1.036c.47-.252 1-.378 1.59-.378zm0 .966c-.38 0-.72.084-1.02.252-.3.168-.53.396-.71.686-.17.289-.25.625-.25 1.008 0 .382.08.723.25 1.022.18.289.41.518.71.686.3.158.64.238 1.02.238s.71-.08 1.01-.238c.3-.168.53-.397.7-.686.18-.299.27-.64.27-1.022 0-.383-.09-.719-.27-1.008-.17-.29-.4-.518-.7-.686-.3-.168-.63-.252-1.01-.252zm-.6-4.83h1.16v2.296h-1.16v-2.296zm19.41-.154h1.12v12.67h-1.12v-12.67zm-5.51 5.18h3.2v.938h-3.2v-.938zm2.87-4.844h1.1v11.69h-1.1v-11.69zm-2.71 1.274h1.12c0 1.101-.16 2.16-.48 3.178a8.527 8.527 0 01-1.51 2.828c-.7.868-1.62 1.642-2.76 2.324l-.67-.84c.99-.598 1.8-1.27 2.44-2.016a7.722 7.722 0 001.4-2.45c.3-.887.46-1.825.46-2.814v-.21zm-3.75 0h4.18v.952h-4.18v-.952zm16.27 8.47h11.48v.966h-11.48v-.966zm5.13-3.276h1.15v3.542h-1.15v-3.542zm-3.79-5.754h8.74v5.964h-8.74v-5.964zm7.6.938h-6.47v4.102h6.47v-4.102zm3.94 4.41h11.45v.938h-11.45v-.938zm1.44-2.338h8.69v.952h-8.69v-.952zm0-3.514h8.58v.938h-7.42v2.884h-1.16v-3.822zm.03 10.878h8.76v.952h-8.76v-.952zm0-2.744h1.14v2.996h-1.14V739.8zm24.57-8.68h1.16v12.67h-1.16v-12.67zm-3.71 1.372h1.15c0 .914-.12 1.796-.34 2.646a9.132 9.132 0 01-1.02 2.422c-.47.756-1.08 1.46-1.82 2.114-.75.653-1.65 1.236-2.72 1.75l-.61-.938c1.22-.588 2.23-1.274 3.02-2.058.79-.784 1.38-1.657 1.76-2.618.39-.971.58-2.016.58-3.136v-.182zm-4.78 0h5.27v.938h-5.27v-.938zm13.69 2.142h8.59v.952h-8.59v-.952zm0-3.262h1.15v3.682h-1.15v-3.682zm-1.55 5.684h11.45v.952h-11.45v-.952zm5.71 2.072c1.36 0 2.42.2 3.18.602.77.401 1.15.97 1.15 1.708 0 .728-.38 1.292-1.15 1.694-.76.401-1.82.602-3.18.602-1.35 0-2.41-.201-3.19-.602-.76-.402-1.15-.966-1.15-1.694 0-.738.39-1.307 1.15-1.708.78-.402 1.84-.602 3.19-.602zm-.01.924c-.65 0-1.22.056-1.7.168-.46.102-.82.256-1.07.462a.92.92 0 00-.38.756c0 .289.12.541.38.756.25.205.61.364 1.07.476.48.102 1.05.154 1.7.154.67 0 1.24-.052 1.71-.154.47-.112.84-.271 1.09-.476.25-.215.38-.467.38-.756 0-.299-.13-.551-.38-.756-.25-.206-.62-.36-1.09-.462-.47-.112-1.04-.168-1.71-.168zm14.21-7.84h.95v2.268c0 .7-.09 1.386-.26 2.058a8.071 8.071 0 01-.73 1.89c-.32.588-.69 1.11-1.12 1.568-.43.457-.9.821-1.4 1.092l-.72-.938c.47-.234.9-.546 1.29-.938a6.8 6.8 0 001.05-1.372c.3-.514.53-1.055.69-1.624a6.13 6.13 0 00.25-1.736v-2.268zm.21 0h.94v2.268c0 .56.08 1.115.24 1.666.16.55.4 1.068.7 1.554.3.485.64.919 1.02 1.302.39.382.81.686 1.26.91l-.72.924a5.193 5.193 0 01-1.37-1.036 7.971 7.971 0 01-1.09-1.498 8.676 8.676 0 01-.73-1.82 7.92 7.92 0 01-.25-2.002v-2.268zm5.26-1.092h1.17v12.67h-1.17v-12.67zm.9 5.124h2.34v.994h-2.34v-.994zm6.23-.826h1.16v2.38h-1.16v-2.38zm4.65 0h1.15v2.38h-1.15v-2.38zm-7.46 1.96h11.43v.938h-11.43v-.938zm5.71 1.904c1.35 0 2.41.191 3.18.574.76.382 1.14.933 1.14 1.652 0 .728-.38 1.283-1.14 1.666-.77.392-1.83.588-3.18.588-1.36 0-2.42-.196-3.19-.588-.77-.383-1.15-.938-1.15-1.666 0-.719.38-1.27 1.15-1.652.77-.383 1.83-.574 3.19-.574zm0 .896c-.66 0-1.23.051-1.71.154-.47.102-.83.256-1.08.462-.25.196-.38.434-.38.714 0 .298.13.55.38.756.25.196.61.345 1.08.448.48.102 1.05.154 1.71.154.66 0 1.23-.052 1.69-.154.48-.103.84-.252 1.09-.448.26-.206.38-.458.38-.756 0-.28-.12-.518-.38-.714-.25-.206-.61-.36-1.09-.462-.46-.103-1.03-.154-1.69-.154zm0-8.82c.91 0 1.7.093 2.36.28.68.186 1.19.457 1.54.812.37.345.55.765.55 1.26 0 .485-.18.905-.55 1.26-.35.354-.86.625-1.54.812-.66.177-1.45.266-2.36.266-.92 0-1.71-.089-2.38-.266-.66-.187-1.18-.458-1.54-.812a1.7 1.7 0 01-.53-1.26c0-.495.17-.915.53-1.26.36-.355.88-.626 1.54-.812.67-.187 1.46-.28 2.38-.28zm0 .91c-.66 0-1.24.056-1.74.168-.48.112-.86.275-1.13.49-.26.214-.39.476-.39.784 0 .298.13.56.39.784.27.214.65.378 1.13.49.5.112 1.08.168 1.74.168.68 0 1.26-.056 1.75-.168.48-.112.86-.276 1.12-.49.26-.224.39-.486.39-.784 0-.308-.13-.57-.39-.784-.26-.215-.64-.378-1.12-.49-.49-.112-1.07-.168-1.75-.168zm19.67-1.148h1.16v12.656h-1.16V731.12zm.85 5.138h2.33v.966h-2.33v-.966zm-4.08-3.78h1.13c0 1.204-.2 2.356-.59 3.458-.39 1.092-1.01 2.104-1.85 3.038-.84.924-1.94 1.726-3.31 2.408l-.65-.896c1.18-.588 2.15-1.274 2.93-2.058.78-.794 1.37-1.671 1.75-2.632.39-.971.59-2.016.59-3.136v-.182zm-4.68 0h5.26v.966h-5.26v-.966zm13.78 2.156h8.58v.952h-8.58v-.952zm0-3.262h1.14v3.682h-1.14v-3.682zm-1.56 5.684h11.45v.952h-11.45v-.952zm5.71 2.072c1.36 0 2.42.2 3.18.602.77.401 1.15.97 1.15 1.708 0 .728-.38 1.292-1.15 1.694-.76.401-1.82.602-3.18.602-1.35 0-2.41-.201-3.19-.602-.76-.402-1.15-.966-1.15-1.694 0-.738.39-1.307 1.15-1.708.78-.402 1.84-.602 3.19-.602zm-.01.924c-.65 0-1.22.056-1.69.168-.47.102-.83.256-1.08.462-.25.205-.38.457-.38.756 0 .289.13.541.38.756.25.205.61.364 1.08.476.47.102 1.04.154 1.69.154.67 0 1.24-.052 1.71-.154.47-.112.84-.271 1.09-.476.25-.215.38-.467.38-.756 0-.299-.13-.551-.38-.756-.25-.206-.62-.36-1.09-.462-.47-.112-1.04-.168-1.71-.168z" fill="#000"/><path d="M582 615.458h206a1.5 1.5 0 011.5 1.5v20a1.5 1.5 0 01-1.5 1.5H582a1.5 1.5 0 01-1.5-1.5v-20a1.5 1.5 0 011.5-1.5z" fill="#fff"/><path d="M582 615.458h206a1.5 1.5 0 011.5 1.5v20a1.5 1.5 0 01-1.5 1.5H582a1.5 1.5 0 01-1.5-1.5v-20a1.5 1.5 0 011.5-1.5z" stroke="#EB5F00"/><path d="M591.465 627.8h1.862v5.404h-1.862V627.8zm4.522 0h1.862v5.404h-1.862V627.8zm-5.74-3.052h8.904v1.484h-8.904v-1.484zm-1.484 2.758h11.732v1.512h-11.732v-1.512zm1.484-6.664h8.764v1.484h-6.86v3.136h-1.904v-4.62zm20.089-.602h1.862v6.468h-1.862v-6.468zm-2.59 2.562h3.29v1.484h-3.29v-1.484zm-2.8-2.226c.653 0 1.236.131 1.75.392.513.252.919.602 1.218 1.05.298.448.448.966.448 1.554 0 .579-.15 1.092-.448 1.54a3.148 3.148 0 01-1.218 1.064c-.514.252-1.097.378-1.75.378-.654 0-1.242-.126-1.764-.378a3.134 3.134 0 01-1.218-1.064 2.709 2.709 0 01-.448-1.54c0-.588.149-1.106.448-1.554a3.031 3.031 0 011.218-1.05c.522-.261 1.11-.392 1.764-.392zm0 1.512c-.318 0-.602.061-.854.182-.252.112-.448.28-.588.504-.14.215-.21.476-.21.784 0 .317.07.588.21.812.14.224.336.397.588.518.252.112.532.168.84.168.326 0 .611-.056.854-.168.242-.121.434-.294.574-.518.14-.224.21-.495.21-.812 0-.308-.07-.569-.21-.784a1.313 1.313 0 00-.574-.504 1.86 1.86 0 00-.84-.182zm-1.316 5.166h8.568v3.542h-6.706v1.582h-1.834v-2.926h6.706v-.756h-6.734v-1.442zm.028 4.354h8.918v1.456h-8.918v-1.456zm10.302-1.428h11.746v1.512H613.96v-1.512zm4.928-2.856h1.848v3.22h-1.848v-3.22zm-3.696-6.132h9.226v6.37h-9.226v-6.37zm7.392 1.47h-5.558v3.416h5.558v-3.416zm5.347 3.556h9.114v1.47h-9.114v-1.47zm-1.372 3.906h11.746v1.512h-11.746v-1.512zm1.372-8.834h9.016v1.512h-7.168v4.032h-1.848v-5.544zm14.201 5.04h11.718v1.47h-11.718v-1.47zm4.928-1.946h1.862v2.52h-1.862v-2.52zm-3.514-.588h8.974v1.456h-8.974v-1.456zm0-3.01h8.904v1.47h-7.056v2.464h-1.848v-3.934zm4.396 7.658c1.4 0 2.502.21 3.304.63.803.411 1.204.999 1.204 1.764 0 .756-.401 1.339-1.204 1.75-.802.42-1.904.63-3.304.63s-2.501-.21-3.304-.63c-.793-.411-1.19-.994-1.19-1.75 0-.765.397-1.353 1.19-1.764.803-.42 1.904-.63 3.304-.63zm0 1.414c-.578 0-1.064.037-1.456.112-.382.065-.672.173-.868.322-.196.14-.294.317-.294.532 0 .224.098.411.294.56.196.14.486.247.868.322.392.065.878.098 1.456.098a8.83 8.83 0 001.442-.098c.392-.075.686-.182.882-.322a.678.678 0 00.294-.56c0-.215-.098-.392-.294-.532-.196-.149-.49-.257-.882-.322-.382-.075-.863-.112-1.442-.112zm9.925-8.624h1.526v1.876c0 .84-.074 1.647-.224 2.422a9.527 9.527 0 01-.686 2.156 6.477 6.477 0 01-1.162 1.764 5.259 5.259 0 01-1.666 1.204l-1.106-1.54a4.782 4.782 0 001.47-.994c.42-.42.766-.896 1.036-1.428a7.19 7.19 0 00.602-1.722c.14-.607.21-1.227.21-1.862v-1.876zm.364 0h1.512v1.876c0 .607.066 1.199.196 1.778.131.579.327 1.125.588 1.638a5.68 5.68 0 001.008 1.372c.411.392.892.705 1.442.938l-1.078 1.512a5.397 5.397 0 01-1.638-1.162 6.412 6.412 0 01-1.134-1.68 9.362 9.362 0 01-.672-2.072 11.85 11.85 0 01-.224-2.324v-1.876zm5.376-1.022h1.862v13.006h-1.862v-13.006zm9.554 1.344h1.526v.812c0 .821-.136 1.596-.406 2.324a5.236 5.236 0 01-1.204 1.918c-.532.541-1.209.947-2.03 1.218l-.966-1.442c.718-.243 1.302-.574 1.75-.994a3.96 3.96 0 001.008-1.414 4.285 4.285 0 00.322-1.61v-.812zm.364 0h1.512v.812c0 .504.102 1.008.308 1.512.205.495.527.943.966 1.344.448.392 1.017.7 1.708.924l-.938 1.456c-.812-.261-1.48-.658-2.002-1.19a5.222 5.222 0 01-1.176-1.834 6.479 6.479 0 01-.378-2.212v-.812zm-2.954-.56h7.014v1.484h-7.014v-1.484zm8.036-.756h1.862v7.798h-1.862v-7.798zm1.358 3.122h2.226v1.54h-2.226v-1.54zm-8.148 5.25h8.652v4.592h-1.862v-3.108h-6.79v-1.484zm17.61-5.516h3.248v1.498h-3.248v-1.498zm-2.982-2.324c.654 0 1.237.135 1.75.406.523.261.934.625 1.232 1.092.299.457.448.989.448 1.596 0 .597-.149 1.129-.448 1.596a3.14 3.14 0 01-1.232 1.106c-.513.261-1.096.392-1.75.392a3.864 3.864 0 01-1.75-.392 3.176 3.176 0 01-1.218-1.106 2.904 2.904 0 01-.448-1.596c0-.607.15-1.139.448-1.596a3.066 3.066 0 011.218-1.092 3.745 3.745 0 011.75-.406zm0 1.54a1.95 1.95 0 00-.854.182 1.376 1.376 0 00-.574.532c-.14.233-.21.513-.21.84 0 .317.07.593.21.826.14.233.332.411.574.532.252.121.537.182.854.182.318 0 .598-.061.84-.182.252-.121.448-.299.588-.532.14-.233.21-.509.21-.826 0-.327-.07-.607-.21-.84a1.354 1.354 0 00-.588-.532 1.855 1.855 0 00-.84-.182zm5.404-2.072h1.876v6.958h-1.876v-6.958zm-6.734 7.532h1.848v1.218h4.914v-1.218h1.848v5.292h-8.61v-5.292zm1.848 2.646v1.162h4.914v-1.162h-4.914zm12.21-3.551c0-1.233.164-2.368.492-3.405a9.405 9.405 0 011.517-2.884h2.023a6.14 6.14 0 00-.721 1.203 10.8 10.8 0 00-.582 1.551 13.449 13.449 0 00-.387 1.75c-.093.6-.14 1.195-.14 1.785 0 .786.08 1.579.239 2.381.163.799.381 1.542.656 2.228.279.686.59 1.248.935 1.685h-2.023a9.411 9.411 0 01-1.517-2.883c-.328-1.038-.492-2.175-.492-3.411zm5.021 5.091v-10.182h2.153v8.407h4.365v1.775h-6.518zm9.801.144a3.18 3.18 0 01-1.302-.253 2.096 2.096 0 01-.905-.761c-.219-.338-.328-.759-.328-1.263 0-.424.078-.78.233-1.069.156-.288.368-.52.637-.696.268-.175.573-.308.914-.397.345-.09.706-.153 1.084-.189.444-.047.802-.09 1.074-.13.272-.043.469-.106.592-.189a.415.415 0 00.184-.367v-.03c0-.315-.1-.559-.299-.731-.195-.172-.474-.259-.835-.259-.381 0-.684.085-.91.254a1.168 1.168 0 00-.447.626l-1.959-.159c.1-.464.295-.865.587-1.203a2.814 2.814 0 011.128-.785c.464-.186 1.001-.279 1.611-.279.424 0 .83.05 1.218.149.391.1.738.254 1.039.463.305.209.545.477.721.805.176.325.264.714.264 1.168v5.151h-2.009v-1.059h-.06a2.126 2.126 0 01-1.233 1.054 3.07 3.07 0 01-.999.149zm.607-1.461c.311 0 .586-.062.825-.184.239-.126.426-.295.562-.508.136-.212.204-.452.204-.72v-.811a1.177 1.177 0 01-.274.12c-.113.033-.24.064-.383.094-.142.027-.285.051-.427.075l-.388.054a2.653 2.653 0 00-.651.174c-.186.08-.33.188-.433.323a.789.789 0 00-.154.498c0 .288.104.508.313.661.212.149.481.224.806.224zm6.091 4.181a4.2 4.2 0 01-.756-.065 2.777 2.777 0 01-.577-.154l.478-1.581c.248.076.472.118.671.124a.853.853 0 00.522-.139c.149-.099.27-.268.363-.507l.124-.323-2.739-7.855h2.227l1.581 5.608h.08l1.595-5.608h2.243l-2.968 8.461a3.572 3.572 0 01-.582 1.074 2.392 2.392 0 01-.92.711c-.371.169-.819.254-1.342.254zm9.82-2.715c-.773 0-1.441-.164-2.004-.492a3.367 3.367 0 01-1.298-1.382c-.304-.593-.457-1.281-.457-2.063 0-.789.153-1.479.457-2.069a3.331 3.331 0 011.298-1.382c.563-.331 1.231-.497 2.004-.497.772 0 1.438.166 1.998.497.564.328.998.789 1.303 1.382.305.59.457 1.28.457 2.069 0 .782-.152 1.47-.457 2.063a3.353 3.353 0 01-1.303 1.382c-.56.328-1.226.492-1.998.492zm.01-1.64c.351 0 .644-.1.879-.299.236-.202.413-.477.532-.825.123-.348.184-.744.184-1.188 0-.444-.061-.84-.184-1.188-.119-.348-.296-.624-.532-.826-.235-.202-.528-.303-.879-.303-.355 0-.653.101-.895.303-.239.202-.42.478-.542.826-.12.348-.179.744-.179 1.188 0 .444.059.84.179 1.188.122.348.303.623.542.825.242.199.54.299.895.299zm9.742-1.76v-4.385h2.118v7.636h-2.033v-1.387h-.08a2.256 2.256 0 01-.86 1.079c-.398.272-.883.407-1.457.407-.51 0-.959-.116-1.347-.348a2.39 2.39 0 01-.91-.989c-.215-.427-.324-.94-.328-1.536v-4.862h2.118v4.484c.003.451.124.807.363 1.069.239.262.559.393.96.393.255 0 .493-.058.715-.174a1.36 1.36 0 00.537-.527c.14-.232.208-.519.204-.86zm7.594-4.385v1.591h-4.599v-1.591h4.599zm-3.555-1.83h2.118v7.119c0 .196.03.348.09.458.059.106.142.18.248.224.11.043.236.064.378.064.1 0 .199-.008.298-.025.1-.02.176-.035.229-.044l.333 1.576a6.018 6.018 0 01-.447.114 3.626 3.626 0 01-.701.084c-.511.02-.958-.048-1.343-.203a1.873 1.873 0 01-.889-.726c-.213-.328-.317-.743-.314-1.243v-7.398zm13.126 5.812c.933 0 1.745.098 2.436.294.69.196 1.222.476 1.596.84.382.364.574.803.574 1.316 0 .504-.192.938-.574 1.302-.374.373-.906.658-1.596.854-.691.196-1.503.294-2.436.294-.924 0-1.732-.098-2.422-.294-.691-.196-1.228-.481-1.61-.854a1.753 1.753 0 01-.56-1.302c0-.513.186-.952.56-1.316.382-.364.919-.644 1.61-.84.69-.196 1.498-.294 2.422-.294zm0 1.4c-.579 0-1.074.037-1.484.112-.411.075-.724.191-.938.35-.206.159-.308.355-.308.588 0 .233.102.429.308.588.214.149.527.266.938.35.41.075.905.112 1.484.112.588 0 1.087-.037 1.498-.112.41-.084.723-.201.938-.35.214-.159.322-.355.322-.588 0-.233-.108-.429-.322-.588-.215-.159-.528-.275-.938-.35a8.503 8.503 0 00-1.498-.112zm-4.452-8.89h8.218v1.456h-8.218v-1.456zm-1.302 5.208h11.662v1.47h-11.662v-1.47zm4.312-2.268h1.862v2.632h-1.862v-2.632zm4.116-2.94h1.862v1.064c0 .513-.014 1.05-.042 1.61a8.597 8.597 0 01-.322 1.848l-1.848-.182c.177-.663.28-1.251.308-1.764.028-.513.042-1.017.042-1.512v-1.064zm12.459-.574h1.876v9.268h-1.876v-9.268zm1.358 3.612h2.24v1.526h-2.24v-1.526zm-4.956-2.646h1.974c0 1.176-.234 2.226-.7 3.15-.467.924-1.148 1.713-2.044 2.366-.887.653-1.979 1.167-3.276 1.54l-.77-1.47c1.054-.299 1.936-.681 2.646-1.148.718-.467 1.26-.999 1.624-1.596a3.645 3.645 0 00.546-1.932v-.91zm-4.256 0h5.25v1.484h-5.25v-1.484zm1.358 10.276h8.82v1.498h-8.82v-1.498zm0-2.912h1.862v3.584h-1.862v-3.584zm14.619-.694c0 1.237-.165 2.373-.497 3.411a9.33 9.33 0 01-1.511 2.883h-2.024a6.14 6.14 0 00.721-1.203c.222-.474.416-.991.582-1.551.166-.563.295-1.147.388-1.75.092-.603.139-1.2.139-1.79 0-.785-.081-1.577-.244-2.376a12.154 12.154 0 00-.656-2.227c-.275-.686-.585-1.248-.93-1.686h2.024a9.323 9.323 0 011.511 2.884c.332 1.037.497 2.172.497 3.405z" fill="#EB5F00"/><path d="M608.588 647.776h1.472l3.46 8.452h.12l3.46-8.452h1.471v10.182h-1.153v-7.736h-.099l-3.182 7.736h-1.114l-3.182-7.736h-.099v7.736h-1.154v-10.182zm15.399 10.341c-.69 0-1.295-.164-1.815-.492a3.345 3.345 0 01-1.213-1.377c-.288-.59-.433-1.28-.433-2.068 0-.796.145-1.49.433-2.083a3.343 3.343 0 011.213-1.383c.52-.328 1.125-.492 1.815-.492.689 0 1.292.164 1.809.492.521.329.925.789 1.213 1.383.292.593.438 1.287.438 2.083 0 .788-.146 1.478-.438 2.068a3.29 3.29 0 01-1.213 1.377c-.517.328-1.12.492-1.809.492zm0-1.054c.523 0 .954-.134 1.292-.403.338-.268.589-.621.751-1.059.162-.437.244-.911.244-1.421 0-.511-.082-.986-.244-1.427a2.403 2.403 0 00-.751-1.069c-.338-.272-.769-.408-1.292-.408-.524 0-.955.136-1.293.408a2.411 2.411 0 00-.751 1.069 4.104 4.104 0 00-.243 1.427c0 .51.081.984.243 1.421.163.438.413.791.751 1.059.338.269.769.403 1.293.403zm8.134 1.054c-.636 0-1.198-.161-1.685-.482-.487-.325-.868-.782-1.143-1.372-.275-.594-.413-1.295-.413-2.103 0-.802.138-1.498.413-2.088.275-.59.658-1.046 1.148-1.368.491-.321 1.057-.482 1.7-.482.497 0 .89.083 1.179.249.291.162.513.348.666.557.156.205.277.374.363.507h.099v-3.759h1.173v10.182h-1.133v-1.173h-.139a7.523 7.523 0 01-.368.527 2.168 2.168 0 01-.681.561c-.295.163-.688.244-1.179.244zm.16-1.054c.47 0 .868-.123 1.193-.368.325-.248.571-.591.74-1.029.17-.441.254-.949.254-1.526 0-.57-.083-1.069-.249-1.497-.165-.43-.411-.765-.735-1.004-.325-.242-.726-.363-1.203-.363-.498 0-.912.128-1.243.383a2.296 2.296 0 00-.741 1.029 4.08 4.08 0 00-.244 1.452c0 .543.083 1.037.249 1.481.169.441.417.793.746 1.054.331.259.742.388 1.233.388zm8.854 1.054c-.736 0-1.371-.162-1.904-.487a3.273 3.273 0 01-1.228-1.372c-.285-.59-.428-1.276-.428-2.059 0-.782.143-1.471.428-2.068.288-.6.689-1.067 1.203-1.402.517-.338 1.12-.507 1.81-.507.397 0 .79.067 1.178.199.388.133.741.348 1.059.646.318.295.572.686.76 1.174.189.487.284 1.087.284 1.799v.498h-5.886v-1.015h4.693c0-.431-.086-.815-.259-1.153a1.943 1.943 0 00-.726-.8c-.311-.196-.679-.294-1.103-.294-.468 0-.872.116-1.213.348a2.282 2.282 0 00-.781.895 2.632 2.632 0 00-.273 1.183v.676c0 .577.099 1.066.298 1.467.202.398.482.701.84.91.358.205.774.308 1.248.308.308 0 .587-.043.835-.129.252-.09.469-.222.651-.398.183-.179.324-.401.423-.666l1.134.318a2.51 2.51 0 01-.602 1.014c-.282.289-.63.514-1.044.676-.414.16-.88.239-1.397.239zm6.12-10.341v10.182h-1.173v-10.182h1.173zm11.383 6.598c.905 0 1.684.093 2.338.28.662.187 1.171.453 1.526.798.364.345.546.765.546 1.26 0 .476-.182.891-.546 1.246-.355.345-.864.607-1.526.784-.654.187-1.433.28-2.338.28-.896 0-1.676-.093-2.338-.28-.663-.177-1.172-.439-1.526-.784-.355-.355-.532-.77-.532-1.246 0-.495.177-.915.532-1.26.354-.345.863-.611 1.526-.798.662-.187 1.442-.28 2.338-.28zm0 .896c-.663 0-1.237.061-1.722.182-.486.112-.864.275-1.134.49-.262.215-.392.471-.392.77 0 .28.13.527.392.742.27.215.648.378 1.134.49.485.112 1.059.168 1.722.168.672 0 1.25-.056 1.736-.168.485-.112.858-.275 1.12-.49.27-.215.406-.462.406-.742 0-.299-.136-.555-.406-.77-.262-.215-.635-.378-1.12-.49-.486-.121-1.064-.182-1.736-.182zm-4.312-8.246h8.148v.938h-8.148v-.938zm-1.344 5.25h11.41v.952h-11.41v-.952zm4.69-2.436h1.148v2.716h-1.148v-2.716zm4.13-2.814h1.148v1.064c0 .513-.014 1.041-.042 1.582a8.596 8.596 0 01-.308 1.778l-1.134-.126a9.106 9.106 0 00.294-1.736c.028-.504.042-1.003.042-1.498v-1.064zm12.696-.644h1.176v9.254h-1.176v-9.254zm.812 3.836h2.226v.98h-2.226v-.98zm-4.27-2.856h1.232c0 1.092-.242 2.081-.728 2.968-.476.887-1.157 1.657-2.044 2.31-.886.653-1.936 1.171-3.15 1.554l-.49-.938c1.064-.336 1.984-.77 2.758-1.302.775-.532 1.372-1.143 1.792-1.834.42-.691.63-1.437.63-2.24v-.518zm-4.662 0h5.264v.966h-5.264v-.966zm1.4 10.458h8.442v.952h-8.442v-.952zm0-3.122h1.162v3.5h-1.162v-3.5zm18.142 3.401c-.669 0-1.246-.122-1.73-.368a2.703 2.703 0 01-1.118-1.009 2.748 2.748 0 01-.393-1.467c0-.424.089-.8.268-1.128.183-.332.433-.638.751-.92.321-.285.691-.57 1.109-.855l1.471-1.094a2.92 2.92 0 00.691-.606c.176-.216.264-.497.264-.845 0-.259-.115-.509-.343-.751-.226-.242-.522-.363-.89-.363-.259 0-.487.066-.686.199-.196.129-.35.295-.463.497a1.266 1.266 0 00-.164.616c0 .239.065.481.194.726.133.242.3.491.502.746l.637.776 4.673 5.707h-1.412l-3.858-4.653-.974-1.174a5.512 5.512 0 01-.696-1.039 2.415 2.415 0 01-.259-1.108c0-.458.101-.859.303-1.204a2.12 2.12 0 01.86-.81c.372-.195.806-.293 1.303-.293.51 0 .95.099 1.318.298.367.196.651.456.85.781.199.321.298.671.298 1.049 0 .487-.121.909-.363 1.267a4.17 4.17 0 01-.989 1l-2.029 1.511c-.457.338-.767.666-.929.984-.163.319-.244.547-.244.686 0 .319.083.615.249.89.165.275.399.498.701.667.301.169.654.253 1.059.253.384 0 .759-.081 1.123-.243.365-.166.694-.405.989-.716.299-.312.534-.686.706-1.124.176-.437.264-.93.264-1.477h1.133c0 .677-.077 1.228-.233 1.656-.156.428-.332.762-.527 1.004a7.148 7.148 0 01-.473.542c-.039.05-.076.1-.109.149-.033.05-.07.1-.109.149a3.024 3.024 0 01-1.243.826 4.384 4.384 0 01-1.482.268zm10.168-.139v-10.182h1.233v9.088h4.733v1.094h-5.966zm9.963.179c-.483 0-.923-.091-1.317-.273a2.269 2.269 0 01-.94-.801c-.232-.351-.348-.775-.348-1.273 0-.437.087-.792.259-1.064.172-.275.403-.49.691-.646.288-.156.606-.272.954-.348.352-.079.705-.142 1.059-.189.464-.059.841-.104 1.129-.134.292-.033.504-.088.636-.164.136-.076.204-.209.204-.398v-.04c0-.49-.134-.871-.403-1.143-.265-.272-.667-.408-1.208-.408-.56 0-.999.123-1.317.368-.318.245-.542.507-.671.786l-1.114-.398c.199-.464.464-.825.796-1.084a2.977 2.977 0 011.093-.547 4.547 4.547 0 011.174-.159c.245 0 .527.03.845.09.321.056.631.174.929.353.302.179.552.449.751.81.199.361.298.845.298 1.452v5.031h-1.173v-1.034h-.059c-.08.166-.213.343-.398.532-.186.189-.433.35-.741.482-.308.133-.684.199-1.129.199zm.179-1.054c.464 0 .856-.091 1.174-.273.321-.183.563-.418.726-.706.165-.289.248-.592.248-.91v-1.074c-.05.06-.159.114-.328.164a5.534 5.534 0 01-.577.124c-.215.033-.426.063-.631.09-.202.023-.366.043-.492.059-.305.04-.59.105-.855.194a1.484 1.484 0 00-.637.393c-.159.172-.238.408-.238.706 0 .408.15.716.452.925.305.205.691.308 1.158.308zm5.945 3.739a2.58 2.58 0 01-.532-.05 1.413 1.413 0 01-.323-.09l.298-1.034c.285.073.537.1.756.08a.909.909 0 00.582-.293c.172-.173.33-.453.472-.841l.219-.596-2.824-7.676h1.273l2.108 6.085h.079l2.108-6.085h1.273l-3.242 8.75a3.296 3.296 0 01-.541.979 2.036 2.036 0 01-.751.582c-.282.126-.6.189-.955.189zm9.866-2.705c-.689 0-1.294-.164-1.814-.492a3.338 3.338 0 01-1.213-1.377c-.289-.59-.433-1.28-.433-2.068 0-.796.144-1.49.433-2.083a3.336 3.336 0 011.213-1.383c.52-.328 1.125-.492 1.814-.492.69 0 1.293.164 1.81.492.52.329.925.789 1.213 1.383.292.593.438 1.287.438 2.083 0 .788-.146 1.478-.438 2.068a3.296 3.296 0 01-1.213 1.377c-.517.328-1.12.492-1.81.492zm0-1.054c.524 0 .955-.134 1.293-.403.338-.268.588-.621.751-1.059.162-.437.243-.911.243-1.421 0-.511-.081-.986-.243-1.427a2.411 2.411 0 00-.751-1.069c-.338-.272-.769-.408-1.293-.408-.523 0-.954.136-1.292.408a2.403 2.403 0 00-.751 1.069 4.104 4.104 0 00-.244 1.427c0 .51.082.984.244 1.421.162.438.413.791.751 1.059.338.269.769.403 1.292.403zm10.064-2.227v-4.514h1.173v7.636h-1.173v-1.293h-.079a2.508 2.508 0 01-.836.99c-.377.268-.855.402-1.431.402-.478 0-.902-.104-1.273-.313a2.192 2.192 0 01-.875-.954c-.212-.428-.318-.966-.318-1.616v-4.852h1.173v4.772c0 .557.156 1.001.467 1.333.315.331.716.497 1.203.497.292 0 .589-.075.89-.224.305-.149.56-.378.766-.686.209-.308.313-.701.313-1.178zm6.643-4.514v.994h-3.957v-.994h3.957zm-2.804-1.83h1.174v7.279c0 .331.048.58.144.745a.739.739 0 00.378.328c.156.053.32.08.492.08.129 0 .235-.007.318-.02l.199-.04.239 1.054a2.475 2.475 0 01-.875.139c-.332 0-.657-.071-.975-.213a1.931 1.931 0 01-.785-.652c-.206-.291-.309-.659-.309-1.103v-7.597zm13.803 5.882c.905 0 1.685.093 2.338.28.663.187 1.171.453 1.526.798.364.345.546.765.546 1.26 0 .476-.182.891-.546 1.246-.355.345-.863.607-1.526.784-.653.187-1.433.28-2.338.28-.896 0-1.675-.093-2.338-.28-.663-.177-1.171-.439-1.526-.784-.355-.355-.532-.77-.532-1.246 0-.495.177-.915.532-1.26.355-.345.863-.611 1.526-.798.663-.187 1.442-.28 2.338-.28zm0 .896c-.663 0-1.237.061-1.722.182-.485.112-.863.275-1.134.49-.261.215-.392.471-.392.77 0 .28.131.527.392.742.271.215.649.378 1.134.49.485.112 1.059.168 1.722.168.672 0 1.251-.056 1.736-.168.485-.112.859-.275 1.12-.49.271-.215.406-.462.406-.742 0-.299-.135-.555-.406-.77-.261-.215-.635-.378-1.12-.49-.485-.121-1.064-.182-1.736-.182zm-4.312-8.246h8.148v.938h-8.148v-.938zm-1.344 5.25h11.41v.952h-11.41v-.952zm4.69-2.436h1.148v2.716h-1.148v-2.716zm4.13-2.814h1.148v1.064c0 .513-.014 1.041-.042 1.582a8.596 8.596 0 01-.308 1.778l-1.134-.126a9.106 9.106 0 00.294-1.736c.028-.504.042-1.003.042-1.498v-1.064zm12.697-.644h1.176v9.254h-1.176v-9.254zm.812 3.836h2.226v.98h-2.226v-.98zm-4.27-2.856h1.232c0 1.092-.243 2.081-.728 2.968-.476.887-1.157 1.657-2.044 2.31s-1.937 1.171-3.15 1.554l-.49-.938c1.064-.336 1.983-.77 2.758-1.302.775-.532 1.372-1.143 1.792-1.834.42-.691.63-1.437.63-2.24v-.518zm-4.662 0h5.264v.966h-5.264v-.966zm1.4 10.458h8.442v.952h-8.442v-.952zm0-3.122h1.162v3.5h-1.162v-3.5zm18.858-7.397l-3.282 12.19h-1.074l3.282-12.19h1.074zm-159.902 30.659v-10.182h1.233v9.088h4.733v1.094h-5.966zm9.963.179c-.484 0-.923-.091-1.317-.273a2.263 2.263 0 01-.94-.801c-.232-.351-.348-.775-.348-1.273 0-.437.086-.792.259-1.064a1.82 1.82 0 01.691-.646c.288-.156.606-.272.954-.348.352-.079.705-.142 1.059-.189.464-.059.841-.104 1.129-.134.292-.033.504-.088.636-.164.136-.076.204-.209.204-.398v-.04c0-.49-.134-.871-.403-1.143-.265-.272-.667-.408-1.208-.408-.56 0-.999.123-1.317.368-.318.245-.542.507-.671.786l-1.114-.398c.199-.464.464-.825.795-1.084.335-.262.7-.444 1.094-.547a4.546 4.546 0 011.173-.159c.246 0 .527.03.846.09.321.056.631.174.929.353.302.179.552.449.751.81.199.361.298.845.298 1.452v5.031h-1.173v-1.034h-.06a2.059 2.059 0 01-.397.532c-.186.189-.433.35-.741.482-.308.133-.685.199-1.129.199zm.179-1.054c.464 0 .855-.091 1.174-.273a1.867 1.867 0 00.974-1.616v-1.074c-.05.06-.159.114-.328.164a5.534 5.534 0 01-.577.124c-.215.033-.426.063-.631.09-.202.023-.366.043-.492.059-.305.04-.59.105-.855.194a1.484 1.484 0 00-.637.393c-.159.172-.238.408-.238.706 0 .408.15.716.452.925.305.205.691.308 1.158.308zm5.945 3.739a2.58 2.58 0 01-.532-.05 1.397 1.397 0 01-.323-.09l.298-1.034c.285.073.537.1.756.08a.909.909 0 00.582-.293c.172-.173.329-.453.472-.841l.219-.596-2.824-7.676h1.273l2.108 6.085h.079l2.108-6.085h1.273l-3.242 8.75a3.297 3.297 0 01-.542.979 2.025 2.025 0 01-.75.582c-.282.126-.6.189-.955.189zm9.866-2.705c-.689 0-1.294-.164-1.814-.492a3.338 3.338 0 01-1.213-1.377c-.289-.59-.433-1.28-.433-2.068 0-.796.144-1.49.433-2.083a3.336 3.336 0 011.213-1.383c.52-.328 1.125-.492 1.814-.492.69 0 1.293.164 1.81.492.52.329.925.789 1.213 1.383.292.593.437 1.287.437 2.083 0 .788-.145 1.478-.437 2.068a3.296 3.296 0 01-1.213 1.377c-.517.328-1.12.492-1.81.492zm0-1.054c.524 0 .955-.134 1.293-.403.338-.268.588-.621.751-1.059.162-.437.243-.911.243-1.421 0-.511-.081-.986-.243-1.427a2.411 2.411 0 00-.751-1.069c-.338-.272-.769-.408-1.293-.408-.523 0-.954.136-1.292.408a2.403 2.403 0 00-.751 1.069 4.104 4.104 0 00-.244 1.427c0 .51.082.984.244 1.421.162.438.413.791.751 1.059.338.269.769.403 1.292.403zm10.064-2.227v-4.514h1.173v7.636h-1.173v-1.293h-.08a2.505 2.505 0 01-.835.99c-.378.268-.855.402-1.432.402-.477 0-.901-.104-1.272-.313-.372-.212-.663-.53-.875-.954-.212-.428-.319-.966-.319-1.616v-4.852h1.174v4.772c0 .557.156 1.001.467 1.333.315.331.716.497 1.203.497.292 0 .589-.075.89-.224.305-.149.56-.378.766-.686.209-.308.313-.701.313-1.178zm6.643-4.514v.994h-3.957v-.994h3.957zm-2.804-1.83h1.174v7.279c0 .331.048.58.144.745a.739.739 0 00.378.328c.155.053.319.08.492.08.129 0 .235-.007.318-.02l.199-.04.238 1.054c-.079.03-.19.06-.333.09a2.463 2.463 0 01-.542.049c-.331 0-.656-.071-.974-.213a1.931 1.931 0 01-.785-.652c-.206-.291-.309-.659-.309-1.103v-7.597zm13.803 5.882c.905 0 1.684.093 2.338.28.662.187 1.171.453 1.526.798.364.345.546.765.546 1.26 0 .476-.182.891-.546 1.246-.355.345-.864.607-1.526.784-.654.187-1.433.28-2.338.28-.896 0-1.676-.093-2.338-.28-.663-.177-1.172-.439-1.526-.784-.355-.355-.532-.77-.532-1.246 0-.495.177-.915.532-1.26.354-.345.863-.611 1.526-.798.662-.187 1.442-.28 2.338-.28zm0 .896c-.663 0-1.237.061-1.722.182-.486.112-.864.275-1.134.49-.262.215-.392.471-.392.77 0 .28.13.527.392.742.27.215.648.378 1.134.49.485.112 1.059.168 1.722.168.672 0 1.25-.056 1.736-.168.485-.112.858-.275 1.12-.49.27-.215.406-.462.406-.742 0-.299-.136-.555-.406-.77-.262-.215-.635-.378-1.12-.49-.486-.121-1.064-.182-1.736-.182zm-4.312-8.246h8.148v.938h-8.148v-.938zm-1.344 5.25h11.41v.952h-11.41v-.952zm4.69-2.436h1.148v2.716h-1.148v-2.716zm4.13-2.814h1.148v1.064c0 .513-.014 1.041-.042 1.582a8.596 8.596 0 01-.308 1.778l-1.134-.126a9.106 9.106 0 00.294-1.736c.028-.504.042-1.003.042-1.498v-1.064zm12.697-.644h1.176v9.254h-1.176v-9.254zm.812 3.836h2.226v.98h-2.226v-.98zm-4.27-2.856h1.232c0 1.092-.243 2.081-.728 2.968-.476.887-1.158 1.657-2.044 2.31-.887.653-1.937 1.171-3.15 1.554l-.49-.938c1.064-.336 1.983-.77 2.758-1.302.774-.532 1.372-1.143 1.792-1.834.42-.691.63-1.437.63-2.24v-.518zm-4.662 0h5.264v.966h-5.264v-.966zm1.4 10.458h8.442v.952h-8.442v-.952zm0-3.122h1.162v3.5h-1.162v-3.5zm18.142 3.401c-.67 0-1.247-.122-1.731-.368a2.709 2.709 0 01-1.118-1.009 2.748 2.748 0 01-.393-1.467c0-.424.09-.8.268-1.128.183-.332.433-.638.751-.92.322-.285.691-.57 1.109-.855l1.471-1.094c.289-.189.519-.391.692-.606.175-.216.263-.497.263-.845 0-.259-.114-.509-.343-.751-.225-.242-.522-.363-.89-.363-.258 0-.487.066-.686.199a1.4 1.4 0 00-.462.497c-.11.199-.164.404-.164.616 0 .239.064.481.193.726.133.242.3.491.503.746.205.252.417.51.636.776l4.673 5.707h-1.412l-3.858-4.653-.974-1.174a5.512 5.512 0 01-.696-1.039 2.428 2.428 0 01-.259-1.108c0-.458.101-.859.304-1.204.205-.348.492-.618.86-.81.371-.195.805-.293 1.302-.293.511 0 .95.099 1.318.298.368.196.651.456.85.781.199.321.298.671.298 1.049 0 .487-.121.909-.363 1.267a4.152 4.152 0 01-.989 1l-2.028 1.511c-.458.338-.768.666-.93.984-.163.319-.244.547-.244.686 0 .319.083.615.249.89.166.275.399.498.701.667.301.169.654.253 1.059.253.384 0 .759-.081 1.123-.243.365-.166.695-.405.99-.716.298-.312.533-.686.706-1.124.175-.437.263-.93.263-1.477h1.134c0 .677-.078 1.228-.234 1.656-.156.428-.331.762-.527 1.004a7.417 7.417 0 01-.472.542c-.04.05-.077.1-.11.149-.033.05-.069.1-.109.149a3.017 3.017 0 01-1.243.826c-.5.179-.994.268-1.481.268zm10.168-.139v-10.182h1.233v9.088h4.733v1.094h-5.966zm9.963.179c-.484 0-.923-.091-1.318-.273a2.266 2.266 0 01-.939-.801c-.232-.351-.348-.775-.348-1.273 0-.437.086-.792.258-1.064.172-.275.403-.49.691-.646.289-.156.607-.272.955-.348.351-.079.704-.142 1.059-.189.464-.059.84-.104 1.128-.134.292-.033.504-.088.637-.164.135-.076.203-.209.203-.398v-.04c0-.49-.134-.871-.402-1.143-.265-.272-.668-.408-1.208-.408-.56 0-1 .123-1.318.368-.318.245-.542.507-.671.786l-1.114-.398c.199-.464.464-.825.796-1.084a2.981 2.981 0 011.094-.547 4.534 4.534 0 011.173-.159c.245 0 .527.03.845.09a2.7 2.7 0 01.93.353c.301.179.552.449.75.81.199.361.299.845.299 1.452v5.031h-1.174v-1.034h-.059c-.08.166-.212.343-.398.532-.186.189-.432.35-.741.482-.308.133-.684.199-1.128.199zm.179-1.054c.464 0 .855-.091 1.173-.273.321-.183.563-.418.726-.706.166-.289.248-.592.248-.91v-1.074c-.049.06-.159.114-.328.164a5.51 5.51 0 01-.576.124c-.216.033-.426.063-.632.09-.202.023-.366.043-.492.059-.305.04-.59.105-.855.194a1.474 1.474 0 00-.636.393c-.16.172-.239.408-.239.706 0 .408.151.716.452.925.305.205.691.308 1.159.308zm5.944 3.739a2.57 2.57 0 01-.531-.05 1.41 1.41 0 01-.324-.09l.299-1.034c.285.073.537.1.755.08a.909.909 0 00.582-.293c.172-.173.33-.453.472-.841l.219-.596-2.824-7.676h1.273l2.108 6.085h.079l2.108-6.085h1.273l-3.241 8.75a3.32 3.32 0 01-.542.979 2.036 2.036 0 01-.751.582c-.282.126-.6.189-.955.189zm9.867-2.705c-.69 0-1.295-.164-1.815-.492a3.345 3.345 0 01-1.213-1.377c-.288-.59-.433-1.28-.433-2.068 0-.796.145-1.49.433-2.083a3.343 3.343 0 011.213-1.383c.52-.328 1.125-.492 1.815-.492.689 0 1.292.164 1.809.492.521.329.925.789 1.213 1.383.292.593.438 1.287.438 2.083 0 .788-.146 1.478-.438 2.068a3.29 3.29 0 01-1.213 1.377c-.517.328-1.12.492-1.809.492zm0-1.054c.523 0 .954-.134 1.292-.403.338-.268.589-.621.751-1.059.162-.437.244-.911.244-1.421 0-.511-.082-.986-.244-1.427a2.403 2.403 0 00-.751-1.069c-.338-.272-.769-.408-1.292-.408-.524 0-.955.136-1.293.408a2.411 2.411 0 00-.751 1.069 4.104 4.104 0 00-.243 1.427c0 .51.081.984.243 1.421.163.438.413.791.751 1.059.338.269.769.403 1.293.403zm10.063-2.227v-4.514h1.174v7.636h-1.174v-1.293h-.079a2.514 2.514 0 01-.835.99c-.378.268-.856.402-1.432.402-.478 0-.902-.104-1.273-.313a2.192 2.192 0 01-.875-.954c-.212-.428-.318-.966-.318-1.616v-4.852h1.173v4.772c0 .557.156 1.001.467 1.333.315.331.716.497 1.204.497.291 0 .588-.075.89-.224.304-.149.56-.378.765-.686.209-.308.313-.701.313-1.178zm6.644-4.514v.994h-3.958v-.994h3.958zm-2.804-1.83h1.173v7.279c0 .331.048.58.144.745.1.163.226.272.378.328.156.053.32.08.492.08.129 0 .235-.007.318-.02l.199-.04.239 1.054a2.469 2.469 0 01-.875.139c-.332 0-.656-.071-.975-.213a1.944 1.944 0 01-.785-.652c-.206-.291-.308-.659-.308-1.103v-7.597zm13.802 5.882c.906 0 1.685.093 2.338.28.663.187 1.172.453 1.526.798.364.345.546.765.546 1.26 0 .476-.182.891-.546 1.246-.354.345-.863.607-1.526.784-.653.187-1.432.28-2.338.28-.896 0-1.675-.093-2.338-.28-.662-.177-1.171-.439-1.526-.784-.354-.355-.532-.77-.532-1.246 0-.495.178-.915.532-1.26.355-.345.864-.611 1.526-.798.663-.187 1.442-.28 2.338-.28zm0 .896c-.662 0-1.236.061-1.722.182-.485.112-.863.275-1.134.49-.261.215-.392.471-.392.77 0 .28.131.527.392.742.271.215.649.378 1.134.49.486.112 1.06.168 1.722.168.672 0 1.251-.056 1.736-.168.486-.112.859-.275 1.12-.49.271-.215.406-.462.406-.742 0-.299-.135-.555-.406-.77-.261-.215-.634-.378-1.12-.49-.485-.121-1.064-.182-1.736-.182zm-4.312-8.246h8.148v.938H758.3v-.938zm-1.344 5.25h11.41v.952h-11.41v-.952zm4.69-2.436h1.148v2.716h-1.148v-2.716zm4.13-2.814h1.148v1.064c0 .513-.014 1.041-.042 1.582a8.53 8.53 0 01-.308 1.778l-1.134-.126a9.106 9.106 0 00.294-1.736c.028-.504.042-1.003.042-1.498v-1.064zm12.697-.644h1.176v9.254h-1.176v-9.254zm.812 3.836h2.226v.98h-2.226v-.98zm-4.27-2.856h1.232c0 1.092-.243 2.081-.728 2.968-.476.887-1.157 1.657-2.044 2.31s-1.937 1.171-3.15 1.554l-.49-.938c1.064-.336 1.983-.77 2.758-1.302.775-.532 1.372-1.143 1.792-1.834.42-.691.63-1.437.63-2.24v-.518zm-4.662 0h5.264v.966h-5.264v-.966zm1.4 10.458h8.442v.952h-8.442v-.952zm0-3.122h1.162v3.5h-1.162v-3.5zm-44.506 17.928h11.452v.938h-11.452v-.938zm5.152-2.03h1.134v2.422h-1.134v-2.422zm-3.71-.364h8.666v.938h-8.666v-.938zm0-3.262h8.582v.924h-7.434v2.898h-1.148v-3.822zm4.27 7.504c1.353 0 2.413.201 3.178.602.765.392 1.148.952 1.148 1.68s-.383 1.288-1.148 1.68c-.765.401-1.825.602-3.178.602s-2.417-.201-3.192-.602c-.765-.392-1.148-.952-1.148-1.68s.383-1.288 1.148-1.68c.775-.401 1.839-.602 3.192-.602zm-.014.91c-.653 0-1.218.056-1.694.168-.467.103-.826.257-1.078.462-.252.196-.378.443-.378.742 0 .289.126.537.378.742.252.205.611.359 1.078.462.476.112 1.041.168 1.694.168.672 0 1.241-.056 1.708-.168.476-.103.84-.257 1.092-.462.252-.205.378-.453.378-.742 0-.299-.126-.546-.378-.742-.252-.205-.616-.359-1.092-.462-.467-.112-1.036-.168-1.708-.168zm10.513-7.91h.966v2.268a8.15 8.15 0 01-.28 2.128 8.036 8.036 0 01-.77 1.918 7.278 7.278 0 01-1.162 1.568c-.439.448-.92.803-1.442 1.064l-.714-.966a4.638 4.638 0 001.33-.924c.41-.401.77-.854 1.078-1.358.308-.513.55-1.064.728-1.652a6.14 6.14 0 00.266-1.778v-2.268zm.196 0h.966v2.268c0 .579.084 1.148.252 1.708.177.56.42 1.092.728 1.596a7.08 7.08 0 001.078 1.316c.41.373.849.667 1.316.882l-.7.924a5.084 5.084 0 01-1.428-1.022 7.562 7.562 0 01-1.162-1.512 8.063 8.063 0 01-.77-1.848 7.491 7.491 0 01-.28-2.044v-2.268zm5.67-1.092h1.162v12.684h-1.162V686.38zm10.74 1.302h.952v1.022c0 .775-.149 1.498-.448 2.17a5.258 5.258 0 01-1.218 1.736 5.27 5.27 0 01-1.848 1.106l-.616-.896a5.004 5.004 0 001.666-.966c.476-.42.845-.896 1.106-1.428a3.793 3.793 0 00.406-1.722v-1.022zm.21 0h.952v1.022c0 .551.126 1.083.378 1.596.252.513.607.966 1.064 1.358a5.124 5.124 0 001.624.91l-.588.91a5.572 5.572 0 01-1.82-1.078 4.973 4.973 0 01-1.61-3.696v-1.022zm-3.038-.42h6.776v.952h-6.776v-.952zm8.372-.882h1.162v7.63h-1.162v-7.63zm.84 3.332h2.184v.98h-2.184v-.98zm-7.91 4.97h8.232v4.368h-1.162v-3.416h-7.07v-.952zm17.639-5.278h3.402v.952h-3.402v-.952zm-2.898-2.436c.625 0 1.181.126 1.666.378.495.243.882.583 1.162 1.022.28.439.42.947.42 1.526 0 .579-.14 1.092-.42 1.54a2.91 2.91 0 01-1.162 1.036c-.485.243-1.041.364-1.666.364-.635 0-1.199-.121-1.694-.364a2.937 2.937 0 01-1.148-1.036c-.28-.448-.42-.961-.42-1.54 0-.579.14-1.087.42-1.526.28-.439.663-.779 1.148-1.022.495-.252 1.059-.378 1.694-.378zm0 .98c-.42 0-.793.084-1.12.252a1.854 1.854 0 00-.756.686c-.187.289-.28.625-.28 1.008s.093.723.28 1.022c.187.289.439.518.756.686.327.168.7.252 1.12.252.411 0 .775-.084 1.092-.252.327-.168.583-.397.77-.686.187-.299.28-.639.28-1.022s-.093-.719-.28-1.008a1.83 1.83 0 00-.77-.686 2.297 2.297 0 00-1.092-.252zm5.796-1.568h1.162v6.804h-1.162v-6.804zm-6.944 7.434h1.148v1.582h5.796v-1.582h1.162v5.068h-8.106v-5.068zm1.148 2.506v1.61h5.796v-1.61h-5.796z" fill="#000"/><path d="M710.58 595.769l1.955 6.588 6.016-3.283" stroke="#000" stroke-width="2" stroke-linecap="round"/><path d="M707.75 615C744.5 512.75 821 476.25 821 476.25" stroke="url(#paint0_linear_1079_11247)" stroke-width="1.186" stroke-dasharray="2.37 2.37"/><g filter="url(#filter0_i_1079_11247)"><circle cx="730" cy="565.144" r="12" fill="#D9D9D9"/><circle cx="730" cy="565.144" r="12" fill="#FFC600"/><circle cx="730" cy="565.144" r="12" fill="#fff"/></g><circle cx="730" cy="565.144" r="11.5" stroke="#000"/><path d="M729.899 558.287s-4.681.969-4.145 6.745c.213 0 4.145.109 4.145.109v-6.854z" fill="#EB5F00"/><path d="M730.092 558.287a4.38 4.38 0 014.381 4.38v4.953a4.38 4.38 0 01-8.762 0v-4.953a4.38 4.38 0 014.381-4.38zm-3.81 9.333a3.81 3.81 0 007.619 0v-2.476h-7.619v2.476zm4-2.857h3.619v-2.096a3.81 3.81 0 00-3.619-3.805v5.901zm-.381-5.901a3.81 3.81 0 00-3.619 3.805v2.096h3.619v-5.901z" fill="#000"/><rect x="729.426" y="560.477" width="1.334" height="2.858" rx=".667" fill="#FFC600" stroke="#000" stroke-width=".571"/><path d="M594.792 559.11h1.33v1.49h-1.33v-1.49zm3.89-5.48h1.33v9.26h-1.33v-9.26zm.87 3.76h1.63v1.09h-1.63v-1.09zm-6.84 3.96l-.16-1.08c.534 0 1.117-.003 1.75-.01.64-.007 1.294-.03 1.96-.07.674-.04 1.324-.1 1.95-.18l.1.96c-.646.12-1.303.21-1.97.27-.666.053-1.31.087-1.93.1-.613.007-1.18.01-1.7.01zm.01-6.71h5.45v1.04h-5.45v-1.04zm2.73 1.41c.447 0 .84.073 1.18.22.34.147.607.35.8.61.194.26.29.563.29.91 0 .34-.096.643-.29.91-.193.26-.46.463-.8.61a2.95 2.95 0 01-1.18.22c-.44 0-.83-.073-1.17-.22a1.922 1.922 0 01-.8-.61 1.514 1.514 0 01-.29-.91c0-.347.097-.65.29-.91.194-.26.46-.463.8-.61.34-.147.73-.22 1.17-.22zm0 1c-.3 0-.543.067-.73.2a.622.622 0 00-.27.54c0 .24.09.423.27.55.187.127.43.19.73.19.307 0 .55-.063.73-.19a.623.623 0 00.28-.55.614.614 0 00-.28-.54c-.18-.133-.423-.2-.73-.2zm-.66-3.38h1.33v1.75h-1.33v-1.75zm11.529 1.41h2.33v1.06h-2.33v-1.06zm0 1.99h2.37v1.06h-2.37v-1.06zm-4.1-2.7h4.38v4.53h-4.38v-4.53zm3.08 1.04h-1.77v2.44h1.77v-2.44zm2.96-1.78h1.34v6.74h-1.34v-6.74zm-4.79 8.03h6.33v1.07h-6.33v-1.07zm0-1.92h1.33v2.48h-1.33v-2.48zm15.844-6.11h1.33v5.38h-1.33v-5.38zm.97 2.13h1.59v1.1h-1.59v-1.1zm-6.66-1.58h1.32v1.16h1.82v-1.16h1.31v4.4h-4.45v-4.4zm1.32 2.19v1.17h1.82v-1.17h-1.82zm-.7 3.06h3.04v3.46h-1.31v-2.41h-1.73v-1.05zm3.45 0h2.95v3.46h-1.3v-2.41h-1.65v-1.05zm9.049-5.34c.654 0 1.24.11 1.76.33.527.22.94.53 1.24.93.307.4.46.87.46 1.41 0 .54-.153 1.013-.46 1.42-.3.4-.713.71-1.24.93-.52.22-1.106.33-1.76.33-.646 0-1.233-.11-1.76-.33-.52-.22-.933-.53-1.24-.93a2.298 2.298 0 01-.46-1.42c0-.54.154-1.01.46-1.41.307-.4.72-.71 1.24-.93a4.528 4.528 0 011.76-.33zm0 1.08c-.413 0-.783.063-1.11.19-.326.127-.583.31-.77.55a1.35 1.35 0 00-.27.85c0 .333.09.62.27.86.187.233.444.413.77.54.327.127.697.19 1.11.19.427 0 .8-.063 1.12-.19.327-.127.58-.307.76-.54.187-.24.28-.527.28-.86 0-.333-.093-.617-.28-.85a1.681 1.681 0 00-.76-.55 3.024 3.024 0 00-1.12-.19zm-4.18 5.51h8.39v1.09h-8.39v-1.09zm9.2.11h8.39v1.08h-8.39v-1.08zm3.52-1.76h1.32v2.19h-1.32v-2.19zm-2.57-4.81h6.49v3.09h-5.16v1.55h-1.32v-2.59h5.16v-.99h-5.17v-1.06zm.01 4.12h6.69v1.06h-6.69v-1.06zm11.533-.44h6.51v1.05h-6.51v-1.05zm-.98 2.79h8.39v1.08h-8.39v-1.08zm.98-6.31h6.44v1.08h-5.12v2.88h-1.32v-3.96zm8.469 5.37h.65c.554 0 1.084-.01 1.59-.03a15.182 15.182 0 001.62-.18l.1 1.08c-.593.1-1.153.163-1.68.19-.52.02-1.063.03-1.63.03h-.65v-1.09zm-.02-5.22h3.51v3.58h-2.2v2.03h-1.29v-3.08h2.21v-1.48h-2.23v-1.05zm6.45-.91h1.27v9.26h-1.27v-9.26zm-1.23 3.5h1.54v1.07h-1.54v-1.07zm-.84-3.34h1.23v8.67h-1.23v-8.67zm5.45.69h5.86v1.06h-5.86v-1.06zm-.86 6.13h8.38v1.08h-8.38v-1.08zm6.02-6.13h1.33v1.1c0 .433-.007.873-.02 1.32a19.2 19.2 0 01-.08 1.43c-.04.507-.12 1.08-.24 1.72l-1.33-.12c.12-.593.2-1.14.24-1.64.046-.5.073-.97.08-1.41.013-.447.02-.88.02-1.3v-1.1zm5.603 7.637c-.502 0-.935-.09-1.3-.27a2.043 2.043 0 01-.842-.732 1.916 1.916 0 01-.291-1.037c0-.284.057-.536.171-.756.113-.22.272-.423.475-.607a6.43 6.43 0 01.711-.558l1.409-.927a1.32 1.32 0 00.402-.366.758.758 0 00.128-.422.574.574 0 00-.174-.401c-.116-.124-.281-.184-.494-.182a.69.69 0 00-.614.341.662.662 0 00-.086.334c0 .152.043.306.128.462.085.156.199.322.341.497.142.173.297.36.465.561l3.448 3.956H675.6l-2.877-3.203c-.189-.216-.378-.44-.568-.675a3.952 3.952 0 01-.469-.753 2.026 2.026 0 01-.188-.87c0-.352.082-.67.245-.951.166-.282.398-.505.696-.668a2.116 2.116 0 011.044-.249c.389 0 .724.08 1.005.238.284.157.502.365.654.625.154.258.231.542.231.853 0 .343-.086.654-.256.934a2.571 2.571 0 01-.71.745l-1.485 1.069a1.71 1.71 0 00-.447.451.825.825 0 00-.014.902.906.906 0 00.362.327c.156.078.34.117.55.117.256 0 .508-.058.757-.174.251-.118.478-.285.681-.501.206-.217.371-.476.494-.774.123-.298.185-.628.185-.991h1.253c0 .445-.048.847-.145 1.204a3.281 3.281 0 01-.405.931 2.588 2.588 0 01-.593.646l-.206.128-.206.128c-.27.217-.572.375-.906.472a3.485 3.485 0 01-.983.146zm5.294-4.207h6.51v1.05h-6.51v-1.05zm-.98 2.79h8.39v1.08h-8.39v-1.08zm.98-6.31h6.44v1.08h-5.12v2.88h-1.32v-3.96zm8.219 3.84h8.38v1.05h-8.38v-1.05zm3.53-.93h1.32v1.43h-1.32v-1.43zm-2.48 2.31h1.32v.59h3.72v-.59h1.32v3.19h-6.36v-3.19zm1.32 1.57v.59h3.72v-.59h-3.72zm-1.35-7.41h6.34v2.41h-5.01v1.05h-1.31v-1.99h5.01v-.46h-5.03v-1.01zm.02 2.91h6.5v1h-6.5v-1zm14.09-3.04h1.33v9.26h-1.33v-9.26zm1.03 3.61h1.63v1.1h-1.63v-1.1zm-7.01-2.25h5.4v1.06h-5.4v-1.06zm2.72 1.59c.446 0 .846.097 1.2.29a2.106 2.106 0 011.14 1.91c0 .433-.104.817-.31 1.15-.2.327-.477.587-.83.78a2.49 2.49 0 01-1.2.28c-.447 0-.85-.093-1.21-.28a2.24 2.24 0 01-.84-.78c-.2-.333-.3-.717-.3-1.15 0-.433.1-.813.3-1.14.206-.327.486-.583.84-.77a2.52 2.52 0 011.21-.29zm0 1.08c-.214 0-.4.043-.56.13a.945.945 0 00-.38.38c-.094.167-.14.37-.14.61 0 .233.046.437.14.61.093.167.22.297.38.39.16.087.346.13.56.13.206 0 .39-.043.55-.13.16-.093.286-.223.38-.39.093-.173.14-.377.14-.61 0-.24-.047-.443-.14-.61a.952.952 0 00-.38-.38 1.134 1.134 0 00-.55-.13zm-.68-3.88h1.34v1.62h-1.34v-1.62zm11.349 1.73h2.52v1.07h-2.52v-1.07zm0 2.88h2.52v1.07h-2.52v-1.07zm-1.61-4.13c.46 0 .87.137 1.23.41.366.267.65.65.85 1.15.206.493.31 1.077.31 1.75 0 .68-.104 1.27-.31 1.77-.2.493-.484.877-.85 1.15-.36.267-.77.4-1.23.4-.46 0-.87-.133-1.23-.4-.36-.273-.644-.657-.85-1.15-.207-.5-.31-1.09-.31-1.77 0-.673.103-1.257.31-1.75.206-.5.49-.883.85-1.15.36-.273.77-.41 1.23-.41zm0 1.21c-.22 0-.417.08-.59.24-.167.16-.3.397-.4.71-.094.307-.14.69-.14 1.15 0 .453.046.84.14 1.16.1.313.233.55.4.71.173.16.37.24.59.24.233 0 .433-.08.6-.24.166-.16.296-.397.39-.71.093-.32.14-.707.14-1.16 0-.46-.047-.843-.14-1.15-.094-.313-.224-.55-.39-.71a.837.837 0 00-.6-.24zm3.91-1.86h1.33v9.29h-1.33v-9.29zM640.003 576v-7.273h1.538v6.005h3.118V576h-4.656zm7.201.103c-.348 0-.658-.06-.93-.181a1.497 1.497 0 01-.647-.543c-.156-.242-.234-.543-.234-.902 0-.303.056-.558.167-.764a1.35 1.35 0 01.454-.497c.192-.126.41-.22.654-.284.246-.064.504-.109.774-.135.317-.033.573-.064.767-.092.194-.031.335-.076.423-.135a.299.299 0 00.131-.263v-.021c0-.225-.071-.399-.213-.523-.14-.123-.339-.184-.597-.184-.272 0-.489.06-.65.181a.829.829 0 00-.319.447l-1.399-.113c.071-.332.21-.618.419-.86.208-.243.477-.43.806-.561a3.092 3.092 0 011.15-.199c.303 0 .593.036.87.107.28.071.527.181.743.33.217.149.389.341.515.576.125.232.188.51.188.834V576h-1.435v-.756h-.043a1.54 1.54 0 01-.351.451 1.635 1.635 0 01-.529.301 2.188 2.188 0 01-.714.107zm.433-1.044c.223 0 .419-.044.59-.131.17-.09.304-.211.401-.363a.933.933 0 00.146-.515v-.578a.858.858 0 01-.196.085c-.08.023-.171.046-.273.067l-.306.054-.277.039a1.872 1.872 0 00-.465.124.754.754 0 00-.309.231.563.563 0 00-.11.355c0 .206.075.363.224.472.151.107.343.16.575.16zm4.551 2.986c-.192 0-.372-.015-.54-.046a1.954 1.954 0 01-.412-.11l.341-1.129c.178.054.338.084.48.089a.617.617 0 00.373-.1c.106-.071.192-.191.259-.362l.089-.231-1.957-5.611h1.591l1.129 4.006h.057l1.14-4.006h1.601l-2.12 6.044c-.102.294-.24.55-.415.768-.173.22-.392.389-.657.507-.265.121-.585.181-.959.181zm7.214-1.938c-.551 0-1.028-.118-1.431-.352a2.412 2.412 0 01-.927-.987c-.218-.424-.326-.915-.326-1.474 0-.563.108-1.056.326-1.477.218-.424.527-.753.927-.987.403-.237.88-.356 1.431-.356.552 0 1.028.119 1.428.356.402.234.712.563.93.987.218.421.327.914.327 1.477 0 .559-.109 1.05-.327 1.474-.218.421-.528.75-.93.987-.4.234-.876.352-1.428.352zm.007-1.172a.941.941 0 00.629-.213c.168-.145.295-.341.38-.59.087-.248.131-.531.131-.849 0-.317-.044-.6-.131-.848a1.323 1.323 0 00-.38-.59.933.933 0 00-.629-.216.965.965 0 00-.639.216c-.17.145-.299.341-.387.59a2.61 2.61 0 00-.128.848c0 .318.043.601.128.849.088.249.217.445.387.59a.974.974 0 00.639.213zm7.159-1.257v-3.133h1.513V576h-1.452v-.991h-.057a1.61 1.61 0 01-.614.771c-.285.194-.631.291-1.041.291-.365 0-.685-.083-.962-.249a1.704 1.704 0 01-.65-.706c-.154-.306-.232-.671-.235-1.098v-3.473h1.513v3.204c.003.322.089.576.26.763.17.187.398.281.685.281.182 0 .353-.042.511-.125a.97.97 0 00.384-.376c.099-.166.148-.371.145-.614zm5.624-3.133v1.137h-3.284v-1.137h3.284zm-2.539-1.306h1.513v5.085a.7.7 0 00.064.327.352.352 0 00.178.159.727.727 0 00.27.047c.071 0 .142-.006.213-.018l.163-.032.238 1.126c-.076.023-.182.05-.32.081a2.634 2.634 0 01-.5.061 2.304 2.304 0 01-.959-.146 1.342 1.342 0 01-.636-.518c-.151-.235-.226-.531-.224-.888v-5.284zm9.776 4.151c.666 0 1.246.07 1.74.21.493.14.873.34 1.14.6.273.26.41.573.41.94 0 .36-.137.67-.41.93-.267.267-.647.47-1.14.61-.494.14-1.074.21-1.74.21-.66 0-1.237-.07-1.73-.21-.494-.14-.877-.343-1.15-.61-.267-.26-.4-.57-.4-.93 0-.367.133-.68.4-.94.273-.26.656-.46 1.15-.6.493-.14 1.07-.21 1.73-.21zm0 1a6.05 6.05 0 00-1.06.08c-.294.053-.517.137-.67.25a.511.511 0 000 .84c.153.107.376.19.67.25.293.053.646.08 1.06.08.42 0 .776-.027 1.07-.08.293-.06.516-.143.67-.25a.507.507 0 00.23-.42.507.507 0 00-.23-.42c-.154-.113-.377-.197-.67-.25a6.132 6.132 0 00-1.07-.08zm-3.18-6.35h5.87v1.04h-5.87v-1.04zm-.93 3.72h8.33v1.05h-8.33v-1.05zm3.08-1.62h1.33v1.88h-1.33v-1.88zm2.94-2.1h1.33v.76c0 .367-.01.75-.03 1.15-.02.4-.097.84-.23 1.32l-1.32-.13c.126-.473.2-.893.22-1.26.02-.367.03-.727.03-1.08v-.76zm9.099-.41h1.34v6.62h-1.34v-6.62zm.97 2.58h1.6v1.09h-1.6v-1.09zm-3.54-1.89h1.41c0 .84-.167 1.59-.5 2.25a4.703 4.703 0 01-1.46 1.69c-.633.467-1.413.833-2.34 1.1l-.55-1.05c.753-.213 1.383-.487 1.89-.82.513-.333.9-.713 1.16-1.14.26-.427.39-.887.39-1.38v-.65zm-3.04 0h3.75v1.06h-3.75v-1.06zm.97 7.34h6.3v1.07h-6.3v-1.07zm0-2.08h1.33v2.56h-1.33v-2.56zm11.874-5.4h1.04v1.07c0 .527-.074 1.04-.22 1.54a3.905 3.905 0 01-.69 1.33 3.061 3.061 0 01-1.23.91l-.69-1.02c.426-.193.77-.437 1.03-.73.266-.3.46-.627.58-.98.12-.353.18-.703.18-1.05v-1.07zm.25 0h1.04v1.07c0 .333.056.66.17.98.113.313.296.6.55.86.26.26.59.473.99.64l-.7 1.01a3.025 3.025 0 01-1.18-.82c-.3-.36-.52-.767-.66-1.22-.14-.46-.21-.943-.21-1.45v-1.07zm4.71-.55h1.27v5.66h-1.27v-5.66zm-1.11 2.25h1.47v1.07h-1.47v-1.07zm-.84-2.08h1.24v5.2h-1.24v-5.2zm.08 5.62c.646 0 1.206.07 1.68.21.48.133.85.33 1.11.59.26.26.39.57.39.93 0 .367-.13.68-.39.94-.26.26-.63.457-1.11.59-.474.14-1.034.21-1.68.21-.647 0-1.21-.07-1.69-.21-.48-.133-.85-.33-1.11-.59a1.28 1.28 0 01-.39-.94c0-.36.13-.67.39-.93s.63-.457 1.11-.59c.48-.14 1.043-.21 1.69-.21zm0 1c-.6 0-1.064.06-1.39.18-.32.12-.48.303-.48.55 0 .247.16.433.48.56.326.12.79.18 1.39.18.393 0 .726-.027 1-.08.28-.06.49-.143.63-.25a.489.489 0 00.22-.41c0-.247-.16-.43-.48-.55-.32-.12-.777-.18-1.37-.18zm6.599-6.31h1.1v.82a5.22 5.22 0 01-.29 1.75 3.87 3.87 0 01-.86 1.43c-.387.407-.884.713-1.49.92l-.7-1.07c.533-.167.963-.407 1.29-.72.326-.313.566-.67.72-1.07.153-.4.23-.813.23-1.24v-.82zm.27 0h1.08v.76c0 .407.07.8.21 1.18.14.373.363.707.67 1 .306.287.703.51 1.19.67l-.69 1.04c-.567-.2-1.034-.49-1.4-.87a3.592 3.592 0 01-.8-1.34 5.262 5.262 0 01-.26-1.68v-.76zm3.99-.48h1.34v5.42h-1.34v-5.42zm-1.8 5.66c.98 0 1.753.16 2.32.48.566.313.85.75.85 1.31 0 .573-.284 1.017-.85 1.33-.567.32-1.34.48-2.32.48-.98 0-1.754-.16-2.32-.48-.567-.313-.85-.757-.85-1.33 0-.56.283-.997.85-1.31.566-.32 1.34-.48 2.32-.48zm0 1.03c-.4 0-.737.027-1.01.08-.274.053-.484.14-.63.26a.52.52 0 00-.21.42c0 .173.07.32.21.44.146.113.356.2.63.26.273.053.61.08 1.01.08s.736-.027 1.01-.08c.273-.06.48-.147.62-.26.14-.12.21-.267.21-.44a.52.52 0 00-.21-.42c-.14-.12-.347-.207-.62-.26a5.418 5.418 0 00-1.01-.08zm.11-5.01h1.89v1.08h-1.89v-1.08z" fill="#333"/><path d="M824.305 469.041a4.5 4.5 0 110 9 4.5 4.5 0 010-9z" fill="#fff" stroke="#EB5F00"/><defs><linearGradient id="paint0_linear_1079_11247" x1="815.852" y1="483.799" x2="738.437" y2="607.901" gradientUnits="userSpaceOnUse"><stop offset=".296" stop-color="#fff"/><stop offset=".593"/></linearGradient><filter id="filter0_i_1079_11247" x="718" y="551.144" width="24" height="26" filterUnits="userSpaceOnUse" color-interpolation-filters="sRGB"><feFlood flood-opacity="0" result="BackgroundImageFix"/><feBlend in="SourceGraphic" in2="BackgroundImageFix" result="shape"/><feColorMatrix in="SourceAlpha" values="0 0 0 0 0 0 0 0 0 0 0 0 0 0 0 0 0 0 127 0" result="hardAlpha"/><feOffset dy="-2"/><feGaussianBlur stdDeviation="2"/><feComposite in2="hardAlpha" operator="arithmetic" k2="-1" k3="1"/><feColorMatrix values="0 0 0 0 0 0 0 0 0 0 0 0 0 0 0 0 0 0 0.5 0"/><feBlend in2="shape" result="effect1_innerShadow_1079_11247"/></filter></defs></svg>