<svg width="18" height="19" fill="none" xmlns="http://www.w3.org/2000/svg"><g filter="url(#filter0_d_133_5929)"><mask id="a" maskUnits="userSpaceOnUse" x="2" y="2.375" width="14" height="14" fill="#000"><path fill="#fff" d="M2 2.375h14v14H2z"/><path fill-rule="evenodd" clip-rule="evenodd" d="M4.333 4.375h9.334c.184 0 .333.15.333.333v9.334c0 .184-.15.333-.333.333H4.333A.333.333 0 014 14.042V4.708c0-.184.15-.333.333-.333zM3 4.708c0-.736.597-1.333 1.333-1.333h9.334c.736 0 1.333.597 1.333 1.333v9.334c0 .736-.597 1.333-1.333 1.333H4.333A1.333 1.333 0 013 14.042V4.708zm4.21.95v6.384h1.144v-1.12l.648-.736 1.088 1.856h1.272L9.666 9.394l1.552-1.832h-1.28L8.386 9.498h-.032v-3.84H7.21z"/></mask><path fill-rule="evenodd" clip-rule="evenodd" d="M4.333 4.375h9.334c.184 0 .333.15.333.333v9.334c0 .184-.15.333-.333.333H4.333A.333.333 0 014 14.042V4.708c0-.184.15-.333.333-.333zM3 4.708c0-.736.597-1.333 1.333-1.333h9.334c.736 0 1.333.597 1.333 1.333v9.334c0 .736-.597 1.333-1.333 1.333H4.333A1.333 1.333 0 013 14.042V4.708zm4.21.95v6.384h1.144v-1.12l.648-.736 1.088 1.856h1.272L9.666 9.394l1.552-1.832h-1.28L8.386 9.498h-.032v-3.84H7.21z" fill="#FFC600" shape-rendering="crispEdges"/><path d="M7.21 12.042h-.667v.666h.667v-.666zm0-6.384V4.99h-.667v.667h.667zm1.144 6.384v.666h.667v-.666h-.667zm0-1.12l-.5-.44-.167.188v.252h.667zm.648-.736l.575-.337-.466-.796-.61.692.501.44zm1.088 1.856l-.575.337.193.33h.382v-.667zm1.272 0v.666h1.219l-.657-1.026-.562.36zM9.666 9.394l-.509-.431-.318.376.266.414.561-.36zm1.552-1.832l.509.43.93-1.097h-1.439v.667zm-1.28 0v-.667h-.32l-.2.25.52.417zM8.386 9.498v.666h.32l.2-.25-.52-.416zm-.032 0h-.667v.666h.667v-.666zm0-3.84h.667V4.99h-.667v.667zm5.313-1.283v-.667H4.333v1.334h9.334v-.667zm.333.333h.667a1 1 0 00-1-1v1.334a.333.333 0 01-.334-.334H14zm0 9.334h.667V4.708h-1.334v9.334H14zm-.333.333v.667a1 1 0 001-1h-1.334c0-.184.15-.334.334-.334v.667zm-9.334 0v.667h9.334v-1.334H4.333v.667zM4 14.042h-.667a1 1 0 001 1v-1.334c.184 0 .334.15.334.334H4zm0-9.334h-.667v9.334h1.334V4.708H4zm.333-.333v-.667a1 1 0 00-1 1h1.334c0 .184-.15.334-.334.334v-.667zm0-1v-.667a2 2 0 00-2 2h1.334c0-.368.298-.666.666-.666v-.667zm9.334 0v-.667H4.333v1.334h9.334v-.667zM15 4.708h.667a2 2 0 00-2-2v1.334c.368 0 .666.298.666.666H15zm0 9.334h.667V4.708h-1.334v9.334H15zm-1.333 1.333v.667a2 2 0 002-2h-1.334a.667.667 0 01-.666.666v.667zm-9.334 0v.667h9.334v-1.334H4.333v.667zM3 14.042h-.667a2 2 0 002 2v-1.334a.667.667 0 01-.666-.666H3zm0-9.334h-.667v9.334h1.334V4.708H3zm4.21 7.334h.667V5.658H6.543v6.384h.667zm1.144 0v-.667H7.21v1.333h1.144v-.666zm0-1.12h-.667v1.12h1.334v-1.12h-.667zm.648-.736l-.5-.44-.648.735.5.44.5.441.648-.736-.5-.44zm1.088 1.856l.575-.338L9.577 9.85l-.575.337-.575.337 1.088 1.856.575-.337zm1.272 0v-.667H10.09v1.333h1.272v-.666zM9.666 9.394l-.561.36L10.8 12.4l.561-.36.562-.359-1.697-2.648-.56.36zm1.552-1.832l-.508-.431-1.553 1.832.51.43.508.432 1.552-1.832-.509-.431zm-1.28 0v.666h1.28V6.895h-1.28v.667zM8.386 9.498l.52.417 1.552-1.936-.52-.417-.52-.417L7.866 9.08l.52.417zm-.032 0v.666h.032V8.831h-.032v.667zm0-3.84h-.667v3.84h1.334v-3.84h-.667zm-1.144 0v.666h1.144V4.991H7.21v.667z" fill="#000" fill-opacity=".8" mask="url(#a)"/></g><defs><filter id="filter0_d_133_5929" x=".182" y=".558" width="17.636" height="17.635" filterUnits="userSpaceOnUse" color-interpolation-filters="sRGB"><feFlood flood-opacity="0" result="BackgroundImageFix"/><feColorMatrix in="SourceAlpha" values="0 0 0 0 0 0 0 0 0 0 0 0 0 0 0 0 0 0 127 0" result="hardAlpha"/><feOffset/><feGaussianBlur stdDeviation="1.075"/><feComposite in2="hardAlpha" operator="out"/><feColorMatrix values="0 0 0 0 0 0 0 0 0 0 0 0 0 0 0 0 0 0 0.5 0"/><feBlend in2="BackgroundImageFix" result="effect1_dropShadow_133_5929"/><feBlend in="SourceGraphic" in2="effect1_dropShadow_133_5929" result="shape"/></filter></defs></svg>