<svg width="23" height="23" fill="none" xmlns="http://www.w3.org/2000/svg"><rect x=".5" y=".598" width="21" height="21" rx="2.5" stroke="#000"/><rect x="1.5" y="1.598" width="19" height="19" rx="1.5" fill="url(#paint0_linear_922_7528)" stroke="url(#paint1_linear_922_7528)"/><g filter="url(#filter0_d_922_7528)"><path d="M15.4 10.677c.36 0 .65.274.65.611 0 .338-.29.613-.65.613-.359 0-.65-.275-.65-.613 0-.337.291-.611.65-.611z" fill="#B6D0C9"/><path fill-rule="evenodd" clip-rule="evenodd" d="M15.4 6.098v3.057h.65c1.076 0 1.95.818 1.95 1.835v3.661h-2.6v2.447H7.6V14.65H5v-3.66c0-1.017.874-1.836 1.95-1.836h.65V6.098h7.8zm-6.5 7.33v2.447h5.2V13.43H8.9zm-1.95-3.057c-.361 0-.65.278-.65.611v2.447h1.3v-1.223h7.8v1.223h1.3v-2.447c0-.334-.289-.61-.65-.61h-9.1zm1.95-3.05v1.834h5.2V7.321H8.9z" fill="#B6D0C9"/><path d="M15.85 5.647v3.058h.2c1.298 0 2.4.994 2.4 2.285v4.112h-2.6v2.446h-8.7v-2.446h-2.6V10.99c0-1.291 1.103-2.285 2.4-2.285h.2V5.647h8.7zm-6.5 9.778h4.3v-1.546h-4.3v1.546zm6.9-3.463a1.107 1.107 0 01-.4.293v.723h.4v-1.016zm-9.3-1.14c-.136 0-.2.098-.2.16v1.997h.4v-1.223h7.263a1.025 1.025 0 01-.113-.468l.007-.113a1.02 1.02 0 01.105-.354H6.95zm2.4-2.117h4.3v-.934h-4.3v.934z" stroke="#000" stroke-width=".9"/></g><defs><linearGradient id="paint0_linear_922_7528" x1="11" y1="1.098" x2="11" y2="21.098" gradientUnits="userSpaceOnUse"><stop stop-color="#081813"/><stop offset=".087" stop-color="#09271E"/><stop offset=".254" stop-color="#0B3227"/><stop offset=".513" stop-color="#0E3D2F"/><stop offset=".8" stop-color="#0B3227"/><stop offset=".898" stop-color="#0A2B21"/><stop offset="1" stop-color="#081813"/></linearGradient><linearGradient id="paint1_linear_922_7528" x1="11" y1="1.098" x2="11" y2="21.098" gradientUnits="userSpaceOnUse"><stop stop-color="#08251C"/><stop offset=".465" stop-color="#208769"/><stop offset=".844" stop-color="#08241C"/><stop offset="1" stop-color="#051612"/></linearGradient><filter id="filter0_d_922_7528" x=".872" y="1.968" width="21.257" height="19.26" filterUnits="userSpaceOnUse" color-interpolation-filters="sRGB"><feFlood flood-opacity="0" result="BackgroundImageFix"/><feColorMatrix in="SourceAlpha" values="0 0 0 0 0 0 0 0 0 0 0 0 0 0 0 0 0 0 127 0" result="hardAlpha"/><feOffset/><feGaussianBlur stdDeviation="1.615"/><feComposite in2="hardAlpha" operator="out"/><feColorMatrix values="0 0 0 0 0.0235294 0 0 0 0 0.101961 0 0 0 0 0.0784314 0 0 0 1 0"/><feBlend in2="BackgroundImageFix" result="effect1_dropShadow_922_7528"/><feBlend in="SourceGraphic" in2="effect1_dropShadow_922_7528" result="shape"/></filter></defs></svg>