<svg width="21" height="20" viewBox="0 0 21 20" fill="none" xmlns="http://www.w3.org/2000/svg">
<rect x="0.796875" y="0.25" width="19.5" height="19.5" rx="0.75" fill="#D6CBB6"/>
<rect x="0.796875" y="0.25" width="19.5" height="19.5" rx="0.75" stroke="#534731" stroke-width="0.5"/>
<path fill-rule="evenodd" clip-rule="evenodd" d="M14.2985 6.0625V7.75H15.1273L17.5469 11.8369V16H4.54688V11.8369L6.96643 7.75H7.79811V4H12.2761L14.2985 6.0625ZM5.26921 15.25H16.8245V12.5884H12.961V13.7507H8.98814V12.5884H5.26921V15.25ZM5.36162 11.8384H9.71048V13.0007H12.2387V11.8384H16.7321L14.6575 8.5H14.2985V11.1235H7.79811V8.5H7.43553L5.36162 11.8384ZM8.52045 10.3735H13.5761V6.88721H11.5142V4.75H8.52045V10.3735ZM12.2365 6.13721H13.3236L12.2365 5.00854V6.13721Z" fill="#212121"/>
</svg>
