<svg width="20" height="20" fill="none" xmlns="http://www.w3.org/2000/svg"><rect x=".25" y=".25" width="19.5" height="19.5" rx=".583" fill="#D6CBB6"/><rect x=".25" y=".25" width="19.5" height="19.5" rx=".583" stroke="#534731" stroke-width=".5"/><path d="M3.97 9.149h-.634v7.619h.635v-7.62zm12.7 0h-.636v7.619h.635v-7.62zm-.995 3.391H4.669v.634h11.006v-.635z" fill="#212121"/><path d="M5.93 14.863l-2.006-2.006 2.007-2.006.448.448-1.557 1.558 1.557 1.558-.448.448zm8.11 0l-.448-.448 1.558-1.558-1.558-1.558.449-.448 2.006 2.006-2.006 2.006zM11.706 6.52l1.325 1.33-2.26 2.205a.944.944 0 01-.669.27.944.944 0 01-.669-.27.922.922 0 010-1.316l2.27-2.218m.008-.682l-.343.334-2.27 2.218a1.4 1.4 0 00-.422 1.004 1.417 1.417 0 001.426 1.413c.381 0 .74-.143 1.008-.41l2.61-2.548-.347-.347-1.325-1.33-.338-.338v.004z" fill="#212121"/><path d="M13.967 4.662c.24 0 .486.09.668.271a.922.922 0 010 1.317l-1.413 1.405-1.325-1.33 1.4-1.392a.945.945 0 01.67-.27zm0-.482c-.381 0-.741.144-1.008.41l-1.405 1.397-.343.343.343.343 1.325 1.329.338.339.343-.339 1.414-1.405a1.402 1.402 0 000-2.002 1.422 1.422 0 00-1.007-.411V4.18zM6.504 8.882s.17 1.736 1.812 2.375c.512.212 1.744.207 2.688-.61.838-.943.194-1.883.194-1.883s-.334-.449-.673-.55c-.325-.098-1.028-.3-1.659.406-.935.77-1.566.512-2.366.262h.004z" fill="#212121"/></svg>