<svg width="20" height="20" fill="none" xmlns="http://www.w3.org/2000/svg"><rect x=".25" y=".25" width="19.5" height="19.5" rx=".75" fill="#D6CBB6"/><rect x=".25" y=".25" width="19.5" height="19.5" rx=".75" stroke="url(#paint0_linear_1027_8808)" stroke-width=".5"/><rect x=".25" y=".25" width="19.5" height="19.5" rx=".75" stroke="#534731" stroke-width=".5"/><path d="M7.233 12.842l-.52-.039c-.446-.035-.67-.15-.67-.342l.878-2.315h4.037l.512 1.22.658-.655.285-.286.034-.035L9.52 3h-.45l-3.784 9.148c-.173.408-.43.627-.765.655l-.52.04v.403a77.515 77.515 0 011.532-.039c.119 0 .685.012 1.697.04l.004-.405zM8.94 5.606l1.767 4.003H7.163l1.778-4.003zm3.65 5.47l1.585 1.621-2.701 2.688c-.22.22-.508.33-.8.33-.293 0-.582-.11-.801-.33a1.143 1.143 0 010-1.605l2.717-2.704zm.004-.828l-.408.408-2.717 2.704a1.714 1.714 0 00-.505 1.225 1.71 1.71 0 001.705 1.722c.454 0 .886-.176 1.205-.502l2.701-2.688.42-.416-.412-.42-1.585-1.62-.404-.413z" fill="#212121"/><path d="M15.295 8.812c.289 0 .581.11.8.33a1.143 1.143 0 010 1.605l-1.689 1.71-1.585-1.62 1.678-1.7c.219-.219.601-.32.893-.32m-.097-.594c-.454 0-.885.177-1.204.503l-1.678 1.703-.412.416.408.416 1.585 1.62.408.416.408-.412 1.69-1.71c.323-.322.5-.758.5-1.221 0-.463-.177-.899-.504-1.224-.323-.322-.65-.507-1.104-.507h-.097zM6.31 13.835s.265 2.24 2.227 3.022c.612.259 2.086.25 3.214-.742 1.004-1.15.235-2.3.235-2.3s-.397-.545-.805-.67c-.392-.118-1.227-.366-1.986.498-1.12.938-1.874.624-2.828.321l-.058-.129z" fill="#212121"/><defs><linearGradient id="paint0_linear_1027_8808" x1="10" y1="0" x2="10" y2="20" gradientUnits="userSpaceOnUse"><stop stop-color="#A39C90"/><stop offset=".53" stop-color="#F2F1F0"/><stop offset="1" stop-color="#A39C90"/></linearGradient></defs></svg>