<svg width="22" height="21" fill="none" xmlns="http://www.w3.org/2000/svg"><g filter="url(#filter0_d_99_6226)" shape-rendering="crispEdges"><path d="M7.333 6.107H5.667v6.377h10.666V6.107h-1.666v-.666h1.666c.369 0 .667.298.667.666v7.334a.667.667 0 01-.667.666H11.5v1.336h2.167v1H8.333v-1H10.5v-1.336H5.667A.667.667 0 015 13.441V6.107c0-.368.298-.666.667-.666h1.666v.666z" fill="#FFC600"/><path d="M11.4 4.307c.742 0 1.256.32 1.59.66l-.55.653c-.25-.243-.54-.43-1.006-.43-.854 0-1.452.666-1.452 1.77 0 1.118.514 1.792 1.521 1.792.25 0 .5-.07.646-.195V7.543h-.91v-.84h1.827v2.32c-.348.34-.952.617-1.667.617-1.403 0-2.465-.93-2.465-2.645 0-1.695 1.097-2.688 2.465-2.688z" fill="#FFC600"/><path d="M7.833 4.94v1.667H6.167v5.377h9.666V6.607h-1.666V4.94h2.166c.644 0 1.167.522 1.167 1.166v7.334l-.006.12a1.167 1.167 0 01-1.161 1.046H12v.336h2.167v2H7.833v-2H10v-.336H5.667A1.167 1.167 0 014.5 13.44V6.107l.006-.12a1.167 1.167 0 011.161-1.046h2.166zm3.732-1.128c.816.045 1.4.415 1.782.805l.317.324-.292.348-.549.652-.22.262h.962v3.03l-.149.146c-.447.438-1.18.761-2.017.761-.813 0-1.566-.271-2.115-.828-.55-.558-.85-1.355-.85-2.317 0-.958.312-1.761.86-2.328.547-.565 1.298-.86 2.105-.86l.166.005zm-.728 4.231c.143.125.351.208.666.208a.824.824 0 00.146-.013v-.195h-.812zm.598-2.354a.829.829 0 00-.665.294c-.162.193-.288.513-.288.977l.005.176c.024.38.123.639.252.804V6.203h1.584l-.231-.225c-.189-.183-.362-.289-.657-.289z" stroke="#000" stroke-opacity=".8"/></g><defs><filter id="filter0_d_99_6226" x=".774" y=".081" width="20.453" height="20.588" filterUnits="userSpaceOnUse" color-interpolation-filters="sRGB"><feFlood flood-opacity="0" result="BackgroundImageFix"/><feColorMatrix in="SourceAlpha" values="0 0 0 0 0 0 0 0 0 0 0 0 0 0 0 0 0 0 127 0" result="hardAlpha"/><feOffset/><feGaussianBlur stdDeviation="1.613"/><feComposite in2="hardAlpha" operator="out"/><feColorMatrix values="0 0 0 0 0 0 0 0 0 0 0 0 0 0 0 0 0 0 0.5 0"/><feBlend in2="BackgroundImageFix" result="effect1_dropShadow_99_6226"/><feBlend in="SourceGraphic" in2="effect1_dropShadow_99_6226" result="shape"/></filter></defs></svg>