<svg width="21" height="20" fill="none" xmlns="http://www.w3.org/2000/svg"><rect x=".797" y=".25" width="19.5" height="19.5" rx=".75" fill="#D6CBB6"/><rect x=".797" y=".25" width="19.5" height="19.5" rx=".75" stroke="#534731" stroke-width=".5"/><path fill-rule="evenodd" clip-rule="evenodd" d="M14.299 6.063V7.75h.828l2.42 4.087V16h-13v-4.163l2.42-4.087h.831V4h4.478L14.3 6.063zm-9.03 9.187h11.556v-2.662H12.96v1.163H8.988v-1.163H5.27v2.662zm.093-3.412H9.71v1.163h2.529v-1.163h4.493L14.658 8.5h-.36v2.623h-6.5V8.5h-.362l-2.074 3.338zm3.158-1.464h5.056V6.886h-2.062V4.75H8.52v5.623zm3.716-4.237h1.088L12.236 5.01v1.128z" fill="#212121"/></svg>