<svg width="21" height="20" fill="none" xmlns="http://www.w3.org/2000/svg"><rect x=".75" y=".25" width="19.5" height="19.5" rx=".75" fill="#D6CBB6"/><rect x=".75" y=".25" width="19.5" height="19.5" rx=".75" stroke="url(#paint0_linear_1011_8007)" stroke-width=".5"/><rect x=".75" y=".25" width="19.5" height="19.5" rx=".75" stroke="#534731" stroke-width=".5"/><path d="M11.256 5.041c2.123-1.25 4.295-1.423 5.459-.247 1.2 1.213.98 3.51-.361 5.72l.607.617-3.023.869.87-3.055.727.738c1.011-1.81 1.152-3.63.19-4.602-.903-.915-2.546-.844-4.227.018.504.147.932.465 1.278.954.48.677.724 1.5.724 2.434 0 .934-.243 1.757-.72 2.442-.5.71-1.165 1.071-1.977 1.071H8.5v-.45c-.43.296-.94.45-1.508.45l-.032-.002c.085.471.276.882.581 1.2 1.16 1.21 3.568.71 5.662-1.067v.407l1.297-.082c-2.549 2.512-5.74 3.3-7.232 1.745l-.007.004c-.534-.557-.777-1.345-.76-2.246a2.528 2.528 0 01-1.283-.624c-.51-.457-.758-1.08-.713-1.797l.031-.496h1.506V7.789H4.687l-.032-.495a2.04 2.04 0 01.643-1.65C5.745 5.218 6.308 5 6.97 5v.004c.606 0 1.119.168 1.529.497V5h2.321l-.003.004c.151 0 .297.012.438.037zm-4.285.48c-.528 0-.965.165-1.314.5-.349.33-.506.745-.478 1.234h.996a.773.773 0 01.188-.573c.136-.162.339-.244.618-.244.28 0 .479.082.601.244a.733.733 0 01.168.492.62.62 0 01-.112.362.785.785 0 01-.255.226c-.115.06-.24.102-.373.123a2.485 2.485 0 01-.447.035v.932c.125 0 .251.003.38.006.13.004.262.026.395.061a.906.906 0 01.44.31.68.68 0 01.136.474.855.855 0 01-.272.56c-.161.15-.37.228-.66.228-.29 0-.525-.085-.703-.254-.178-.168-.258-.39-.237-.672H5.029c-.035.563.146 1.02.537 1.373.282.255.605.416.974.487.016-.132.037-.265.064-.4.112 0 .222-.007.325-.025a4.1 4.1 0 00-.017.465c.027 0 .053.004.08.004.566 0 1.041-.172 1.418-.517.032-.03.06-.06.09-.09V8.66a1.555 1.555 0 00-.404-.287c.145-.08.28-.199.404-.354V6.253a1.909 1.909 0 00-.209-.24c-.29-.283-.663-.442-1.12-.478l-.2-.014zM8.96 6c.234.34.353.72.353 1.132 0 .432-.108.805-.314 1.1a2.012 2.012 0 00-.038.05v.103c.067.072.13.15.188.235.234.33.35.697.35 1.087 0 .545-.182 1.025-.538 1.432v.302h1.84c.678 0 1.22-.29 1.627-.874.41-.584.612-1.28.612-2.084 0-.803-.206-1.496-.612-2.069-.407-.573-.943-.855-1.608-.855H8.96V6zm1.703.6c.437 0 .78.171 1.02.517.24.343.36.804.36 1.366s-.12 1.023-.36 1.384-.583.54-1.02.54H9.89V6.601h.775zM6.565 9.609c-.01.168.046.221.074.25.052.045.144.109.346.109h.003c.21 0 .277-.067.301-.088a.32.32 0 00.108-.218.146.146 0 00-.032-.113.362.362 0 00-.174-.12 1.158 1.158 0 00-.262-.038c-.119-.007-.234-.007-.346-.007l-.018.225zm2.397.305a1.357 1.357 0 000-.4v.4zm1.392-.067h.313c.391 0 .564-.19.66-.332.175-.26.258-.6.258-1.03 0-.432-.084-.764-.253-1.005-.099-.138-.27-.32-.668-.32h-.31v2.687zM6.985 6.974c-.08 0-.181.01-.223.06a.243.243 0 00-.06.193l.01.165v.007c.078-.007.15-.014.217-.025a.751.751 0 00.206-.066.243.243 0 00.084-.075c0-.001.01-.02.01-.08.004-.046-.034-.106-.062-.144-.007-.01-.063-.035-.182-.035z" fill="#000"/><defs><linearGradient id="paint0_linear_1011_8007" x1="10.5" y1="0" x2="10.5" y2="20" gradientUnits="userSpaceOnUse"><stop stop-color="#A39C90"/><stop offset=".53" stop-color="#F2F1F0"/><stop offset="1" stop-color="#A39C90"/></linearGradient></defs></svg>