<svg width="14" height="14" viewBox="0 0 14 14" fill="none" xmlns="http://www.w3.org/2000/svg">
<path fill-rule="evenodd" clip-rule="evenodd" d="M10.8163 4.93942C11.0831 5.23962 11.0561 5.69931 10.7559 5.96616L7 9.30473L3.24411 5.96616C2.9439 5.69931 2.91686 5.23962 3.18371 4.93942C3.45056 4.63921 3.91025 4.61217 4.21045 4.87902L7 7.35862L9.78955 4.87902C10.0898 4.61217 10.5494 4.63921 10.8163 4.93942Z" fill="white"/>
<path d="M11.1904 4.60742C11.6404 5.11402 11.5944 5.88963 11.0879 6.33984L7.33203 9.67871L7 9.97363L6.66797 9.67871L2.91211 6.33984C2.40562 5.88963 2.35956 5.11402 2.80957 4.60742C3.25987 4.10083 4.03637 4.0546 4.54297 4.50488L7 6.68945L9.45703 4.50488C9.96363 4.0546 10.7401 4.10083 11.1904 4.60742Z" stroke="black" stroke-opacity="0.8" stroke-linecap="round"/>
</svg>
