<svg width="20" height="21" fill="none" xmlns="http://www.w3.org/2000/svg"><rect x=".25" y=".75" width="19.5" height="19.5" rx=".583" fill="#D6CBB6"/><rect x=".25" y=".75" width="19.5" height="19.5" rx=".583" stroke="#534731" stroke-width=".5"/><path d="M13 5.5v2c2.215 0 4 2.008 4 4.5s-1.785 4.5-4 4.5c-2.065 0-3.755-1.745-3.975-4H4v-7h9zm0 7H9.646c.216 1.873 1.628 3.308 3.354 3.308 1.877 0 3.385-1.697 3.385-3.808 0-2.046-1.415-3.701-3.21-3.803L13 8.192V12.5zM4.643 6.2v5.6h4.36c.084-2.155 1.504-3.909 3.354-4.242V6.2H4.643zm7.714 2.063c-1.49.327-2.655 1.767-2.737 3.537h2.737V8.263z" fill="#212121"/></svg>