<svg width="20" height="20" fill="none" xmlns="http://www.w3.org/2000/svg"><rect x=".25" y=".25" width="19.5" height="19.5" rx=".75" fill="#D6CBB6"/><rect x=".25" y=".25" width="19.5" height="19.5" rx=".75" stroke="url(#paint0_linear_884_7678)" stroke-width=".5"/><rect x=".25" y=".25" width="19.5" height="19.5" rx=".75" stroke="#534731" stroke-width=".5"/><path d="M7.5 15H4v-.846h3.5V15zm4.75 0h-3.5v-.846h3.5V15zM17 15h-3.5v-.846H17V15zM5.5 12.461H4v-.846h1.5v.846zm8.75 0h-7.5v-.846h7.5v.846zm2.75-.846v.846h-1.5v-.846H17zm0-1.692H4v-.846h13v.846zM5.75 7.385H4v-.847h1.75v.847zm2.81 0H6.81v-.847h1.75v.847zm2.815 0h-1.75v-.847h1.75v.847zm2.815 0h-1.75v-.847h1.75v.847zm2.81 0h-1.75v-.847H17v.847zM5 4.846H4V4h1v.846zm2 0H6V4h1v.846zm2 0H8V4h1v.846zm2 0h-1V4h1v.846zm2 0h-1V4h1v.846zm2 0h-1V4h1v.846zm2 0h-1V4h1v.846z" fill="#212121"/><defs><linearGradient id="paint0_linear_884_7678" x1="10" y1="0" x2="10" y2="20" gradientUnits="userSpaceOnUse"><stop stop-color="#A39C90"/><stop offset=".53" stop-color="#F2F1F0"/><stop offset="1" stop-color="#A39C90"/></linearGradient></defs></svg>